<svg width="442" height="394" viewBox="0 0 442 394" fill="none" xmlns="http://www.w3.org/2000/svg">
<path d="M441.5 217.5C441.5 323.539 318.501 393.5 215.5 393.5C112.499 393.5 0 345.039 0 239C0 132.961 112.499 0 215.5 0C318.501 0 441.5 111.461 441.5 217.5Z" fill="url(#paint0_linear_122_53)"/>
<circle cx="220.5" cy="197" r="90" fill="#FCFCFC"/>
<path d="M191.192 180.44C191.872 180.04 192.572 179.6 193.292 179.12C194.052 178.64 194.472 178.4 194.552 178.4H198.152C200.352 178.4 201.932 178.88 202.892 179.84C203.852 180.76 204.332 181.96 204.332 183.44C204.332 183.88 204.292 184.72 204.212 185.96C204.172 187.16 204.092 188.62 203.972 190.34C203.852 192.06 203.712 193.98 203.552 196.1C203.432 198.18 203.292 200.28 203.132 202.4C203.012 204.52 202.872 206.6 202.712 208.64C202.592 210.68 202.472 212.52 202.352 214.16C202.232 215.76 202.132 217.1 202.052 218.18C201.972 219.26 201.912 219.9 201.872 220.1C201.832 220.42 201.752 220.66 201.632 220.82C201.512 220.94 201.272 221 200.912 221H197.612C195.212 221 193.572 220.52 192.692 219.56C191.812 218.6 191.372 217.08 191.372 215C191.372 214.16 191.432 212.88 191.552 211.16C191.672 209.4 191.812 207.36 191.972 205.04C192.172 202.72 192.372 200.18 192.572 197.42C192.812 194.66 193.052 191.84 193.292 188.96C192.852 189.44 192.372 189.78 191.852 189.98C191.372 190.18 190.892 190.28 190.412 190.28C189.652 190.28 188.972 190.08 188.372 189.68C187.812 189.28 187.332 188.8 186.932 188.24C186.532 187.68 186.232 187.08 186.032 186.44C185.832 185.76 185.732 185.16 185.732 184.64C185.732 184.44 185.772 184.26 185.852 184.1C185.972 183.94 186.212 183.72 186.572 183.44C186.932 183.16 187.472 182.8 188.192 182.36C188.912 181.88 189.912 181.24 191.192 180.44ZM229.938 177.74C232.578 177.74 234.818 178.16 236.658 179C238.498 179.8 239.998 181 241.158 182.6C242.318 184.16 243.158 186.08 243.678 188.36C244.238 190.6 244.518 193.16 244.518 196.04C244.518 197.64 244.418 199.38 244.218 201.26C244.018 203.14 243.658 205.04 243.138 206.96C242.618 208.84 241.898 210.66 240.978 212.42C240.058 214.18 238.878 215.74 237.438 217.1C235.998 218.46 234.258 219.56 232.218 220.4C230.218 221.2 227.838 221.6 225.078 221.6C222.118 221.6 219.658 221.1 217.698 220.1C215.778 219.1 214.218 217.76 213.018 216.08C211.858 214.36 211.038 212.34 210.558 210.02C210.078 207.7 209.838 205.22 209.838 202.58C209.838 199.46 210.158 196.42 210.798 193.46C211.478 190.46 212.598 187.8 214.158 185.48C215.718 183.16 217.778 181.3 220.338 179.9C222.938 178.46 226.138 177.74 229.938 177.74ZM228.678 187.04C227.558 187.04 226.578 187.3 225.738 187.82C224.938 188.3 224.238 188.96 223.638 189.8C223.078 190.64 222.618 191.58 222.258 192.62C221.938 193.66 221.678 194.74 221.478 195.86C221.278 196.94 221.138 198 221.058 199.04C221.018 200.04 220.998 200.94 220.998 201.74C220.998 205.38 221.438 208.04 222.318 209.72C223.238 211.4 224.538 212.24 226.218 212.24C227.698 212.24 228.898 211.66 229.818 210.5C230.778 209.3 231.518 207.88 232.038 206.24C232.558 204.56 232.898 202.84 233.058 201.08C233.258 199.28 233.358 197.76 233.358 196.52C233.358 193.6 232.998 191.3 232.278 189.62C231.558 187.9 230.358 187.04 228.678 187.04Z" fill="black"/>
<defs>
<linearGradient id="paint0_linear_122_53" x1="441.5" y1="196.75" x2="0" y2="196.75" gradientUnits="userSpaceOnUse">
<stop stop-color="#FF4A4A"/>
<stop offset="0.5" stop-color="#1B1BFF"/>
</linearGradient>
</defs>
</svg>
