<svg width="442" height="394" viewBox="0 0 442 394" fill="none" xmlns="http://www.w3.org/2000/svg">
<path d="M441.5 217.5C441.5 323.539 318.501 393.5 215.5 393.5C112.499 393.5 0 345.039 0 239C0 132.961 112.499 0 215.5 0C318.501 0 441.5 111.461 441.5 217.5Z" fill="url(#paint0_linear_122_48)"/>
<circle cx="220.5" cy="197" r="90" fill="#FCFCFC"/>
<path d="M211.463 221.6C209.783 221.6 208.143 221.44 206.543 221.12C204.983 220.8 203.583 220.34 202.343 219.74C201.103 219.1 200.103 218.32 199.343 217.4C198.623 216.44 198.263 215.32 198.263 214.04C198.263 212.4 198.883 211.12 200.123 210.2C201.403 209.24 203.203 208.76 205.523 208.76C205.843 208.76 206.083 208.8 206.243 208.88C206.403 208.96 206.523 209.16 206.603 209.48C206.723 210.04 206.983 210.5 207.383 210.86C207.783 211.22 208.243 211.5 208.763 211.7C209.283 211.9 209.803 212.04 210.323 212.12C210.883 212.2 211.383 212.24 211.823 212.24C213.023 212.24 214.023 212.04 214.823 211.64C215.663 211.2 216.323 210.66 216.803 210.02C217.323 209.34 217.683 208.6 217.883 207.8C218.123 206.96 218.243 206.16 218.243 205.4C218.243 204.8 218.163 204.22 218.003 203.66C217.883 203.06 217.663 202.54 217.343 202.1C217.063 201.66 216.663 201.3 216.143 201.02C215.663 200.74 215.043 200.6 214.283 200.6C213.563 200.6 212.903 200.76 212.303 201.08C211.743 201.4 211.323 201.98 211.043 202.82C210.883 203.46 210.583 203.78 210.143 203.78H206.843C205.683 203.78 204.723 203.68 203.963 203.48C203.243 203.28 202.663 203 202.223 202.64C201.823 202.24 201.543 201.76 201.383 201.2C201.223 200.6 201.143 199.92 201.143 199.16C201.143 198.2 201.223 196.8 201.383 194.96C201.583 193.08 201.803 191.12 202.043 189.08C202.323 187.04 202.583 185.12 202.823 183.32C203.063 181.48 203.243 180.14 203.363 179.3C203.403 178.7 203.743 178.4 204.383 178.4H227.303C227.543 178.4 227.763 178.46 227.963 178.58C228.163 178.7 228.263 178.92 228.263 179.24L228.023 182.78C227.943 183.98 227.603 184.96 227.003 185.72C226.443 186.44 225.263 186.8 223.463 186.8H212.603L211.343 195.92C211.903 195.4 212.703 195 213.743 194.72C214.823 194.4 216.003 194.24 217.283 194.24C219.003 194.24 220.563 194.54 221.963 195.14C223.363 195.7 224.543 196.5 225.503 197.54C226.463 198.54 227.203 199.76 227.723 201.2C228.243 202.64 228.503 204.22 228.503 205.94C228.503 207.82 228.183 209.7 227.543 211.58C226.903 213.42 225.883 215.1 224.483 216.62C223.123 218.1 221.363 219.3 219.203 220.22C217.043 221.14 214.463 221.6 211.463 221.6Z" fill="black"/>
<defs>
<linearGradient id="paint0_linear_122_48" x1="441.5" y1="196.75" x2="0" y2="196.75" gradientUnits="userSpaceOnUse">
<stop stop-color="#FFD24A"/>
<stop offset="0.5" stop-color="#FF1B1B"/>
</linearGradient>
</defs>
</svg>
