<svg width="442" height="394" viewBox="0 0 442 394" fill="none" xmlns="http://www.w3.org/2000/svg">
<path d="M442 217.5C442 323.539 319.001 393.5 216 393.5C112.999 393.5 0.5 345.039 0.5 239C0.5 132.961 112.999 0 216 0C319.001 0 442 111.461 442 217.5Z" fill="url(#paint0_linear_75_46)"/>
<circle cx="221" cy="197" r="90" fill="#FCFCFC"/>
<path d="M153.02 180.44C153.7 180.04 154.4 179.6 155.12 179.12C155.88 178.64 156.3 178.4 156.38 178.4H159.98C162.18 178.4 163.76 178.88 164.72 179.84C165.68 180.76 166.16 181.96 166.16 183.44C166.16 183.88 166.12 184.72 166.04 185.96C166 187.16 165.92 188.62 165.8 190.34C165.68 192.06 165.54 193.98 165.38 196.1C165.26 198.18 165.12 200.28 164.96 202.4C164.84 204.52 164.7 206.6 164.54 208.64C164.42 210.68 164.3 212.52 164.18 214.16C164.06 215.76 163.96 217.1 163.88 218.18C163.8 219.26 163.74 219.9 163.7 220.1C163.66 220.42 163.58 220.66 163.46 220.82C163.34 220.94 163.1 221 162.74 221H159.44C157.04 221 155.4 220.52 154.52 219.56C153.64 218.6 153.2 217.08 153.2 215C153.2 214.16 153.26 212.88 153.38 211.16C153.5 209.4 153.64 207.36 153.8 205.04C154 202.72 154.2 200.18 154.4 197.42C154.64 194.66 154.88 191.84 155.12 188.96C154.68 189.44 154.2 189.78 153.68 189.98C153.2 190.18 152.72 190.28 152.24 190.28C151.48 190.28 150.8 190.08 150.2 189.68C149.64 189.28 149.16 188.8 148.76 188.24C148.36 187.68 148.06 187.08 147.86 186.44C147.66 185.76 147.56 185.16 147.56 184.64C147.56 184.44 147.6 184.26 147.68 184.1C147.8 183.94 148.04 183.72 148.4 183.44C148.76 183.16 149.3 182.8 150.02 182.36C150.74 181.88 151.74 181.24 153.02 180.44ZM191.766 177.74C194.406 177.74 196.646 178.16 198.486 179C200.326 179.8 201.826 181 202.986 182.6C204.146 184.16 204.986 186.08 205.506 188.36C206.066 190.6 206.346 193.16 206.346 196.04C206.346 197.64 206.246 199.38 206.046 201.26C205.846 203.14 205.486 205.04 204.966 206.96C204.446 208.84 203.726 210.66 202.806 212.42C201.886 214.18 200.706 215.74 199.266 217.1C197.826 218.46 196.086 219.56 194.046 220.4C192.046 221.2 189.666 221.6 186.906 221.6C183.946 221.6 181.486 221.1 179.526 220.1C177.606 219.1 176.046 217.76 174.846 216.08C173.686 214.36 172.866 212.34 172.386 210.02C171.906 207.7 171.666 205.22 171.666 202.58C171.666 199.46 171.986 196.42 172.626 193.46C173.306 190.46 174.426 187.8 175.986 185.48C177.546 183.16 179.606 181.3 182.166 179.9C184.766 178.46 187.966 177.74 191.766 177.74ZM190.506 187.04C189.386 187.04 188.406 187.3 187.566 187.82C186.766 188.3 186.066 188.96 185.466 189.8C184.906 190.64 184.446 191.58 184.086 192.62C183.766 193.66 183.506 194.74 183.306 195.86C183.106 196.94 182.966 198 182.886 199.04C182.846 200.04 182.826 200.94 182.826 201.74C182.826 205.38 183.266 208.04 184.146 209.72C185.066 211.4 186.366 212.24 188.046 212.24C189.526 212.24 190.726 211.66 191.646 210.5C192.606 209.3 193.346 207.88 193.866 206.24C194.386 204.56 194.726 202.84 194.886 201.08C195.086 199.28 195.186 197.76 195.186 196.52C195.186 193.6 194.826 191.3 194.106 189.62C193.386 187.9 192.186 187.04 190.506 187.04ZM231.258 177.74C233.898 177.74 236.138 178.16 237.978 179C239.818 179.8 241.318 181 242.478 182.6C243.638 184.16 244.478 186.08 244.998 188.36C245.558 190.6 245.838 193.16 245.838 196.04C245.838 197.64 245.738 199.38 245.538 201.26C245.338 203.14 244.978 205.04 244.458 206.96C243.938 208.84 243.218 210.66 242.298 212.42C241.378 214.18 240.198 215.74 238.758 217.1C237.318 218.46 235.578 219.56 233.538 220.4C231.538 221.2 229.158 221.6 226.398 221.6C223.438 221.6 220.978 221.1 219.018 220.1C217.098 219.1 215.538 217.76 214.338 216.08C213.178 214.36 212.358 212.34 211.878 210.02C211.398 207.7 211.158 205.22 211.158 202.58C211.158 199.46 211.478 196.42 212.118 193.46C212.798 190.46 213.918 187.8 215.478 185.48C217.038 183.16 219.098 181.3 221.658 179.9C224.258 178.46 227.458 177.74 231.258 177.74ZM229.998 187.04C228.878 187.04 227.898 187.3 227.058 187.82C226.258 188.3 225.558 188.96 224.958 189.8C224.398 190.64 223.938 191.58 223.578 192.62C223.258 193.66 222.998 194.74 222.798 195.86C222.598 196.94 222.458 198 222.378 199.04C222.338 200.04 222.318 200.94 222.318 201.74C222.318 205.38 222.758 208.04 223.638 209.72C224.558 211.4 225.858 212.24 227.538 212.24C229.018 212.24 230.218 211.66 231.138 210.5C232.098 209.3 232.838 207.88 233.358 206.24C233.878 204.56 234.218 202.84 234.378 201.08C234.578 199.28 234.678 197.76 234.678 196.52C234.678 193.6 234.318 191.3 233.598 189.62C232.878 187.9 231.678 187.04 229.998 187.04ZM258.81 221.78C257.81 221.78 257.21 221.58 257.01 221.18C256.81 220.82 256.71 220.28 256.71 219.56C256.71 219.12 256.81 218.62 257.01 218.06C257.25 217.46 257.57 216.8 257.97 216.08C258.29 215.48 259.11 214.1 260.43 211.94C261.79 209.74 263.47 207.02 265.47 203.78C267.51 200.54 269.79 196.9 272.31 192.86C274.87 188.78 277.53 184.54 280.29 180.14C280.85 179.26 281.39 178.76 281.91 178.64C282.43 178.48 282.99 178.4 283.59 178.4C284.71 178.4 285.39 178.6 285.63 179C285.87 179.36 285.99 179.9 285.99 180.62C285.99 181.06 285.87 181.56 285.63 182.12C285.43 182.64 285.17 183.22 284.85 183.86C284.65 184.26 284.19 185.04 283.47 186.2C282.75 187.36 281.83 188.82 280.71 190.58C279.63 192.34 278.37 194.36 276.93 196.64C275.53 198.92 274.01 201.36 272.37 203.96C270.77 206.52 269.07 209.22 267.27 212.06C265.51 214.86 263.73 217.7 261.93 220.58C261.61 221.06 261.15 221.38 260.55 221.54C259.95 221.7 259.37 221.78 258.81 221.78ZM260.91 177.8C263.67 177.8 265.65 178.52 266.85 179.96C268.05 181.4 268.65 183.42 268.65 186.02C268.65 187.1 268.51 188.32 268.23 189.68C267.99 191 267.51 192.24 266.79 193.4C266.07 194.56 265.05 195.54 263.73 196.34C262.45 197.14 260.77 197.54 258.69 197.54C257.13 197.54 255.83 197.32 254.79 196.88C253.75 196.44 252.93 195.84 252.33 195.08C251.73 194.28 251.29 193.36 251.01 192.32C250.77 191.28 250.65 190.16 250.65 188.96C250.65 187.56 250.81 186.2 251.13 184.88C251.49 183.52 252.05 182.32 252.81 181.28C253.61 180.24 254.67 179.4 255.99 178.76C257.31 178.12 258.95 177.8 260.91 177.8ZM260.31 182.9C259.55 182.9 258.93 183.12 258.45 183.56C258.01 183.96 257.67 184.46 257.43 185.06C257.19 185.66 257.03 186.28 256.95 186.92C256.91 187.56 256.89 188.12 256.89 188.6C256.89 191.16 257.67 192.44 259.23 192.44C259.87 192.44 260.39 192.22 260.79 191.78C261.23 191.3 261.57 190.74 261.81 190.1C262.05 189.42 262.21 188.74 262.29 188.06C262.37 187.34 262.41 186.74 262.41 186.26C262.41 185.22 262.25 184.4 261.93 183.8C261.61 183.2 261.07 182.9 260.31 182.9ZM284.97 201.86C287.73 201.86 289.71 202.58 290.91 204.02C292.11 205.46 292.71 207.48 292.71 210.08C292.71 211.16 292.57 212.38 292.29 213.74C292.05 215.06 291.57 216.3 290.85 217.46C290.13 218.62 289.11 219.6 287.79 220.4C286.51 221.2 284.83 221.6 282.75 221.6C281.19 221.6 279.89 221.38 278.85 220.94C277.81 220.5 276.99 219.9 276.39 219.14C275.79 218.34 275.35 217.42 275.07 216.38C274.83 215.34 274.71 214.22 274.71 213.02C274.71 211.62 274.87 210.26 275.19 208.94C275.55 207.58 276.11 206.38 276.87 205.34C277.67 204.3 278.73 203.46 280.05 202.82C281.37 202.18 283.01 201.86 284.97 201.86ZM284.37 206.96C283.61 206.96 282.99 207.18 282.51 207.62C282.07 208.02 281.73 208.52 281.49 209.12C281.25 209.72 281.09 210.34 281.01 210.98C280.97 211.62 280.95 212.18 280.95 212.66C280.95 215.22 281.73 216.5 283.29 216.5C283.93 216.5 284.45 216.28 284.85 215.84C285.29 215.36 285.63 214.8 285.87 214.16C286.11 213.48 286.27 212.8 286.35 212.12C286.43 211.4 286.47 210.8 286.47 210.32C286.47 209.28 286.31 208.46 285.99 207.86C285.67 207.26 285.13 206.96 284.37 206.96Z" fill="black"/>
<defs>
<linearGradient id="paint0_linear_75_46" x1="442" y1="196.75" x2="0.5" y2="196.75" gradientUnits="userSpaceOnUse">
<stop stop-color="#FFED4A"/>
<stop offset="0.5" stop-color="#FFB31B"/>
</linearGradient>
</defs>
</svg>
