<svg width="655" height="808" viewBox="0 0 655 808" fill="none" xmlns="http://www.w3.org/2000/svg">
<g clip-path="url(#clip0_88_206)">
<rect width="655" height="808" fill="white"/>
<rect width="655" height="808" fill="#FFF6F6"/>
<rect x="271.741" y="364.596" width="77.6891" height="67.3305" fill="white"/>
<g filter="url(#filter0_d_88_206)">
<path d="M252.132 426.34C237.941 399.007 253.901 362.59 287.78 344.999C321.659 327.409 360.628 335.307 374.819 362.639C389.011 389.972 373.051 426.389 339.172 443.98C305.293 461.57 266.324 453.672 252.132 426.34ZM342.917 379.203C336.106 366.085 317.403 362.294 301.143 370.737C284.883 379.179 277.223 396.658 284.034 409.776C290.845 422.894 309.548 426.685 325.808 418.242C342.069 409.8 349.729 392.321 342.917 379.203Z" fill="#FFD295"/>
</g>
<g filter="url(#filter1_d_88_206)">
<path d="M371.265 402.617C371.265 402.617 373.579 416.845 376.737 415.974C379.895 415.103 379.303 415.256 384.056 413.559C387.301 411.646 389.604 412.378 390.794 410.368C392.224 407.951 392.48 408.082 394.344 406.709C396.761 402.617 401.595 401.875 402.976 393.933C403.864 388.828 399.848 376.799 398.227 371.44C396.656 366.248 393.406 361.44 390.257 357.18C405.738 339.4 385.209 348.551 381.166 345.264C379.136 342.662 375.804 335.788 372.683 333.472C370.563 330.525 358.798 316.913 349.513 315.444C333.732 312.948 336.455 316.938 329.632 318.027C327.294 317.974 326.437 321.93 322.041 326.684C316.981 332.157 320.433 333.584 320.433 333.584C321.441 334.778 332.735 341.45 339.705 348.675C350.239 362.093 347.129 360.148 352.388 368.539C362.578 384.795 366.134 383.476 371.265 402.617Z" fill="#493B3B"/>
</g>
<path d="M253.758 425.741C253.429 425.447 252.943 424.904 252.456 424.877C251.703 424.897 250.661 425.496 250.018 425.856C249.538 426.125 249.071 426.494 248.551 426.71C247.927 427.245 247.535 427.436 247.065 427.831C246.483 428.32 245.846 428.268 245.557 429.035C245.448 429.323 245.806 430.262 245.889 430.594L245.892 430.608C245.991 431.001 246.11 431.477 246.299 431.832C246.473 432.158 246.494 432.523 246.656 432.844C246.953 433.431 247.151 434.072 247.498 434.638C247.971 435.409 248.433 436.132 249.175 436.684C250.368 437.574 251.71 438.348 253.125 438.804C253.418 438.898 253.486 439.019 253.76 438.834C253.899 438.741 254.116 438.54 254.258 438.46C254.829 438.138 255.341 437.729 255.913 437.408C256.562 437.043 257.163 436.524 257.727 436.038C258.578 435.303 260.06 433.832 260.229 433.655C260.229 433.655 260.354 433.479 260.22 433.324C259.867 432.838 259.463 432.371 259.074 431.915C258.274 430.978 257.446 430.086 256.702 429.099C255.797 427.898 254.886 426.746 253.758 425.741Z" fill="#FFD295"/>
<path d="M228 478.2L226.48 500.4C226.453 500.8 226.307 501 226.04 501H223.84C222.347 501 221.28 500.707 220.64 500.12C220 499.533 219.68 498.693 219.68 497.6C219.68 497.2 219.693 496.6 219.72 495.8C219.773 495 219.84 494.067 219.92 493C220 491.907 220.08 490.733 220.16 489.48C220.267 488.2 220.373 486.92 220.48 485.64C220.587 484.333 220.68 483.04 220.76 481.76C220.867 480.48 220.96 479.293 221.04 478.2H214.64C214.347 478.2 214.2 478.013 214.2 477.64L214.32 475.4C214.347 475.053 214.4 474.72 214.48 474.4C214.587 474.053 214.747 473.747 214.96 473.48C215.173 473.213 215.44 473 215.76 472.84C216.107 472.68 216.52 472.6 217 472.6H234.88C235.04 472.6 235.187 472.64 235.32 472.72C235.453 472.8 235.52 472.947 235.52 473.16L235.36 475.52C235.307 476.32 235.08 476.973 234.68 477.48C234.307 477.96 233.52 478.2 232.32 478.2H228ZM240.518 501C239.691 501 239.011 500.92 238.478 500.76C237.971 500.573 237.558 500.32 237.238 500C236.944 499.68 236.731 499.293 236.598 498.84C236.491 498.36 236.438 497.813 236.438 497.2C236.438 496.8 236.451 496.24 236.478 495.52C236.531 494.773 236.611 493.76 236.718 492.48C236.824 491.173 236.944 489.533 237.078 487.56C237.238 485.56 237.424 483.093 237.638 480.16C237.664 479.573 237.731 479.227 237.838 479.12C237.918 479.04 238.131 479 238.478 479H240.038C240.864 479 241.531 479.08 242.038 479.24C242.571 479.4 242.984 479.64 243.278 479.96C243.598 480.28 243.811 480.667 243.918 481.12C244.051 481.573 244.118 482.08 244.118 482.64C244.118 483.04 244.091 483.64 244.038 484.44C243.984 485.24 243.904 486.333 243.798 487.72C243.718 489.08 243.598 490.787 243.438 492.84C243.278 494.867 243.078 497.32 242.838 500.2C242.811 500.52 242.744 500.733 242.638 500.84C242.531 500.947 242.304 501 241.958 501H240.518ZM237.678 474.28C237.678 473.213 238.064 472.373 238.838 471.76C239.611 471.147 240.651 470.84 241.958 470.84C243.104 470.84 243.931 471.08 244.438 471.56C244.971 472.013 245.238 472.627 245.238 473.4C245.238 474.387 244.864 475.213 244.118 475.88C243.398 476.52 242.331 476.84 240.918 476.84C238.758 476.84 237.678 475.987 237.678 474.28ZM261.288 497.48C261.288 496.893 261.328 496.133 261.408 495.2C261.514 494.24 261.608 493.24 261.688 492.2C261.794 491.133 261.888 490.107 261.968 489.12C262.074 488.133 262.128 487.307 262.128 486.64C262.128 485.947 261.954 485.333 261.608 484.8C261.288 484.24 260.648 483.96 259.688 483.96C258.754 483.96 257.981 484.187 257.368 484.64C256.754 485.093 256.234 485.92 255.808 487.12C255.408 488.32 255.074 489.973 254.808 492.08C254.541 494.187 254.288 496.893 254.048 500.2C254.021 500.52 253.954 500.733 253.848 500.84C253.741 500.947 253.514 501 253.168 501H251.728C250.901 501 250.221 500.92 249.688 500.76C249.181 500.573 248.768 500.32 248.448 500C248.154 499.68 247.941 499.293 247.808 498.84C247.701 498.36 247.648 497.813 247.648 497.2C247.648 496.8 247.661 496.24 247.688 495.52C247.741 494.773 247.821 493.76 247.928 492.48C248.034 491.173 248.154 489.533 248.288 487.56C248.448 485.56 248.634 483.093 248.848 480.16C248.874 479.573 248.941 479.227 249.048 479.12C249.128 479.04 249.341 479 249.688 479H251.248C252.048 479 252.701 479.093 253.208 479.28C253.741 479.467 254.168 479.72 254.488 480.04C254.808 480.333 255.034 480.693 255.168 481.12C255.301 481.52 255.381 481.933 255.408 482.36C256.234 480.947 257.181 479.973 258.248 479.44C259.314 478.88 260.648 478.6 262.248 478.6C263.368 478.6 264.341 478.72 265.168 478.96C265.994 479.2 266.674 479.613 267.208 480.2C267.768 480.76 268.181 481.507 268.448 482.44C268.714 483.347 268.848 484.48 268.848 485.84C268.848 486.267 268.821 486.88 268.768 487.68C268.714 488.48 268.648 489.36 268.568 490.32C268.488 491.253 268.394 492.24 268.288 493.28C268.208 494.293 268.128 495.24 268.048 496.12C267.968 497 267.901 497.773 267.848 498.44C267.794 499.107 267.768 499.547 267.768 499.76C267.768 500.347 267.701 500.707 267.568 500.84C267.434 500.947 267.141 501 266.688 501H265.408C264.554 501 263.861 500.92 263.328 500.76C262.794 500.6 262.381 500.373 262.088 500.08C261.794 499.787 261.581 499.427 261.448 499C261.341 498.547 261.288 498.04 261.288 497.48ZM280.053 482.68C280.053 483.293 280.013 484.027 279.933 484.88C279.853 485.707 279.76 486.547 279.653 487.4C279.573 488.227 279.493 489.013 279.413 489.76C279.333 490.48 279.293 491.04 279.293 491.44C279.293 492.453 279.533 493.213 280.013 493.72C280.52 494.2 281.133 494.44 281.853 494.44C283.107 494.44 284.107 493.787 284.853 492.48C285.6 491.173 286.067 489.44 286.253 487.28L286.893 479.8C286.92 479.507 287.013 479.307 287.173 479.2C287.36 479.067 287.56 479 287.773 479H289.213C289.773 479 290.293 479.053 290.773 479.16C291.28 479.24 291.72 479.413 292.093 479.68C292.467 479.92 292.76 480.253 292.973 480.68C293.187 481.107 293.293 481.653 293.293 482.32C293.293 482.587 293.267 483.093 293.213 483.84C293.187 484.56 293.12 485.613 293.013 487C292.933 488.36 292.813 490.093 292.653 492.2C292.493 494.28 292.307 496.827 292.093 499.84C291.96 501.6 291.56 503.053 290.893 504.2C290.253 505.373 289.44 506.293 288.453 506.96C287.467 507.653 286.36 508.133 285.133 508.4C283.907 508.667 282.653 508.8 281.373 508.8C280.013 508.8 278.76 508.68 277.613 508.44C276.493 508.2 275.52 507.867 274.693 507.44C273.867 507.013 273.213 506.52 272.733 505.96C272.28 505.4 272.053 504.8 272.053 504.16C272.053 503.653 272.16 503.213 272.373 502.84C272.613 502.467 272.92 502.16 273.293 501.92C273.667 501.68 274.093 501.493 274.573 501.36C275.08 501.253 275.6 501.2 276.133 501.2C276.4 501.2 276.587 501.333 276.693 501.6C276.827 501.867 277.013 502.16 277.253 502.48C277.52 502.827 277.933 503.133 278.493 503.4C279.053 503.667 279.893 503.8 281.013 503.8C282 503.8 282.8 503.56 283.413 503.08C284.027 502.6 284.493 501.987 284.813 501.24C285.16 500.493 285.387 499.68 285.493 498.8C285.6 497.92 285.653 497.08 285.653 496.28C285.227 497.027 284.747 497.64 284.213 498.12C283.707 498.573 283.173 498.933 282.613 499.2C282.053 499.44 281.493 499.6 280.933 499.68C280.373 499.76 279.84 499.8 279.333 499.8C278.347 499.8 277.44 499.667 276.613 499.4C275.813 499.133 275.12 498.707 274.533 498.12C273.947 497.507 273.493 496.72 273.173 495.76C272.853 494.8 272.693 493.64 272.693 492.28C272.693 491.773 272.72 491.107 272.773 490.28C272.827 489.427 272.893 488.48 272.973 487.44C273.053 486.373 273.133 485.227 273.213 484C273.32 482.773 273.427 481.52 273.533 480.24C273.587 479.413 273.96 479 274.653 479H275.933C276.787 479 277.48 479.08 278.013 479.24C278.547 479.4 278.96 479.64 279.253 479.96C279.573 480.253 279.787 480.64 279.893 481.12C280 481.573 280.053 482.093 280.053 482.68ZM308.228 472.2C310.734 472.2 312.588 472.747 313.788 473.84C315.014 474.933 315.628 476.36 315.628 478.12C315.628 479.613 315.214 480.76 314.388 481.56C313.561 482.333 312.374 482.72 310.828 482.72C310.348 482.72 310.041 482.68 309.908 482.6C309.774 482.493 309.708 482.293 309.708 482C309.708 481.733 309.681 481.387 309.628 480.96C309.601 480.533 309.508 480.12 309.348 479.72C309.188 479.32 308.934 478.987 308.588 478.72C308.241 478.427 307.761 478.28 307.148 478.28C306.294 478.28 305.534 478.547 304.868 479.08C304.201 479.587 303.868 480.253 303.868 481.08C303.868 481.8 304.134 482.387 304.668 482.84C305.228 483.293 305.921 483.72 306.748 484.12C307.574 484.493 308.468 484.88 309.428 485.28C310.414 485.68 311.321 486.213 312.148 486.88C312.974 487.52 313.654 488.333 314.188 489.32C314.748 490.28 315.028 491.507 315.028 493C315.028 494.173 314.828 495.28 314.428 496.32C314.054 497.333 313.481 498.227 312.708 499C311.961 499.747 311.001 500.333 309.828 500.76C308.681 501.187 307.334 501.4 305.788 501.4C304.454 501.4 303.214 501.253 302.068 500.96C300.948 500.667 299.961 500.307 299.108 499.88C298.281 499.427 297.628 498.947 297.148 498.44C296.668 497.907 296.428 497.427 296.428 497C296.428 495.24 296.521 493.973 296.708 493.2C296.921 492.427 297.294 492.04 297.827 492.04C298.201 492.04 298.588 492.2 298.988 492.52C299.414 492.84 299.894 493.2 300.428 493.6C300.961 494 301.574 494.36 302.268 494.68C302.988 495 303.814 495.16 304.748 495.16C305.121 495.16 305.481 495.133 305.828 495.08C306.201 495 306.521 494.88 306.788 494.72C307.081 494.56 307.308 494.347 307.468 494.08C307.654 493.813 307.748 493.493 307.748 493.12C307.748 492.453 307.494 491.92 306.988 491.52C306.481 491.12 305.841 490.76 305.068 490.44C304.294 490.093 303.454 489.747 302.548 489.4C301.668 489.027 300.841 488.533 300.068 487.92C299.294 487.28 298.654 486.467 298.148 485.48C297.641 484.493 297.388 483.227 297.388 481.68C297.388 479.947 297.708 478.48 298.348 477.28C299.014 476.08 299.854 475.107 300.868 474.36C301.908 473.587 303.068 473.04 304.348 472.72C305.654 472.373 306.948 472.2 308.228 472.2ZM317.268 496.08C317.268 493.68 318.348 491.8 320.508 490.44C322.668 489.08 325.855 488.347 330.068 488.24C330.095 487.947 330.108 487.707 330.108 487.52C330.135 487.307 330.148 487.053 330.148 486.76C330.148 485.907 329.988 485.227 329.668 484.72C329.348 484.213 328.681 483.96 327.668 483.96C327.108 483.96 326.655 484.04 326.308 484.2C325.961 484.36 325.681 484.587 325.468 484.88C325.255 485.147 325.081 485.48 324.948 485.88C324.815 486.28 324.695 486.72 324.588 487.2C324.535 487.44 324.415 487.6 324.228 487.68C324.041 487.733 323.748 487.76 323.348 487.76C320.628 487.76 319.268 486.733 319.268 484.68C319.268 483.853 319.455 483.067 319.828 482.32C320.228 481.573 320.801 480.933 321.548 480.4C322.321 479.84 323.281 479.4 324.428 479.08C325.575 478.76 326.908 478.6 328.428 478.6C331.388 478.6 333.535 479.213 334.868 480.44C336.201 481.667 336.868 483.4 336.868 485.64C336.868 485.933 336.828 486.467 336.748 487.24C336.695 487.987 336.615 488.787 336.508 489.64C336.428 490.467 336.348 491.253 336.268 492C336.215 492.747 336.188 493.267 336.188 493.56C336.188 494.227 336.308 494.707 336.548 495C336.788 495.267 337.055 495.453 337.348 495.56C337.668 495.667 337.948 495.747 338.188 495.8C338.428 495.853 338.548 495.987 338.548 496.2C338.548 496.787 338.468 497.387 338.308 498C338.148 498.613 337.881 499.173 337.508 499.68C337.161 500.187 336.668 500.6 336.028 500.92C335.415 501.24 334.655 501.4 333.748 501.4C332.468 501.4 331.508 501.093 330.868 500.48C330.228 499.867 329.801 499.013 329.588 497.92C328.948 498.853 328.108 499.667 327.068 500.36C326.055 501.053 324.721 501.4 323.068 501.4C322.268 501.4 321.508 501.307 320.788 501.12C320.095 500.933 319.481 500.627 318.948 500.2C318.441 499.773 318.028 499.227 317.708 498.56C317.415 497.867 317.268 497.04 317.268 496.08ZM329.708 491.52C329.015 491.52 328.335 491.573 327.668 491.68C327.001 491.787 326.401 491.96 325.868 492.2C325.361 492.413 324.948 492.707 324.628 493.08C324.308 493.453 324.148 493.907 324.148 494.44C324.148 495.053 324.335 495.48 324.708 495.72C325.108 495.96 325.535 496.08 325.988 496.08C326.415 496.08 326.841 495.987 327.268 495.8C327.695 495.613 328.068 495.333 328.388 494.96C328.735 494.56 329.028 494.08 329.268 493.52C329.508 492.96 329.655 492.293 329.708 491.52ZM349.855 495.92C350.175 494.8 350.468 493.693 350.735 492.6C351.028 491.507 351.308 490.347 351.575 489.12C351.868 487.867 352.175 486.507 352.495 485.04C352.841 483.547 353.241 481.853 353.695 479.96C353.775 479.587 353.895 479.347 354.055 479.24C354.215 479.107 354.561 479.04 355.095 479.04C355.495 479.04 356.028 479.053 356.695 479.08C357.361 479.107 358.015 479.2 358.655 479.36C359.295 479.52 359.841 479.76 360.295 480.08C360.775 480.4 361.015 480.84 361.015 481.4C361.015 481.853 360.855 482.587 360.535 483.6C360.215 484.613 359.801 485.773 359.295 487.08C358.788 488.36 358.215 489.707 357.575 491.12C356.961 492.533 356.361 493.867 355.775 495.12C355.188 496.373 354.641 497.48 354.135 498.44C353.628 499.373 353.255 500.027 353.015 500.4C352.801 500.693 352.615 500.867 352.455 500.92C352.295 500.973 352.028 501 351.655 501H348.095C347.535 501 347.068 500.907 346.695 500.72C346.348 500.507 346.055 500.24 345.815 499.92C345.575 499.6 345.375 499.24 345.215 498.84C345.055 498.413 344.908 497.973 344.775 497.52C344.001 494.853 343.321 492.573 342.735 490.68C342.175 488.76 341.695 487.16 341.295 485.88C340.895 484.6 340.575 483.587 340.335 482.84C340.095 482.067 339.908 481.48 339.775 481.08C339.641 480.653 339.548 480.373 339.495 480.24C339.441 480.08 339.415 479.973 339.415 479.92C339.441 479.733 339.575 479.533 339.815 479.32C340.055 479.107 340.361 479 340.735 479C341.961 479 343.001 479.053 343.855 479.16C344.735 479.24 345.455 479.4 346.015 479.64C346.601 479.88 347.041 480.213 347.335 480.64C347.655 481.067 347.881 481.627 348.015 482.32C348.041 482.507 348.095 482.88 348.175 483.44C348.255 484 348.335 484.68 348.415 485.48C348.521 486.253 348.641 487.12 348.775 488.08C348.908 489.013 349.028 489.96 349.135 490.92C349.268 491.853 349.388 492.76 349.495 493.64C349.628 494.52 349.748 495.28 349.855 495.92ZM372.005 501.4C370.832 501.4 369.658 501.253 368.485 500.96C367.338 500.667 366.298 500.16 365.365 499.44C364.458 498.72 363.712 497.76 363.125 496.56C362.538 495.36 362.245 493.853 362.245 492.04C362.245 491.373 362.298 490.573 362.405 489.64C362.512 488.707 362.712 487.747 363.005 486.76C363.325 485.773 363.752 484.8 364.285 483.84C364.845 482.853 365.565 481.973 366.445 481.2C367.325 480.427 368.392 479.8 369.645 479.32C370.898 478.84 372.392 478.6 374.125 478.6C375.512 478.6 376.685 478.76 377.645 479.08C378.605 479.4 379.378 479.84 379.965 480.4C380.552 480.933 380.978 481.56 381.245 482.28C381.512 483 381.645 483.773 381.645 484.6C381.645 485.827 381.392 486.867 380.885 487.72C380.405 488.573 379.765 489.293 378.965 489.88C378.192 490.44 377.325 490.88 376.365 491.2C375.405 491.52 374.458 491.773 373.525 491.96C372.592 492.12 371.725 492.227 370.925 492.28C370.152 492.307 369.552 492.32 369.125 492.32C369.125 492.827 369.192 493.333 369.325 493.84C369.485 494.32 369.712 494.747 370.005 495.12C370.298 495.493 370.685 495.8 371.165 496.04C371.645 496.28 372.232 496.4 372.925 496.4C373.618 496.4 374.152 496.293 374.525 496.08C374.925 495.84 375.245 495.587 375.485 495.32C375.725 495.027 375.925 494.773 376.085 494.56C376.272 494.32 376.512 494.2 376.805 494.2C376.938 494.2 377.165 494.24 377.485 494.32C377.832 494.373 378.178 494.507 378.525 494.72C378.872 494.933 379.178 495.227 379.445 495.6C379.712 495.973 379.845 496.453 379.845 497.04C379.845 497.813 379.605 498.48 379.125 499.04C378.645 499.6 378.018 500.053 377.245 500.4C376.498 500.747 375.658 501 374.725 501.16C373.792 501.32 372.885 501.4 372.005 501.4ZM372.765 483.92C372.178 483.92 371.672 484.093 371.245 484.44C370.845 484.76 370.498 485.173 370.205 485.68C369.938 486.187 369.725 486.747 369.565 487.36C369.432 487.973 369.325 488.56 369.245 489.12C370.898 489.093 372.232 488.813 373.245 488.28C374.285 487.747 374.805 486.987 374.805 486C374.805 485.467 374.632 484.987 374.285 484.56C373.965 484.133 373.458 483.92 372.765 483.92ZM393.374 478.6C395.641 478.6 397.307 479.053 398.374 479.96C399.441 480.84 399.974 481.973 399.974 483.36C399.974 484.533 399.601 485.427 398.854 486.04C398.134 486.653 397.081 486.96 395.694 486.96C395.321 486.96 395.067 486.92 394.934 486.84C394.801 486.76 394.734 486.613 394.734 486.4C394.734 486.16 394.707 485.893 394.654 485.6C394.627 485.28 394.534 484.987 394.374 484.72C394.241 484.427 394.014 484.187 393.694 484C393.401 483.813 392.974 483.72 392.414 483.72C391.667 483.72 391.067 483.907 390.614 484.28C390.161 484.627 389.934 485.067 389.934 485.6C389.934 486.16 390.161 486.613 390.614 486.96C391.094 487.28 391.681 487.587 392.374 487.88C393.094 488.173 393.867 488.48 394.694 488.8C395.521 489.093 396.281 489.493 396.974 490C397.694 490.507 398.281 491.147 398.734 491.92C399.214 492.667 399.454 493.64 399.454 494.84C399.454 496.76 398.774 498.333 397.414 499.56C396.054 500.787 394.014 501.4 391.294 501.4C390.547 501.4 389.681 501.333 388.694 501.2C387.734 501.093 386.814 500.92 385.934 500.68C385.054 500.413 384.307 500.067 383.694 499.64C383.107 499.213 382.814 498.68 382.814 498.04C382.814 497.8 382.854 497.507 382.934 497.16C383.041 496.813 383.187 496.48 383.374 496.16C383.587 495.84 383.827 495.573 384.094 495.36C384.387 495.12 384.734 495 385.134 495C385.454 495 385.747 495.08 386.014 495.24C386.281 495.4 386.587 495.573 386.934 495.76C387.307 495.92 387.761 496.08 388.294 496.24C388.827 496.4 389.534 496.48 390.414 496.48C391.081 496.48 391.667 496.4 392.174 496.24C392.707 496.08 392.974 495.72 392.974 495.16C392.974 494.653 392.761 494.253 392.334 493.96C391.907 493.64 391.361 493.347 390.694 493.08C390.054 492.813 389.347 492.533 388.574 492.24C387.827 491.92 387.121 491.507 386.454 491C385.814 490.493 385.281 489.853 384.854 489.08C384.427 488.28 384.214 487.253 384.214 486C384.214 484.64 384.481 483.493 385.014 482.56C385.574 481.6 386.281 480.827 387.134 480.24C388.014 479.653 389.001 479.24 390.094 479C391.187 478.733 392.281 478.6 393.374 478.6Z" fill="black"/>
<path d="M306.998 390.268C306.998 389.149 307.175 388.176 307.527 387.347C307.879 386.518 308.345 385.814 308.925 385.234C309.526 384.654 310.199 384.198 310.945 383.867C311.712 383.514 312.509 383.255 313.338 383.09C313.379 382.758 313.4 382.416 313.4 382.064C313.421 381.691 313.452 381.36 313.493 381.07C313.555 380.78 313.638 380.541 313.742 380.355C313.845 380.169 314.001 380.075 314.208 380.075C315.244 380.075 315.938 380.334 316.29 380.852C316.663 381.349 316.849 382.064 316.849 382.996C318.3 383.224 319.377 383.742 320.081 384.55C320.806 385.337 321.169 386.321 321.169 387.502C321.169 388.663 320.848 389.553 320.206 390.175C319.563 390.776 318.641 391.076 317.44 391.076C317.067 391.076 316.829 391.045 316.725 390.983C316.622 390.9 316.57 390.745 316.57 390.517C316.57 390.31 316.549 390.04 316.508 389.709C316.487 389.377 316.414 389.056 316.29 388.745C316.166 388.435 315.969 388.176 315.7 387.968C315.43 387.741 315.057 387.627 314.581 387.627C313.918 387.627 313.328 387.834 312.81 388.248C312.292 388.642 312.033 389.16 312.033 389.802C312.033 390.361 312.24 390.817 312.654 391.169C313.089 391.521 313.628 391.853 314.27 392.164C314.912 392.454 315.606 392.754 316.352 393.065C317.119 393.376 317.823 393.79 318.465 394.308C319.108 394.805 319.636 395.437 320.05 396.204C320.485 396.949 320.703 397.902 320.703 399.062C320.703 400.72 320.226 402.139 319.273 403.32C318.32 404.501 316.891 405.226 314.985 405.495L314.736 407.888C314.695 408.137 314.633 408.302 314.55 408.385C314.488 408.468 314.322 408.509 314.053 408.509C313.535 408.509 313.11 408.437 312.779 408.292C312.447 408.168 312.188 407.971 312.002 407.702C311.815 407.453 311.681 407.132 311.598 406.738C311.536 406.365 311.504 405.93 311.504 405.433C310.717 405.309 310.002 405.122 309.36 404.874C308.718 404.604 308.169 404.325 307.713 404.035C307.257 403.724 306.895 403.413 306.626 403.102C306.377 402.771 306.253 402.46 306.253 402.17C306.253 400.803 306.325 399.819 306.47 399.218C306.636 398.617 306.926 398.317 307.34 398.317C307.63 398.317 307.931 398.441 308.241 398.69C308.573 398.938 308.946 399.218 309.36 399.529C309.775 399.839 310.251 400.119 310.79 400.368C311.349 400.616 311.991 400.741 312.716 400.741C313.006 400.741 313.286 400.72 313.555 400.678C313.845 400.616 314.094 400.523 314.301 400.399C314.529 400.274 314.705 400.109 314.83 399.902C314.975 399.694 315.047 399.446 315.047 399.156C315.047 398.638 314.85 398.223 314.457 397.913C314.063 397.602 313.566 397.322 312.965 397.074C312.364 396.804 311.712 396.535 311.007 396.266C310.324 395.976 309.681 395.592 309.081 395.116C308.48 394.619 307.983 393.987 307.589 393.22C307.195 392.454 306.998 391.47 306.998 390.268Z" fill="black"/>
<ellipse cx="549.178" cy="317.674" rx="54.1858" ry="46.8331" fill="#FCCF77"/>
<path d="M559.927 316.634L529.514 258.026L582.973 254.757L559.927 316.634Z" fill="#FCCF77"/>
<path d="M544.053 310.721C544.053 309.57 544.234 308.568 544.596 307.716C544.958 306.863 545.438 306.139 546.035 305.542C546.653 304.945 547.345 304.476 548.112 304.135C548.901 303.773 549.722 303.507 550.574 303.336C550.617 302.995 550.638 302.643 550.638 302.281C550.659 301.898 550.691 301.557 550.734 301.258C550.798 300.96 550.883 300.715 550.99 300.523C551.096 300.331 551.256 300.235 551.469 300.235C552.535 300.235 553.249 300.502 553.611 301.034C553.995 301.546 554.186 302.281 554.186 303.24C555.678 303.475 556.786 304.007 557.511 304.839C558.257 305.648 558.63 306.661 558.63 307.876C558.63 309.069 558.3 309.985 557.639 310.625C556.978 311.243 556.03 311.552 554.794 311.552C554.41 311.552 554.165 311.52 554.059 311.456C553.952 311.371 553.899 311.211 553.899 310.976C553.899 310.763 553.877 310.486 553.835 310.145C553.813 309.804 553.739 309.474 553.611 309.154C553.483 308.835 553.281 308.568 553.004 308.355C552.727 308.121 552.343 308.003 551.853 308.003C551.171 308.003 550.563 308.217 550.031 308.643C549.498 309.048 549.231 309.581 549.231 310.241C549.231 310.817 549.444 311.285 549.871 311.648C550.318 312.01 550.872 312.351 551.533 312.671C552.194 312.969 552.908 313.278 553.675 313.598C554.463 313.918 555.188 314.344 555.849 314.877C556.509 315.388 557.053 316.038 557.479 316.827C557.927 317.594 558.15 318.574 558.15 319.768C558.15 321.473 557.66 322.932 556.68 324.147C555.7 325.362 554.229 326.108 552.268 326.385L552.013 328.847C551.97 329.102 551.906 329.273 551.821 329.358C551.757 329.443 551.586 329.486 551.309 329.486C550.776 329.486 550.34 329.411 549.999 329.262C549.658 329.134 549.391 328.932 549.199 328.655C549.008 328.399 548.869 328.069 548.784 327.664C548.72 327.28 548.688 326.833 548.688 326.321C547.878 326.193 547.143 326.001 546.482 325.746C545.821 325.469 545.257 325.181 544.788 324.883C544.319 324.563 543.946 324.243 543.669 323.923C543.413 323.583 543.285 323.263 543.285 322.964C543.285 321.558 543.36 320.546 543.509 319.927C543.68 319.309 543.978 319 544.404 319C544.703 319 545.012 319.128 545.331 319.384C545.672 319.64 546.056 319.927 546.482 320.247C546.908 320.567 547.399 320.855 547.953 321.11C548.528 321.366 549.189 321.494 549.935 321.494C550.233 321.494 550.521 321.473 550.798 321.43C551.096 321.366 551.352 321.27 551.565 321.142C551.799 321.014 551.981 320.844 552.108 320.631C552.258 320.418 552.332 320.162 552.332 319.864C552.332 319.331 552.13 318.905 551.725 318.585C551.32 318.265 550.808 317.977 550.19 317.722C549.572 317.445 548.901 317.168 548.176 316.891C547.473 316.592 546.812 316.198 546.194 315.708C545.576 315.196 545.065 314.546 544.66 313.758C544.255 312.969 544.053 311.957 544.053 310.721Z" fill="black"/>
<ellipse cx="505.595" cy="269.242" rx="10.6027" ry="7.24608" transform="rotate(-17.9919 505.595 269.242)" fill="#FFED4B"/>
<ellipse cx="499.088" cy="304.484" rx="10.6027" ry="6.24765" transform="rotate(-41.3127 499.088 304.484)" fill="#FFED4B"/>
<path d="M509.477 354.981C505.215 353.995 502.83 348.57 504.15 342.865C505.47 337.16 509.995 333.335 514.257 334.321C518.519 335.307 520.905 340.731 519.585 346.436C518.265 352.141 513.74 355.967 509.477 354.981Z" fill="#FFED4B"/>
<ellipse cx="133.178" cy="603.25" rx="54.1858" ry="46.8331" fill="#FCCF77"/>
<path d="M143.927 602.211L113.514 543.602L166.973 540.334L143.927 602.211Z" fill="#FCCF77"/>
<path d="M128.053 596.297C128.053 595.146 128.234 594.145 128.596 593.292C128.958 592.44 129.438 591.715 130.035 591.118C130.653 590.522 131.345 590.053 132.112 589.712C132.901 589.349 133.722 589.083 134.574 588.913C134.617 588.572 134.638 588.22 134.638 587.858C134.659 587.474 134.691 587.133 134.734 586.835C134.798 586.536 134.883 586.291 134.99 586.099C135.096 585.908 135.256 585.812 135.469 585.812C136.535 585.812 137.249 586.078 137.611 586.611C137.995 587.122 138.186 587.858 138.186 588.817C139.678 589.051 140.786 589.584 141.511 590.415C142.257 591.225 142.63 592.237 142.63 593.452C142.63 594.645 142.3 595.562 141.639 596.201C140.978 596.819 140.03 597.128 138.794 597.128C138.41 597.128 138.165 597.096 138.059 597.032C137.952 596.947 137.899 596.787 137.899 596.553C137.899 596.34 137.877 596.063 137.835 595.722C137.813 595.381 137.739 595.05 137.611 594.731C137.483 594.411 137.281 594.145 137.004 593.931C136.727 593.697 136.343 593.58 135.853 593.58C135.171 593.58 134.563 593.793 134.031 594.219C133.498 594.624 133.231 595.157 133.231 595.818C133.231 596.393 133.444 596.862 133.871 597.224C134.318 597.586 134.872 597.927 135.533 598.247C136.194 598.546 136.908 598.855 137.675 599.174C138.463 599.494 139.188 599.92 139.849 600.453C140.509 600.964 141.053 601.614 141.479 602.403C141.927 603.17 142.15 604.151 142.15 605.344C142.15 607.049 141.66 608.509 140.68 609.724C139.7 610.938 138.229 611.684 136.268 611.961L136.013 614.423C135.97 614.679 135.906 614.849 135.821 614.934C135.757 615.02 135.586 615.062 135.309 615.062C134.776 615.062 134.34 614.988 133.999 614.839C133.658 614.711 133.391 614.508 133.199 614.231C133.008 613.975 132.869 613.645 132.784 613.24C132.72 612.857 132.688 612.409 132.688 611.898C131.878 611.77 131.143 611.578 130.482 611.322C129.821 611.045 129.257 610.757 128.788 610.459C128.319 610.139 127.946 609.82 127.669 609.5C127.413 609.159 127.285 608.839 127.285 608.541C127.285 607.134 127.36 606.122 127.509 605.504C127.68 604.886 127.978 604.577 128.404 604.577C128.703 604.577 129.012 604.705 129.331 604.96C129.672 605.216 130.056 605.504 130.482 605.824C130.908 606.143 131.399 606.431 131.953 606.687C132.528 606.942 133.189 607.07 133.935 607.07C134.233 607.07 134.521 607.049 134.798 607.006C135.096 606.942 135.352 606.847 135.565 606.719C135.799 606.591 135.981 606.42 136.108 606.207C136.258 605.994 136.332 605.738 136.332 605.44C136.332 604.907 136.13 604.481 135.725 604.161C135.32 603.842 134.808 603.554 134.19 603.298C133.572 603.021 132.901 602.744 132.176 602.467C131.473 602.169 130.812 601.774 130.194 601.284C129.576 600.773 129.065 600.123 128.66 599.334C128.255 598.546 128.053 597.533 128.053 596.297Z" fill="black"/>
<ellipse cx="89.5949" cy="554.819" rx="10.6027" ry="7.24608" transform="rotate(-17.9919 89.5949 554.819)" fill="#FFED4B"/>
<ellipse cx="83.0884" cy="590.061" rx="10.6027" ry="6.24765" transform="rotate(-41.3127 83.0884 590.061)" fill="#FFED4B"/>
<path d="M93.4774 640.557C89.2153 639.571 86.8301 634.147 88.1501 628.442C89.47 622.737 93.9951 618.911 98.2573 619.897C102.519 620.884 104.905 626.308 103.585 632.013C102.265 637.718 97.7396 641.543 93.4774 640.557Z" fill="#FFED4B"/>
<ellipse cx="129.942" cy="322.495" rx="37.422" ry="32.3441" fill="#FCCF77"/>
<path d="M137.365 321.777L116.362 281.3L153.282 279.043L137.365 321.777Z" fill="#FCCF77"/>
<path d="M126.402 317.643C126.402 316.848 126.527 316.156 126.777 315.567C127.027 314.979 127.358 314.478 127.77 314.066C128.197 313.654 128.676 313.33 129.205 313.095C129.75 312.844 130.317 312.66 130.905 312.543C130.935 312.307 130.95 312.064 130.95 311.814C130.964 311.549 130.986 311.314 131.016 311.108C131.06 310.902 131.119 310.732 131.192 310.6C131.266 310.467 131.376 310.401 131.524 310.401C132.26 310.401 132.753 310.585 133.003 310.953C133.268 311.306 133.4 311.814 133.4 312.476C134.431 312.638 135.196 313.006 135.696 313.58C136.211 314.14 136.469 314.839 136.469 315.678C136.469 316.502 136.241 317.135 135.785 317.576C135.328 318.003 134.673 318.217 133.82 318.217C133.555 318.217 133.386 318.195 133.312 318.15C133.238 318.092 133.202 317.981 133.202 317.819C133.202 317.672 133.187 317.481 133.157 317.245C133.143 317.01 133.091 316.782 133.003 316.561C132.915 316.34 132.775 316.156 132.583 316.009C132.392 315.847 132.127 315.766 131.789 315.766C131.318 315.766 130.898 315.913 130.53 316.208C130.162 316.487 129.978 316.855 129.978 317.312C129.978 317.709 130.125 318.033 130.42 318.283C130.729 318.533 131.111 318.769 131.568 318.989C132.024 319.195 132.517 319.409 133.047 319.63C133.592 319.85 134.092 320.145 134.548 320.513C135.005 320.866 135.38 321.315 135.674 321.86C135.983 322.389 136.138 323.066 136.138 323.891C136.138 325.068 135.799 326.076 135.122 326.915C134.445 327.754 133.43 328.27 132.076 328.461L131.899 330.161C131.869 330.337 131.825 330.455 131.766 330.514C131.722 330.573 131.605 330.602 131.413 330.602C131.045 330.602 130.744 330.551 130.508 330.448C130.273 330.36 130.089 330.22 129.956 330.028C129.824 329.852 129.728 329.624 129.669 329.344C129.625 329.079 129.603 328.77 129.603 328.417C129.044 328.328 128.536 328.196 128.079 328.019C127.623 327.828 127.233 327.629 126.909 327.423C126.586 327.202 126.328 326.982 126.137 326.761C125.96 326.525 125.872 326.305 125.872 326.099C125.872 325.127 125.923 324.428 126.026 324.001C126.144 323.574 126.35 323.361 126.644 323.361C126.85 323.361 127.064 323.449 127.285 323.626C127.52 323.802 127.785 324.001 128.079 324.222C128.374 324.443 128.712 324.641 129.095 324.818C129.492 324.995 129.949 325.083 130.464 325.083C130.67 325.083 130.869 325.068 131.06 325.039C131.266 324.995 131.443 324.928 131.59 324.84C131.752 324.752 131.877 324.634 131.965 324.487C132.068 324.34 132.12 324.163 132.12 323.957C132.12 323.589 131.98 323.295 131.7 323.074C131.421 322.853 131.067 322.654 130.64 322.478C130.214 322.286 129.75 322.095 129.25 321.904C128.764 321.698 128.308 321.425 127.881 321.087C127.454 320.734 127.101 320.285 126.821 319.74C126.541 319.195 126.402 318.496 126.402 317.643Z" fill="black"/>
<ellipse cx="99.8422" cy="289.047" rx="7.3225" ry="5.00432" transform="rotate(-17.9919 99.8422 289.047)" fill="#FFED4B"/>
<ellipse cx="95.3485" cy="313.386" rx="7.3225" ry="4.31478" transform="rotate(-41.3127 95.3485 313.386)" fill="#FFED4B"/>
<path d="M102.523 348.26C99.5799 347.579 97.9327 343.833 98.8442 339.893C99.7558 335.953 102.881 333.311 105.825 333.992C108.768 334.673 110.415 338.419 109.504 342.359C108.592 346.299 105.467 348.941 102.523 348.26Z" fill="#FFED4B"/>
<ellipse cx="276.453" cy="775.974" rx="57.911" ry="50.0529" fill="#FCCF77"/>
<path d="M287.941 774.863L255.437 712.225L312.571 708.732L287.941 774.863Z" fill="#FCCF77"/>
<path d="M270.975 768.443C270.975 767.213 271.169 766.142 271.556 765.231C271.943 764.32 272.455 763.545 273.093 762.908C273.754 762.27 274.494 761.769 275.314 761.404C276.157 761.017 277.034 760.732 277.945 760.55C277.99 760.186 278.013 759.81 278.013 759.423C278.036 759.013 278.07 758.648 278.116 758.329C278.184 758.011 278.275 757.749 278.389 757.544C278.503 757.339 278.674 757.236 278.901 757.236C280.04 757.236 280.803 757.521 281.19 758.09C281.6 758.637 281.805 759.423 281.805 760.448C283.4 760.698 284.584 761.268 285.359 762.156C286.156 763.022 286.555 764.104 286.555 765.402C286.555 766.677 286.201 767.657 285.495 768.34C284.789 769.001 283.776 769.331 282.455 769.331C282.045 769.331 281.783 769.297 281.669 769.228C281.555 769.137 281.498 768.966 281.498 768.716C281.498 768.488 281.475 768.192 281.43 767.828C281.407 767.463 281.327 767.11 281.19 766.768C281.054 766.427 280.837 766.142 280.541 765.914C280.245 765.664 279.835 765.538 279.311 765.538C278.583 765.538 277.933 765.766 277.364 766.222C276.794 766.655 276.51 767.224 276.51 767.93C276.51 768.545 276.738 769.046 277.193 769.433C277.671 769.821 278.264 770.185 278.97 770.527C279.676 770.846 280.439 771.176 281.259 771.517C282.102 771.859 282.876 772.315 283.582 772.884C284.288 773.431 284.869 774.125 285.325 774.968C285.803 775.788 286.042 776.836 286.042 778.111C286.042 779.934 285.518 781.494 284.47 782.792C283.423 784.09 281.851 784.888 279.756 785.184L279.482 787.815C279.437 788.088 279.368 788.27 279.277 788.361C279.209 788.452 279.027 788.498 278.731 788.498C278.161 788.498 277.694 788.418 277.33 788.259C276.965 788.122 276.681 787.906 276.476 787.61C276.271 787.336 276.123 786.983 276.031 786.55C275.963 786.14 275.929 785.662 275.929 785.115C275.063 784.979 274.278 784.774 273.572 784.5C272.865 784.204 272.262 783.897 271.761 783.578C271.26 783.236 270.861 782.895 270.565 782.553C270.292 782.189 270.155 781.847 270.155 781.528C270.155 780.025 270.235 778.943 270.394 778.282C270.576 777.622 270.895 777.292 271.351 777.292C271.67 777.292 272 777.428 272.342 777.701C272.706 777.975 273.116 778.282 273.572 778.624C274.027 778.966 274.551 779.273 275.143 779.546C275.758 779.82 276.464 779.956 277.261 779.956C277.58 779.956 277.888 779.934 278.184 779.888C278.503 779.82 278.776 779.717 279.004 779.581C279.254 779.444 279.448 779.262 279.585 779.034C279.744 778.806 279.824 778.533 279.824 778.214C279.824 777.645 279.607 777.189 279.175 776.847C278.742 776.506 278.195 776.198 277.535 775.925C276.874 775.629 276.157 775.333 275.382 775.037C274.631 774.718 273.925 774.296 273.264 773.772C272.603 773.226 272.057 772.531 271.624 771.688C271.191 770.846 270.975 769.764 270.975 768.443Z" fill="black"/>
<ellipse cx="229.873" cy="724.212" rx="11.3317" ry="7.74425" transform="rotate(-17.9919 229.873 724.212)" fill="#FFED4B"/>
<ellipse cx="222.919" cy="761.877" rx="11.3317" ry="6.67718" transform="rotate(-41.3127 222.919 761.877)" fill="#FFED4B"/>
<path d="M234.023 815.845C229.468 814.792 226.919 808.994 228.329 802.897C229.74 796.8 234.576 792.711 239.132 793.765C243.687 794.819 246.236 800.616 244.825 806.714C243.414 812.811 238.578 816.899 234.023 815.845Z" fill="#FFED4B"/>
<ellipse cx="433.178" cy="49.2501" rx="54.1858" ry="46.8331" fill="#FCCF77"/>
<path d="M443.927 48.2105L413.514 -10.3977L466.973 -13.6663L443.927 48.2105Z" fill="#FCCF77"/>
<path d="M428.053 42.2971C428.053 41.1463 428.234 40.1446 428.596 39.2921C428.958 38.4397 429.438 37.715 430.035 37.1183C430.653 36.5216 431.345 36.0527 432.112 35.7117C432.901 35.3494 433.722 35.083 434.574 34.9125C434.617 34.5715 434.638 34.2199 434.638 33.8576C434.659 33.474 434.691 33.133 434.734 32.8346C434.798 32.5362 434.883 32.2911 434.99 32.0993C435.096 31.9075 435.256 31.8116 435.469 31.8116C436.535 31.8116 437.249 32.078 437.611 32.6108C437.995 33.1223 438.186 33.8576 438.186 34.8166C439.678 35.051 440.786 35.5838 441.511 36.415C442.257 37.2249 442.63 38.2372 442.63 39.452C442.63 40.6454 442.3 41.5619 441.639 42.2012C440.978 42.8193 440.03 43.1283 438.794 43.1283C438.41 43.1283 438.165 43.0963 438.059 43.0324C437.952 42.9471 437.899 42.7873 437.899 42.5529C437.899 42.3398 437.877 42.0627 437.835 41.7217C437.813 41.3807 437.739 41.0504 437.611 40.7307C437.483 40.411 437.281 40.1446 437.004 39.9315C436.727 39.6971 436.343 39.5798 435.853 39.5798C435.171 39.5798 434.563 39.793 434.031 40.2192C433.498 40.6241 433.231 41.1569 433.231 41.8176C433.231 42.393 433.444 42.8619 433.871 43.2242C434.318 43.5865 434.872 43.9275 435.533 44.2472C436.194 44.5455 436.908 44.8546 437.675 45.1742C438.463 45.4939 439.188 45.9202 439.849 46.453C440.509 46.9645 441.053 47.6145 441.479 48.403C441.927 49.1702 442.15 50.1506 442.15 51.3441C442.15 53.049 441.66 54.5089 440.68 55.7237C439.7 56.9385 438.229 57.6844 436.268 57.9614L436.013 60.423C435.97 60.6787 435.906 60.8492 435.821 60.9345C435.757 61.0197 435.586 61.0623 435.309 61.0623C434.776 61.0623 434.34 60.9878 433.999 60.8386C433.658 60.7107 433.391 60.5082 433.199 60.2312C433.008 59.9754 432.869 59.6451 432.784 59.2402C432.72 58.8566 432.688 58.409 432.688 57.8975C431.878 57.7696 431.143 57.5778 430.482 57.3221C429.821 57.045 429.257 56.7573 428.788 56.459C428.319 56.1393 427.946 55.8196 427.669 55.4999C427.413 55.1589 427.285 54.8392 427.285 54.5409C427.285 53.1343 427.36 52.122 427.509 51.5039C427.68 50.8859 427.978 50.5768 428.404 50.5768C428.703 50.5768 429.012 50.7047 429.331 50.9605C429.672 51.2162 430.056 51.5039 430.482 51.8236C430.908 52.1433 431.399 52.431 431.953 52.6867C432.528 52.9425 433.189 53.0703 433.935 53.0703C434.233 53.0703 434.521 53.049 434.798 53.0064C435.096 52.9425 435.352 52.8466 435.565 52.7187C435.799 52.5908 435.981 52.4203 436.108 52.2072C436.258 51.9941 436.332 51.7383 436.332 51.44C436.332 50.9072 436.13 50.4809 435.725 50.1613C435.32 49.8416 434.808 49.5539 434.19 49.2981C433.572 49.0211 432.901 48.744 432.176 48.467C431.473 48.1686 430.812 47.7743 430.194 47.2841C429.576 46.7726 429.065 46.1226 428.66 45.3341C428.255 44.5455 428.053 43.5332 428.053 42.2971Z" fill="black"/>
<ellipse cx="389.595" cy="0.818607" rx="10.6027" ry="7.24608" transform="rotate(-17.9919 389.595 0.818607)" fill="#FFED4B"/>
<ellipse cx="383.088" cy="36.0607" rx="10.6027" ry="6.24765" transform="rotate(-41.3127 383.088 36.0607)" fill="#FFED4B"/>
<path d="M393.477 86.5572C389.215 85.5711 386.83 80.1468 388.15 74.4418C389.47 68.7368 393.995 64.9113 398.257 65.8974C402.519 66.8835 404.905 72.3078 403.585 78.0128C402.265 83.7178 397.74 87.5432 393.477 86.5572Z" fill="#FFED4B"/>
</g>
<ellipse cx="534.757" cy="685.16" rx="75.6061" ry="65.3469" fill="#FCCF77"/>
<path d="M549.756 683.709L507.321 601.933L581.913 597.372L549.756 683.709Z" fill="#FCCF77"/>
<path d="M527.606 675.133C527.606 673.528 527.859 672.13 528.364 670.94C528.87 669.751 529.539 668.74 530.371 667.907C531.234 667.075 532.2 666.42 533.271 665.945C534.371 665.439 535.516 665.067 536.705 664.83C536.765 664.354 536.795 663.863 536.795 663.358C536.824 662.822 536.869 662.346 536.928 661.93C537.018 661.514 537.137 661.172 537.285 660.904C537.434 660.637 537.657 660.503 537.954 660.503C539.441 660.503 540.437 660.874 540.943 661.618C541.478 662.332 541.746 663.358 541.746 664.696C543.827 665.023 545.374 665.766 546.385 666.926C547.426 668.056 547.946 669.468 547.946 671.163C547.946 672.829 547.485 674.107 546.563 675C545.641 675.862 544.318 676.293 542.593 676.293C542.058 676.293 541.716 676.248 541.567 676.159C541.419 676.04 541.344 675.817 541.344 675.49C541.344 675.193 541.315 674.806 541.255 674.33C541.225 673.855 541.121 673.394 540.943 672.948C540.764 672.502 540.482 672.13 540.095 671.833C539.709 671.505 539.174 671.342 538.49 671.342C537.538 671.342 536.691 671.639 535.947 672.234C535.204 672.799 534.832 673.542 534.832 674.464C534.832 675.267 535.129 675.921 535.724 676.427C536.349 676.932 537.122 677.408 538.044 677.854C538.965 678.271 539.962 678.702 541.032 679.148C542.132 679.594 543.143 680.189 544.065 680.932C544.987 681.646 545.745 682.553 546.34 683.653C546.965 684.723 547.277 686.091 547.277 687.757C547.277 690.136 546.593 692.173 545.225 693.868C543.857 695.563 541.805 696.603 539.069 696.99L538.713 700.425C538.653 700.781 538.564 701.019 538.445 701.138C538.356 701.257 538.118 701.317 537.731 701.317C536.988 701.317 536.378 701.213 535.902 701.004C535.427 700.826 535.055 700.544 534.787 700.157C534.52 699.8 534.326 699.339 534.207 698.774C534.118 698.239 534.074 697.614 534.074 696.901C532.944 696.722 531.918 696.455 530.996 696.098C530.074 695.711 529.286 695.31 528.632 694.894C527.978 694.447 527.457 694.001 527.071 693.555C526.714 693.08 526.535 692.634 526.535 692.217C526.535 690.255 526.639 688.842 526.848 687.98C527.086 687.117 527.502 686.686 528.097 686.686C528.513 686.686 528.944 686.865 529.39 687.221C529.866 687.578 530.401 687.98 530.996 688.426C531.591 688.872 532.275 689.273 533.048 689.63C533.851 689.987 534.772 690.165 535.813 690.165C536.23 690.165 536.631 690.136 537.018 690.076C537.434 689.987 537.791 689.853 538.088 689.675C538.415 689.496 538.668 689.258 538.846 688.961C539.055 688.664 539.159 688.307 539.159 687.89C539.159 687.147 538.876 686.552 538.311 686.106C537.746 685.66 537.033 685.259 536.17 684.902C535.308 684.515 534.371 684.129 533.36 683.742C532.379 683.326 531.457 682.776 530.594 682.092C529.732 681.378 529.018 680.471 528.453 679.371C527.888 678.271 527.606 676.858 527.606 675.133Z" fill="black"/>
<ellipse cx="473.946" cy="617.583" rx="14.7941" ry="10.1105" transform="rotate(-17.9919 473.946 617.583)" fill="#FFED4B"/>
<ellipse cx="464.867" cy="666.757" rx="14.7941" ry="8.71743" transform="rotate(-41.3127 464.867 666.757)" fill="#FFED4B"/>
<path d="M479.363 737.215C473.416 735.839 470.088 728.271 471.93 720.31C473.772 712.35 480.086 707.012 486.033 708.388C491.98 709.764 495.308 717.333 493.466 725.293C491.624 733.253 485.31 738.591 479.363 737.215Z" fill="#FFED4B"/>
<ellipse cx="215.933" cy="136.362" rx="68.43" ry="59.1445" fill="#FCCF77"/>
<path d="M229.509 135.049L191.101 61.0345L258.613 56.9066L229.509 135.049Z" fill="#FCCF77"/>
<path d="M209.461 127.375C209.461 125.922 209.69 124.657 210.147 123.581C210.605 122.504 211.21 121.589 211.964 120.835C212.744 120.082 213.619 119.49 214.588 119.059C215.584 118.601 216.62 118.265 217.697 118.05C217.75 117.619 217.777 117.175 217.777 116.717C217.804 116.233 217.845 115.802 217.898 115.425C217.979 115.049 218.087 114.739 218.221 114.497C218.356 114.255 218.558 114.134 218.827 114.134C220.173 114.134 221.074 114.47 221.532 115.143C222.016 115.789 222.259 116.717 222.259 117.929C224.143 118.225 225.542 118.897 226.457 119.947C227.399 120.97 227.87 122.248 227.87 123.782C227.87 125.29 227.453 126.447 226.619 127.254C225.784 128.035 224.587 128.425 223.026 128.425C222.541 128.425 222.232 128.385 222.097 128.304C221.963 128.196 221.895 127.995 221.895 127.698C221.895 127.429 221.868 127.079 221.815 126.649C221.788 126.218 221.693 125.801 221.532 125.397C221.37 124.994 221.115 124.657 220.765 124.388C220.415 124.092 219.931 123.944 219.311 123.944C218.45 123.944 217.683 124.213 217.01 124.751C216.337 125.263 216.001 125.936 216.001 126.77C216.001 127.497 216.27 128.089 216.808 128.546C217.374 129.004 218.073 129.434 218.908 129.838C219.742 130.215 220.644 130.605 221.613 131.009C222.608 131.413 223.524 131.951 224.358 132.624C225.192 133.27 225.879 134.091 226.417 135.086C226.982 136.055 227.265 137.293 227.265 138.801C227.265 140.954 226.646 142.797 225.408 144.332C224.17 145.866 222.312 146.808 219.836 147.158L219.513 150.266C219.46 150.589 219.379 150.805 219.271 150.912C219.19 151.02 218.975 151.074 218.625 151.074C217.952 151.074 217.401 150.979 216.97 150.791C216.539 150.63 216.203 150.374 215.961 150.024C215.718 149.701 215.543 149.284 215.436 148.772C215.355 148.288 215.315 147.723 215.315 147.077C214.292 146.915 213.363 146.673 212.529 146.35C211.695 146 210.981 145.637 210.389 145.26C209.797 144.856 209.326 144.453 208.976 144.049C208.653 143.618 208.492 143.215 208.492 142.838C208.492 141.061 208.586 139.783 208.774 139.003C208.99 138.222 209.367 137.832 209.905 137.832C210.282 137.832 210.672 137.993 211.076 138.316C211.506 138.639 211.991 139.003 212.529 139.406C213.067 139.81 213.686 140.173 214.386 140.496C215.113 140.819 215.947 140.981 216.889 140.981C217.266 140.981 217.629 140.954 217.979 140.9C218.356 140.819 218.679 140.698 218.948 140.537C219.244 140.375 219.473 140.16 219.634 139.891C219.823 139.622 219.917 139.299 219.917 138.922C219.917 138.249 219.661 137.711 219.15 137.307C218.639 136.903 217.993 136.54 217.212 136.217C216.432 135.867 215.584 135.517 214.669 135.167C213.781 134.79 212.946 134.292 212.166 133.673C211.385 133.028 210.739 132.207 210.228 131.211C209.716 130.215 209.461 128.937 209.461 127.375Z" fill="black"/>
<ellipse cx="160.894" cy="75.1993" rx="13.3899" ry="9.15091" transform="rotate(-17.9919 160.894 75.1993)" fill="#FFED4B"/>
<ellipse cx="152.677" cy="119.706" rx="13.3899" ry="7.89002" transform="rotate(-41.3127 152.677 119.706)" fill="#FFED4B"/>
<path d="M165.797 183.477C160.415 182.231 157.402 175.381 159.069 168.176C160.736 160.972 166.451 156.141 171.834 157.386C177.216 158.631 180.228 165.481 178.561 172.686C176.895 179.891 171.18 184.722 165.797 183.477Z" fill="#FFED4B"/>
<defs>
<filter id="filter0_d_88_206" x="242.951" y="335.629" width="141.05" height="125.721" filterUnits="userSpaceOnUse" color-interpolation-filters="sRGB">
<feFlood flood-opacity="0" result="BackgroundImageFix"/>
<feColorMatrix in="SourceAlpha" type="matrix" values="0 0 0 0 0 0 0 0 0 0 0 0 0 0 0 0 0 0 127 0" result="hardAlpha"/>
<feOffset dy="4"/>
<feGaussianBlur stdDeviation="2"/>
<feComposite in2="hardAlpha" operator="out"/>
<feColorMatrix type="matrix" values="0 0 0 0 0 0 0 0 0 0 0 0 0 0 0 0 0 0 0.25 0"/>
<feBlend mode="normal" in2="BackgroundImageFix" result="effect1_dropShadow_88_206"/>
<feBlend mode="normal" in="SourceGraphic" in2="effect1_dropShadow_88_206" result="shape"/>
</filter>
<filter id="filter1_d_88_206" x="315.283" y="314.637" width="91.8198" height="109.375" filterUnits="userSpaceOnUse" color-interpolation-filters="sRGB">
<feFlood flood-opacity="0" result="BackgroundImageFix"/>
<feColorMatrix in="SourceAlpha" type="matrix" values="0 0 0 0 0 0 0 0 0 0 0 0 0 0 0 0 0 0 127 0" result="hardAlpha"/>
<feOffset dy="4"/>
<feGaussianBlur stdDeviation="2"/>
<feComposite in2="hardAlpha" operator="out"/>
<feColorMatrix type="matrix" values="0 0 0 0 0 0 0 0 0 0 0 0 0 0 0 0 0 0 0.25 0"/>
<feBlend mode="normal" in2="BackgroundImageFix" result="effect1_dropShadow_88_206"/>
<feBlend mode="normal" in="SourceGraphic" in2="effect1_dropShadow_88_206" result="shape"/>
</filter>
<clipPath id="clip0_88_206">
<rect width="655" height="808" fill="white"/>
</clipPath>
</defs>
</svg>
