<svg width="505" height="483" viewBox="0 0 505 483" fill="none" xmlns="http://www.w3.org/2000/svg">
<path d="M74.4194 327.818C33.3187 248.658 79.5413 143.188 177.661 92.2434C275.78 41.2988 388.64 64.1719 429.741 143.332C470.841 222.492 424.619 327.962 326.499 378.907C228.38 429.852 115.52 406.978 74.4194 327.818ZM337.348 191.303C317.622 153.31 263.455 142.333 216.362 166.783C169.27 191.234 147.086 241.854 166.812 279.847C186.538 317.84 240.705 328.818 287.797 304.367C334.89 279.916 357.074 229.296 337.348 191.303Z" fill="#FFE3BD"/>
<path d="M411 259.5C411 259.5 420.36 283.385 422.5 289.5C442.507 303 437.995 277.477 442.507 268.776C445.154 263.671 447.902 258.601 450.312 253.366C453.209 247.072 454.449 240.803 455.695 234.025C458.059 221.173 455.695 208.553 455.695 195.5C455.695 181.678 455.873 168.12 450.084 155.577C444.474 143.422 434.7 132.698 425.359 123.275C459.313 75.4999 409.823 103.794 398.5 96.9999C392.522 91.2745 386.221 86.291 379.5 81.602L378.958 81.2235C358.024 66.617 334.096 49.9216 309.627 49.9216C290.731 49.9216 273.873 56.9999 255 56.9999C253.395 56.9999 234.883 55.2194 235.5 55.4999C218.5 66.9999 256 77.9999 256 77.9999C271 86.9999 281.5 92.9999 303.5 106C340 123.5 330.5 138.077 349 155.577C386.5 178.577 392 214.5 411 259.5Z" fill="#493B3B"/>
<path d="M79.1272 326.083C78.173 325.233 76.7658 323.662 75.3569 323.582C73.1746 323.639 70.1582 325.374 68.2947 326.418C66.9043 327.198 65.5536 328.265 64.0467 328.89C62.2404 330.44 61.1042 330.993 59.7419 332.138C58.0587 333.552 56.2123 333.402 55.3751 335.623C55.0603 336.458 56.0962 339.178 56.3365 340.139L56.3466 340.179C56.6316 341.319 56.9766 342.698 57.5242 343.724C58.0286 344.67 58.0902 345.728 58.5592 346.656C59.418 348.357 59.9917 350.212 60.9984 351.853C62.3678 354.085 63.7065 356.177 65.8553 357.779C69.3104 360.354 73.1968 362.596 77.2942 363.917C78.1425 364.191 78.339 364.541 79.1338 364.005C79.5368 363.733 80.1644 363.153 80.5754 362.921C82.2285 361.989 83.7122 360.805 85.3691 359.874C87.2485 358.817 88.9885 357.315 90.6219 355.905C93.0875 353.777 97.3802 349.517 97.8668 349.004C97.8668 349.004 98.2303 348.495 97.8415 348.045C96.8196 346.64 95.6501 345.285 94.5227 343.964C92.2071 341.252 89.807 338.668 87.6533 335.81C85.0319 332.331 82.3942 328.995 79.1272 326.083Z" fill="#FFE3BD"/>
<path d="M120.5 436.8L118.22 470.1C118.18 470.7 117.96 471 117.56 471H114.26C112.02 471 110.42 470.56 109.46 469.68C108.5 468.8 108.02 467.54 108.02 465.9C108.02 465.3 108.04 464.4 108.08 463.2C108.16 462 108.26 460.6 108.38 459C108.5 457.36 108.62 455.6 108.74 453.72C108.9 451.8 109.06 449.88 109.22 447.96C109.38 446 109.52 444.06 109.64 442.14C109.8 440.22 109.94 438.44 110.06 436.8H100.46C100.02 436.8 99.8 436.52 99.8 435.96L99.98 432.6C100.02 432.08 100.1 431.58 100.22 431.1C100.38 430.58 100.62 430.12 100.94 429.72C101.26 429.32 101.66 429 102.14 428.76C102.66 428.52 103.28 428.4 104 428.4H130.82C131.06 428.4 131.28 428.46 131.48 428.58C131.68 428.7 131.78 428.92 131.78 429.24L131.54 432.78C131.46 433.98 131.12 434.96 130.52 435.72C129.96 436.44 128.78 436.8 126.98 436.8H120.5ZM139.277 471C138.037 471 137.017 470.88 136.217 470.64C135.457 470.36 134.837 469.98 134.357 469.5C133.917 469.02 133.597 468.44 133.397 467.76C133.237 467.04 133.157 466.22 133.157 465.3C133.157 464.7 133.177 463.86 133.217 462.78C133.297 461.66 133.417 460.14 133.577 458.22C133.737 456.26 133.917 453.8 134.117 450.84C134.357 447.84 134.637 444.14 134.957 439.74C134.997 438.86 135.097 438.34 135.257 438.18C135.377 438.06 135.697 438 136.217 438H138.557C139.797 438 140.797 438.12 141.557 438.36C142.357 438.6 142.977 438.96 143.417 439.44C143.897 439.92 144.217 440.5 144.377 441.18C144.577 441.86 144.677 442.62 144.677 443.46C144.677 444.06 144.637 444.96 144.557 446.16C144.477 447.36 144.357 449 144.197 451.08C144.077 453.12 143.897 455.68 143.657 458.76C143.417 461.8 143.117 465.48 142.757 469.8C142.717 470.28 142.617 470.6 142.457 470.76C142.297 470.92 141.957 471 141.437 471H139.277ZM135.017 430.92C135.017 429.32 135.597 428.06 136.757 427.14C137.917 426.22 139.477 425.76 141.437 425.76C143.157 425.76 144.397 426.12 145.157 426.84C145.957 427.52 146.357 428.44 146.357 429.6C146.357 431.08 145.797 432.32 144.677 433.32C143.597 434.28 141.997 434.76 139.877 434.76C136.637 434.76 135.017 433.48 135.017 430.92ZM170.432 465.72C170.432 464.84 170.492 463.7 170.612 462.3C170.772 460.86 170.912 459.36 171.032 457.8C171.192 456.2 171.332 454.66 171.452 453.18C171.612 451.7 171.692 450.46 171.692 449.46C171.692 448.42 171.432 447.5 170.912 446.7C170.432 445.86 169.472 445.44 168.032 445.44C166.632 445.44 165.472 445.78 164.552 446.46C163.632 447.14 162.852 448.38 162.212 450.18C161.612 451.98 161.112 454.46 160.712 457.62C160.312 460.78 159.932 464.84 159.572 469.8C159.532 470.28 159.432 470.6 159.272 470.76C159.112 470.92 158.772 471 158.252 471H156.092C154.852 471 153.832 470.88 153.032 470.64C152.272 470.36 151.652 469.98 151.172 469.5C150.732 469.02 150.412 468.44 150.212 467.76C150.052 467.04 149.972 466.22 149.972 465.3C149.972 464.7 149.992 463.86 150.032 462.78C150.112 461.66 150.232 460.14 150.392 458.22C150.552 456.26 150.732 453.8 150.932 450.84C151.172 447.84 151.452 444.14 151.772 439.74C151.812 438.86 151.912 438.34 152.072 438.18C152.192 438.06 152.512 438 153.032 438H155.372C156.572 438 157.552 438.14 158.312 438.42C159.112 438.7 159.752 439.08 160.232 439.56C160.712 440 161.052 440.54 161.252 441.18C161.452 441.78 161.572 442.4 161.612 443.04C162.852 440.92 164.272 439.46 165.872 438.66C167.472 437.82 169.472 437.4 171.872 437.4C173.552 437.4 175.012 437.58 176.252 437.94C177.492 438.3 178.512 438.92 179.312 439.8C180.152 440.64 180.772 441.76 181.172 443.16C181.572 444.52 181.772 446.22 181.772 448.26C181.772 448.9 181.732 449.82 181.652 451.02C181.572 452.22 181.472 453.54 181.352 454.98C181.232 456.38 181.092 457.86 180.932 459.42C180.812 460.94 180.692 462.36 180.572 463.68C180.452 465 180.352 466.16 180.272 467.16C180.192 468.16 180.152 468.82 180.152 469.14C180.152 470.02 180.052 470.56 179.852 470.76C179.652 470.92 179.212 471 178.532 471H176.612C175.332 471 174.292 470.88 173.492 470.64C172.692 470.4 172.072 470.06 171.632 469.62C171.192 469.18 170.872 468.64 170.672 468C170.512 467.32 170.432 466.56 170.432 465.72ZM198.58 443.52C198.58 444.44 198.52 445.54 198.4 446.82C198.28 448.06 198.14 449.32 197.98 450.6C197.86 451.84 197.74 453.02 197.62 454.14C197.5 455.22 197.44 456.06 197.44 456.66C197.44 458.18 197.8 459.32 198.52 460.08C199.28 460.8 200.2 461.16 201.28 461.16C203.16 461.16 204.66 460.18 205.78 458.22C206.9 456.26 207.6 453.66 207.88 450.42L208.84 439.2C208.88 438.76 209.02 438.46 209.26 438.3C209.54 438.1 209.84 438 210.16 438H212.32C213.16 438 213.94 438.08 214.66 438.24C215.42 438.36 216.08 438.62 216.64 439.02C217.2 439.38 217.64 439.88 217.96 440.52C218.28 441.16 218.44 441.98 218.44 442.98C218.44 443.38 218.4 444.14 218.32 445.26C218.28 446.34 218.18 447.92 218.02 450C217.9 452.04 217.72 454.64 217.48 457.8C217.24 460.92 216.96 464.74 216.64 469.26C216.44 471.9 215.84 474.08 214.84 475.8C213.88 477.56 212.66 478.94 211.18 479.94C209.7 480.98 208.04 481.7 206.2 482.1C204.36 482.5 202.48 482.7 200.56 482.7C198.52 482.7 196.64 482.52 194.92 482.16C193.24 481.8 191.78 481.3 190.54 480.66C189.3 480.02 188.32 479.28 187.6 478.44C186.92 477.6 186.58 476.7 186.58 475.74C186.58 474.98 186.74 474.32 187.06 473.76C187.42 473.2 187.88 472.74 188.44 472.38C189 472.02 189.64 471.74 190.36 471.54C191.12 471.38 191.9 471.3 192.7 471.3C193.1 471.3 193.38 471.5 193.54 471.9C193.74 472.3 194.02 472.74 194.38 473.22C194.78 473.74 195.4 474.2 196.24 474.6C197.08 475 198.34 475.2 200.02 475.2C201.5 475.2 202.7 474.84 203.62 474.12C204.54 473.4 205.24 472.48 205.72 471.36C206.24 470.24 206.58 469.02 206.74 467.7C206.9 466.38 206.98 465.12 206.98 463.92C206.34 465.04 205.62 465.96 204.82 466.68C204.06 467.36 203.26 467.9 202.42 468.3C201.58 468.66 200.74 468.9 199.9 469.02C199.06 469.14 198.26 469.2 197.5 469.2C196.02 469.2 194.66 469 193.42 468.6C192.22 468.2 191.18 467.56 190.3 466.68C189.42 465.76 188.74 464.58 188.26 463.14C187.78 461.7 187.54 459.96 187.54 457.92C187.54 457.16 187.58 456.16 187.66 454.92C187.74 453.64 187.84 452.22 187.96 450.66C188.08 449.06 188.2 447.34 188.32 445.5C188.48 443.66 188.64 441.78 188.8 439.86C188.88 438.62 189.44 438 190.48 438H192.4C193.68 438 194.72 438.12 195.52 438.36C196.32 438.6 196.94 438.96 197.38 439.44C197.86 439.88 198.18 440.46 198.34 441.18C198.5 441.86 198.58 442.64 198.58 443.52ZM240.841 427.8C244.601 427.8 247.381 428.62 249.181 430.26C251.021 431.9 251.941 434.04 251.941 436.68C251.941 438.92 251.321 440.64 250.081 441.84C248.841 443 247.061 443.58 244.741 443.58C244.021 443.58 243.561 443.52 243.361 443.4C243.161 443.24 243.061 442.94 243.061 442.5C243.061 442.1 243.021 441.58 242.941 440.94C242.901 440.3 242.761 439.68 242.521 439.08C242.281 438.48 241.901 437.98 241.381 437.58C240.861 437.14 240.141 436.92 239.221 436.92C237.941 436.92 236.801 437.32 235.801 438.12C234.801 438.88 234.301 439.88 234.301 441.12C234.301 442.2 234.701 443.08 235.501 443.76C236.341 444.44 237.381 445.08 238.621 445.68C239.861 446.24 241.201 446.82 242.641 447.42C244.121 448.02 245.481 448.82 246.721 449.82C247.961 450.78 248.981 452 249.781 453.48C250.621 454.92 251.041 456.76 251.041 459C251.041 460.76 250.741 462.42 250.141 463.98C249.581 465.5 248.721 466.84 247.561 468C246.441 469.12 245.001 470 243.241 470.64C241.521 471.28 239.501 471.6 237.181 471.6C235.181 471.6 233.321 471.38 231.601 470.94C229.921 470.5 228.441 469.96 227.161 469.32C225.921 468.64 224.941 467.92 224.221 467.16C223.501 466.36 223.141 465.64 223.141 465C223.141 462.36 223.281 460.46 223.561 459.3C223.881 458.14 224.441 457.56 225.241 457.56C225.801 457.56 226.381 457.8 226.981 458.28C227.621 458.76 228.341 459.3 229.141 459.9C229.941 460.5 230.861 461.04 231.901 461.52C232.981 462 234.221 462.24 235.621 462.24C236.181 462.24 236.721 462.2 237.241 462.12C237.801 462 238.281 461.82 238.681 461.58C239.121 461.34 239.461 461.02 239.701 460.62C239.981 460.22 240.121 459.74 240.121 459.18C240.121 458.18 239.741 457.38 238.981 456.78C238.221 456.18 237.261 455.64 236.101 455.16C234.941 454.64 233.681 454.12 232.321 453.6C231.001 453.04 229.761 452.3 228.601 451.38C227.441 450.42 226.481 449.2 225.721 447.72C224.961 446.24 224.581 444.34 224.581 442.02C224.581 439.42 225.061 437.22 226.021 435.42C227.021 433.62 228.281 432.16 229.801 431.04C231.361 429.88 233.101 429.06 235.021 428.58C236.981 428.06 238.921 427.8 240.841 427.8ZM254.402 463.62C254.402 460.02 256.022 457.2 259.262 455.16C262.502 453.12 267.282 452.02 273.602 451.86C273.642 451.42 273.662 451.06 273.662 450.78C273.702 450.46 273.722 450.08 273.722 449.64C273.722 448.36 273.482 447.34 273.002 446.58C272.522 445.82 271.522 445.44 270.002 445.44C269.162 445.44 268.482 445.56 267.962 445.8C267.442 446.04 267.022 446.38 266.702 446.82C266.382 447.22 266.122 447.72 265.922 448.32C265.722 448.92 265.542 449.58 265.382 450.3C265.302 450.66 265.122 450.9 264.842 451.02C264.562 451.1 264.122 451.14 263.522 451.14C259.442 451.14 257.402 449.6 257.402 446.52C257.402 445.28 257.682 444.1 258.242 442.98C258.842 441.86 259.702 440.9 260.822 440.1C261.982 439.26 263.422 438.6 265.142 438.12C266.862 437.64 268.862 437.4 271.142 437.4C275.582 437.4 278.802 438.32 280.802 440.16C282.802 442 283.802 444.6 283.802 447.96C283.802 448.4 283.742 449.2 283.622 450.36C283.542 451.48 283.422 452.68 283.262 453.96C283.142 455.2 283.022 456.38 282.902 457.5C282.822 458.62 282.782 459.4 282.782 459.84C282.782 460.84 282.962 461.56 283.322 462C283.682 462.4 284.082 462.68 284.522 462.84C285.002 463 285.422 463.12 285.782 463.2C286.142 463.28 286.322 463.48 286.322 463.8C286.322 464.68 286.202 465.58 285.962 466.5C285.722 467.42 285.322 468.26 284.762 469.02C284.242 469.78 283.502 470.4 282.542 470.88C281.622 471.36 280.482 471.6 279.122 471.6C277.202 471.6 275.762 471.14 274.802 470.22C273.842 469.3 273.202 468.02 272.882 466.38C271.922 467.78 270.662 469 269.102 470.04C267.582 471.08 265.582 471.6 263.102 471.6C261.902 471.6 260.762 471.46 259.682 471.18C258.642 470.9 257.722 470.44 256.922 469.8C256.162 469.16 255.542 468.34 255.062 467.34C254.622 466.3 254.402 465.06 254.402 463.62ZM273.062 456.78C272.022 456.78 271.002 456.86 270.002 457.02C269.002 457.18 268.102 457.44 267.302 457.8C266.542 458.12 265.922 458.56 265.442 459.12C264.962 459.68 264.722 460.36 264.722 461.16C264.722 462.08 265.002 462.72 265.562 463.08C266.162 463.44 266.802 463.62 267.482 463.62C268.122 463.62 268.762 463.48 269.402 463.2C270.042 462.92 270.602 462.5 271.082 461.94C271.602 461.34 272.042 460.62 272.402 459.78C272.762 458.94 272.982 457.94 273.062 456.78ZM303.282 463.38C303.762 461.7 304.202 460.04 304.602 458.4C305.042 456.76 305.462 455.02 305.862 453.18C306.302 451.3 306.762 449.26 307.242 447.06C307.762 444.82 308.362 442.28 309.042 439.44C309.162 438.88 309.342 438.52 309.582 438.36C309.822 438.16 310.342 438.06 311.142 438.06C311.742 438.06 312.542 438.08 313.542 438.12C314.542 438.16 315.522 438.3 316.482 438.54C317.442 438.78 318.262 439.14 318.942 439.62C319.662 440.1 320.022 440.76 320.022 441.6C320.022 442.28 319.782 443.38 319.302 444.9C318.822 446.42 318.202 448.16 317.442 450.12C316.682 452.04 315.822 454.06 314.862 456.18C313.942 458.3 313.042 460.3 312.162 462.18C311.282 464.06 310.462 465.72 309.702 467.16C308.942 468.56 308.382 469.54 308.022 470.1C307.702 470.54 307.422 470.8 307.182 470.88C306.942 470.96 306.542 471 305.982 471H300.642C299.802 471 299.102 470.86 298.542 470.58C298.022 470.26 297.582 469.86 297.222 469.38C296.862 468.9 296.562 468.36 296.322 467.76C296.082 467.12 295.862 466.46 295.662 465.78C294.502 461.78 293.482 458.36 292.602 455.52C291.762 452.64 291.042 450.24 290.442 448.32C289.842 446.4 289.362 444.88 289.002 443.76C288.642 442.6 288.362 441.72 288.162 441.12C287.962 440.48 287.822 440.06 287.742 439.86C287.662 439.62 287.622 439.46 287.622 439.38C287.662 439.1 287.862 438.8 288.222 438.48C288.582 438.16 289.042 438 289.602 438C291.442 438 293.002 438.08 294.282 438.24C295.602 438.36 296.682 438.6 297.522 438.96C298.402 439.32 299.062 439.82 299.502 440.46C299.982 441.1 300.322 441.94 300.522 442.98C300.562 443.26 300.642 443.82 300.762 444.66C300.882 445.5 301.002 446.52 301.122 447.72C301.282 448.88 301.462 450.18 301.662 451.62C301.862 453.02 302.042 454.44 302.202 455.88C302.402 457.28 302.582 458.64 302.742 459.96C302.942 461.28 303.122 462.42 303.282 463.38ZM336.508 471.6C334.748 471.6 332.988 471.38 331.228 470.94C329.508 470.5 327.948 469.74 326.548 468.66C325.188 467.58 324.068 466.14 323.188 464.34C322.308 462.54 321.868 460.28 321.868 457.56C321.868 456.56 321.948 455.36 322.108 453.96C322.268 452.56 322.568 451.12 323.008 449.64C323.488 448.16 324.128 446.7 324.928 445.26C325.768 443.78 326.848 442.46 328.168 441.3C329.488 440.14 331.088 439.2 332.968 438.48C334.848 437.76 337.088 437.4 339.688 437.4C341.768 437.4 343.528 437.64 344.968 438.12C346.408 438.6 347.568 439.26 348.448 440.1C349.328 440.9 349.968 441.84 350.368 442.92C350.768 444 350.968 445.16 350.968 446.4C350.968 448.24 350.588 449.8 349.828 451.08C349.108 452.36 348.148 453.44 346.948 454.32C345.788 455.16 344.488 455.82 343.048 456.3C341.608 456.78 340.188 457.16 338.788 457.44C337.388 457.68 336.088 457.84 334.888 457.92C333.728 457.96 332.828 457.98 332.188 457.98C332.188 458.74 332.288 459.5 332.488 460.26C332.728 460.98 333.068 461.62 333.508 462.18C333.948 462.74 334.528 463.2 335.248 463.56C335.968 463.92 336.848 464.1 337.888 464.1C338.928 464.1 339.728 463.94 340.288 463.62C340.888 463.26 341.368 462.88 341.728 462.48C342.088 462.04 342.388 461.66 342.628 461.34C342.908 460.98 343.268 460.8 343.708 460.8C343.908 460.8 344.248 460.86 344.728 460.98C345.248 461.06 345.768 461.26 346.288 461.58C346.808 461.9 347.268 462.34 347.668 462.9C348.068 463.46 348.268 464.18 348.268 465.06C348.268 466.22 347.908 467.22 347.188 468.06C346.468 468.9 345.528 469.58 344.368 470.1C343.248 470.62 341.988 471 340.588 471.24C339.188 471.48 337.828 471.6 336.508 471.6ZM337.648 445.38C336.768 445.38 336.008 445.64 335.368 446.16C334.768 446.64 334.248 447.26 333.808 448.02C333.408 448.78 333.088 449.62 332.848 450.54C332.648 451.46 332.488 452.34 332.368 453.18C334.848 453.14 336.848 452.72 338.368 451.92C339.928 451.12 340.708 449.98 340.708 448.5C340.708 447.7 340.448 446.98 339.928 446.34C339.448 445.7 338.688 445.38 337.648 445.38ZM368.561 437.4C371.961 437.4 374.461 438.08 376.061 439.44C377.661 440.76 378.461 442.46 378.461 444.54C378.461 446.3 377.901 447.64 376.781 448.56C375.701 449.48 374.121 449.94 372.041 449.94C371.481 449.94 371.101 449.88 370.901 449.76C370.701 449.64 370.601 449.42 370.601 449.1C370.601 448.74 370.561 448.34 370.481 447.9C370.441 447.42 370.301 446.98 370.061 446.58C369.861 446.14 369.521 445.78 369.041 445.5C368.601 445.22 367.961 445.08 367.121 445.08C366.001 445.08 365.101 445.36 364.421 445.92C363.741 446.44 363.401 447.1 363.401 447.9C363.401 448.74 363.741 449.42 364.421 449.94C365.141 450.42 366.021 450.88 367.061 451.32C368.141 451.76 369.301 452.22 370.541 452.7C371.781 453.14 372.921 453.74 373.961 454.5C375.041 455.26 375.921 456.22 376.601 457.38C377.321 458.5 377.681 459.96 377.681 461.76C377.681 464.64 376.661 467 374.621 468.84C372.581 470.68 369.521 471.6 365.441 471.6C364.321 471.6 363.021 471.5 361.541 471.3C360.101 471.14 358.721 470.88 357.401 470.52C356.081 470.12 354.961 469.6 354.041 468.96C353.161 468.32 352.721 467.52 352.721 466.56C352.721 466.2 352.781 465.76 352.901 465.24C353.061 464.72 353.281 464.22 353.561 463.74C353.881 463.26 354.241 462.86 354.641 462.54C355.081 462.18 355.601 462 356.201 462C356.681 462 357.121 462.12 357.521 462.36C357.921 462.6 358.381 462.86 358.901 463.14C359.461 463.38 360.141 463.62 360.941 463.86C361.741 464.1 362.801 464.22 364.121 464.22C365.121 464.22 366.001 464.1 366.761 463.86C367.561 463.62 367.961 463.08 367.961 462.24C367.961 461.48 367.641 460.88 367.001 460.44C366.361 459.96 365.541 459.52 364.541 459.12C363.581 458.72 362.521 458.3 361.361 457.86C360.241 457.38 359.181 456.76 358.181 456C357.221 455.24 356.421 454.28 355.781 453.12C355.141 451.92 354.821 450.38 354.821 448.5C354.821 446.46 355.221 444.74 356.021 443.34C356.861 441.9 357.921 440.74 359.201 439.86C360.521 438.98 362.001 438.36 363.641 438C365.281 437.6 366.921 437.4 368.561 437.4Z" fill="black"/>
<path d="M233.32 224.53C233.32 221.29 233.83 218.47 234.85 216.07C235.87 213.67 237.22 211.63 238.9 209.95C240.64 208.27 242.59 206.95 244.75 205.99C246.97 204.97 249.28 204.22 251.68 203.74C251.8 202.78 251.86 201.79 251.86 200.77C251.92 199.69 252.01 198.73 252.13 197.89C252.31 197.05 252.55 196.36 252.85 195.82C253.15 195.28 253.6 195.01 254.2 195.01C257.2 195.01 259.21 195.76 260.23 197.26C261.31 198.7 261.85 200.77 261.85 203.47C266.05 204.13 269.17 205.63 271.21 207.97C273.31 210.25 274.36 213.1 274.36 216.52C274.36 219.88 273.43 222.46 271.57 224.26C269.71 226 267.04 226.87 263.56 226.87C262.48 226.87 261.79 226.78 261.49 226.6C261.19 226.36 261.04 225.91 261.04 225.25C261.04 224.65 260.98 223.87 260.86 222.91C260.8 221.95 260.59 221.02 260.23 220.12C259.87 219.22 259.3 218.47 258.52 217.87C257.74 217.21 256.66 216.88 255.28 216.88C253.36 216.88 251.65 217.48 250.15 218.68C248.65 219.82 247.9 221.32 247.9 223.18C247.9 224.8 248.5 226.12 249.7 227.14C250.96 228.16 252.52 229.12 254.38 230.02C256.24 230.86 258.25 231.73 260.41 232.63C262.63 233.53 264.67 234.73 266.53 236.23C268.39 237.67 269.92 239.5 271.12 241.72C272.38 243.88 273.01 246.64 273.01 250C273.01 254.8 271.63 258.91 268.87 262.33C266.11 265.75 261.97 267.85 256.45 268.63L255.73 275.56C255.61 276.28 255.43 276.76 255.19 277C255.01 277.24 254.53 277.36 253.75 277.36C252.25 277.36 251.02 277.15 250.06 276.73C249.1 276.37 248.35 275.8 247.81 275.02C247.27 274.3 246.88 273.37 246.64 272.23C246.46 271.15 246.37 269.89 246.37 268.45C244.09 268.09 242.02 267.55 240.16 266.83C238.3 266.05 236.71 265.24 235.39 264.4C234.07 263.5 233.02 262.6 232.24 261.7C231.52 260.74 231.16 259.84 231.16 259C231.16 255.04 231.37 252.19 231.79 250.45C232.27 248.71 233.11 247.84 234.31 247.84C235.15 247.84 236.02 248.2 236.92 248.92C237.88 249.64 238.96 250.45 240.16 251.35C241.36 252.25 242.74 253.06 244.3 253.78C245.92 254.5 247.78 254.86 249.88 254.86C250.72 254.86 251.53 254.8 252.31 254.68C253.15 254.5 253.87 254.23 254.47 253.87C255.13 253.51 255.64 253.03 256 252.43C256.42 251.83 256.63 251.11 256.63 250.27C256.63 248.77 256.06 247.57 254.92 246.67C253.78 245.77 252.34 244.96 250.6 244.24C248.86 243.46 246.97 242.68 244.93 241.9C242.95 241.06 241.09 239.95 239.35 238.57C237.61 237.13 236.17 235.3 235.03 233.08C233.89 230.86 233.32 228.01 233.32 224.53Z" fill="black"/>
</svg>
