<svg width="228" height="197" viewBox="0 0 228 197" fill="none" xmlns="http://www.w3.org/2000/svg">
<rect x="58.7407" y="52.5964" width="77.6891" height="67.3305" fill="white"/>
<path d="M39.1323 114.34C24.9408 87.0069 40.9008 50.5895 74.7799 32.9991C108.659 15.4088 147.628 23.3065 161.819 50.6392C176.011 77.972 160.051 114.389 126.172 131.98C92.2926 149.57 53.3237 141.672 39.1323 114.34ZM129.917 67.203C123.106 54.0847 104.403 50.2942 88.1431 58.7366C71.8828 67.1791 64.2229 84.6576 71.034 97.7759C77.8452 110.894 96.5482 114.685 112.808 106.242C129.069 97.7997 136.729 80.3213 129.917 67.203Z" fill="#FFD295"/>
<path d="M158.265 90.6169C158.265 90.6169 160.579 104.845 163.737 103.974C166.895 103.103 166.303 103.256 171.056 101.559C174.301 99.6462 176.604 100.378 177.794 98.3678C179.224 95.9515 179.48 96.0825 181.344 94.7089C183.761 90.6169 188.595 89.8749 189.976 81.9333C190.864 76.8278 186.848 64.7986 185.227 59.4403C183.656 54.2477 180.406 49.4398 177.257 45.1803C192.738 27.3996 172.209 36.5506 168.166 33.2641C166.136 30.6616 162.804 23.7882 159.683 21.4723C157.563 18.5249 145.798 4.91348 136.513 3.44441C120.732 0.947675 123.455 4.93827 116.632 6.02654C114.294 5.97362 113.437 9.92972 109.041 14.6843C103.981 20.1573 107.433 21.584 107.433 21.584C108.441 22.7782 119.735 29.4502 126.705 36.6747C137.239 50.0929 134.129 48.1478 139.388 56.5385C149.578 72.7955 153.134 71.4761 158.265 90.6169Z" fill="#493B3B"/>
<path d="M40.758 113.741C40.4285 113.447 39.9427 112.904 39.4562 112.877C38.7027 112.897 37.6611 113.496 37.0177 113.856C36.5376 114.125 36.0712 114.494 35.5509 114.71C34.9272 115.245 34.5349 115.436 34.0645 115.831C33.4834 116.32 32.8458 116.268 32.5568 117.035C32.4481 117.323 32.8057 118.262 32.8887 118.594L32.8922 118.608C32.9906 119.001 33.1097 119.477 33.2988 119.832C33.473 120.158 33.4942 120.524 33.6562 120.844C33.9527 121.431 34.1508 122.072 34.4984 122.639C34.9712 123.409 35.4335 124.132 36.1754 124.685C37.3684 125.574 38.7103 126.348 40.1251 126.804C40.418 126.898 40.4858 127.019 40.7603 126.834C40.8994 126.741 41.1161 126.54 41.258 126.46C41.8288 126.138 42.3411 125.73 42.9132 125.408C43.5621 125.043 44.163 124.525 44.727 124.038C45.5783 123.303 47.0605 121.832 47.2285 121.655C47.2285 121.655 47.354 121.479 47.2198 121.324C46.8669 120.838 46.4631 120.371 46.0738 119.915C45.2743 118.978 44.4456 118.086 43.7019 117.099C42.7968 115.898 41.8861 114.746 40.758 113.741Z" fill="#FFD295"/>
<path d="M15 166.2L13.48 188.4C13.4533 188.8 13.3067 189 13.04 189H10.84C9.34667 189 8.28 188.707 7.64 188.12C7 187.533 6.68 186.693 6.68 185.6C6.68 185.2 6.69333 184.6 6.72 183.8C6.77333 183 6.84 182.067 6.92 181C7 179.907 7.08 178.733 7.16 177.48C7.26667 176.2 7.37333 174.92 7.48 173.64C7.58667 172.333 7.68 171.04 7.76 169.76C7.86667 168.48 7.96 167.293 8.04 166.2H1.64C1.34667 166.2 1.2 166.013 1.2 165.64L1.32 163.4C1.34667 163.053 1.4 162.72 1.48 162.4C1.58667 162.053 1.74667 161.747 1.96 161.48C2.17333 161.213 2.44 161 2.76 160.84C3.10667 160.68 3.52 160.6 4 160.6H21.88C22.04 160.6 22.1867 160.64 22.32 160.72C22.4533 160.8 22.52 160.947 22.52 161.16L22.36 163.52C22.3067 164.32 22.08 164.973 21.68 165.48C21.3067 165.96 20.52 166.2 19.32 166.2H15ZM27.5178 189C26.6911 189 26.0111 188.92 25.4778 188.76C24.9711 188.573 24.5578 188.32 24.2378 188C23.9445 187.68 23.7311 187.293 23.5978 186.84C23.4911 186.36 23.4378 185.813 23.4378 185.2C23.4378 184.8 23.4511 184.24 23.4778 183.52C23.5311 182.773 23.6111 181.76 23.7178 180.48C23.8245 179.173 23.9445 177.533 24.0778 175.56C24.2378 173.56 24.4245 171.093 24.6378 168.16C24.6645 167.573 24.7311 167.227 24.8378 167.12C24.9178 167.04 25.1311 167 25.4778 167H27.0378C27.8645 167 28.5311 167.08 29.0378 167.24C29.5711 167.4 29.9845 167.64 30.2778 167.96C30.5978 168.28 30.8111 168.667 30.9178 169.12C31.0511 169.573 31.1178 170.08 31.1178 170.64C31.1178 171.04 31.0911 171.64 31.0378 172.44C30.9845 173.24 30.9045 174.333 30.7978 175.72C30.7178 177.08 30.5978 178.787 30.4378 180.84C30.2778 182.867 30.0778 185.32 29.8378 188.2C29.8111 188.52 29.7445 188.733 29.6378 188.84C29.5311 188.947 29.3045 189 28.9578 189H27.5178ZM24.6778 162.28C24.6778 161.213 25.0645 160.373 25.8378 159.76C26.6111 159.147 27.6511 158.84 28.9578 158.84C30.1045 158.84 30.9311 159.08 31.4378 159.56C31.9711 160.013 32.2378 160.627 32.2378 161.4C32.2378 162.387 31.8645 163.213 31.1178 163.88C30.3978 164.52 29.3311 164.84 27.9178 164.84C25.7578 164.84 24.6778 163.987 24.6778 162.28ZM48.2878 185.48C48.2878 184.893 48.3278 184.133 48.4078 183.2C48.5145 182.24 48.6078 181.24 48.6878 180.2C48.7945 179.133 48.8878 178.107 48.9678 177.12C49.0745 176.133 49.1278 175.307 49.1278 174.64C49.1278 173.947 48.9545 173.333 48.6078 172.8C48.2878 172.24 47.6478 171.96 46.6878 171.96C45.7545 171.96 44.9811 172.187 44.3678 172.64C43.7545 173.093 43.2345 173.92 42.8078 175.12C42.4078 176.32 42.0745 177.973 41.8078 180.08C41.5411 182.187 41.2878 184.893 41.0478 188.2C41.0211 188.52 40.9545 188.733 40.8478 188.84C40.7411 188.947 40.5145 189 40.1678 189H38.7278C37.9011 189 37.2211 188.92 36.6878 188.76C36.1811 188.573 35.7678 188.32 35.4478 188C35.1545 187.68 34.9411 187.293 34.8078 186.84C34.7011 186.36 34.6478 185.813 34.6478 185.2C34.6478 184.8 34.6611 184.24 34.6878 183.52C34.7411 182.773 34.8211 181.76 34.9278 180.48C35.0345 179.173 35.1545 177.533 35.2878 175.56C35.4478 173.56 35.6345 171.093 35.8478 168.16C35.8745 167.573 35.9411 167.227 36.0478 167.12C36.1278 167.04 36.3411 167 36.6878 167H38.2478C39.0478 167 39.7011 167.093 40.2078 167.28C40.7411 167.467 41.1678 167.72 41.4878 168.04C41.8078 168.333 42.0345 168.693 42.1678 169.12C42.3011 169.52 42.3811 169.933 42.4078 170.36C43.2345 168.947 44.1811 167.973 45.2478 167.44C46.3145 166.88 47.6478 166.6 49.2478 166.6C50.3678 166.6 51.3411 166.72 52.1678 166.96C52.9945 167.2 53.6745 167.613 54.2078 168.2C54.7678 168.76 55.1811 169.507 55.4478 170.44C55.7145 171.347 55.8478 172.48 55.8478 173.84C55.8478 174.267 55.8211 174.88 55.7678 175.68C55.7145 176.48 55.6478 177.36 55.5678 178.32C55.4878 179.253 55.3945 180.24 55.2878 181.28C55.2078 182.293 55.1278 183.24 55.0478 184.12C54.9678 185 54.9011 185.773 54.8478 186.44C54.7945 187.107 54.7678 187.547 54.7678 187.76C54.7678 188.347 54.7011 188.707 54.5678 188.84C54.4345 188.947 54.1411 189 53.6878 189H52.4078C51.5545 189 50.8611 188.92 50.3278 188.76C49.7945 188.6 49.3811 188.373 49.0878 188.08C48.7945 187.787 48.5811 187.427 48.4478 187C48.3411 186.547 48.2878 186.04 48.2878 185.48ZM67.0534 170.68C67.0534 171.293 67.0134 172.027 66.9334 172.88C66.8534 173.707 66.7601 174.547 66.6534 175.4C66.5734 176.227 66.4934 177.013 66.4134 177.76C66.3334 178.48 66.2934 179.04 66.2934 179.44C66.2934 180.453 66.5334 181.213 67.0134 181.72C67.5201 182.2 68.1334 182.44 68.8534 182.44C70.1068 182.44 71.1068 181.787 71.8534 180.48C72.6001 179.173 73.0668 177.44 73.2534 175.28L73.8934 167.8C73.9201 167.507 74.0134 167.307 74.1734 167.2C74.3601 167.067 74.5601 167 74.7734 167H76.2134C76.7734 167 77.2934 167.053 77.7734 167.16C78.2801 167.24 78.7201 167.413 79.0934 167.68C79.4668 167.92 79.7601 168.253 79.9734 168.68C80.1868 169.107 80.2934 169.653 80.2934 170.32C80.2934 170.587 80.2668 171.093 80.2134 171.84C80.1868 172.56 80.1201 173.613 80.0134 175C79.9334 176.36 79.8134 178.093 79.6534 180.2C79.4934 182.28 79.3068 184.827 79.0934 187.84C78.9601 189.6 78.5601 191.053 77.8934 192.2C77.2534 193.373 76.4401 194.293 75.4534 194.96C74.4668 195.653 73.3601 196.133 72.1334 196.4C70.9068 196.667 69.6534 196.8 68.3734 196.8C67.0134 196.8 65.7601 196.68 64.6134 196.44C63.4934 196.2 62.5201 195.867 61.6934 195.44C60.8668 195.013 60.2134 194.52 59.7334 193.96C59.2801 193.4 59.0534 192.8 59.0534 192.16C59.0534 191.653 59.1601 191.213 59.3734 190.84C59.6134 190.467 59.9201 190.16 60.2934 189.92C60.6668 189.68 61.0934 189.493 61.5734 189.36C62.0801 189.253 62.6001 189.2 63.1334 189.2C63.4001 189.2 63.5868 189.333 63.6934 189.6C63.8268 189.867 64.0134 190.16 64.2534 190.48C64.5201 190.827 64.9334 191.133 65.4934 191.4C66.0534 191.667 66.8934 191.8 68.0134 191.8C69.0001 191.8 69.8001 191.56 70.4134 191.08C71.0268 190.6 71.4934 189.987 71.8134 189.24C72.1601 188.493 72.3868 187.68 72.4934 186.8C72.6001 185.92 72.6534 185.08 72.6534 184.28C72.2268 185.027 71.7468 185.64 71.2134 186.12C70.7068 186.573 70.1734 186.933 69.6134 187.2C69.0534 187.44 68.4934 187.6 67.9334 187.68C67.3734 187.76 66.8401 187.8 66.3334 187.8C65.3468 187.8 64.4401 187.667 63.6134 187.4C62.8134 187.133 62.1201 186.707 61.5334 186.12C60.9468 185.507 60.4934 184.72 60.1734 183.76C59.8534 182.8 59.6934 181.64 59.6934 180.28C59.6934 179.773 59.7201 179.107 59.7734 178.28C59.8268 177.427 59.8934 176.48 59.9734 175.44C60.0534 174.373 60.1334 173.227 60.2134 172C60.3201 170.773 60.4268 169.52 60.5334 168.24C60.5868 167.413 60.9601 167 61.6534 167H62.9334C63.7868 167 64.4801 167.08 65.0134 167.24C65.5468 167.4 65.9601 167.64 66.2534 167.96C66.5734 168.253 66.7868 168.64 66.8934 169.12C67.0001 169.573 67.0534 170.093 67.0534 170.68ZM95.2275 160.2C97.7342 160.2 99.5875 160.747 100.788 161.84C102.014 162.933 102.628 164.36 102.628 166.12C102.628 167.613 102.214 168.76 101.388 169.56C100.561 170.333 99.3742 170.72 97.8275 170.72C97.3475 170.72 97.0408 170.68 96.9075 170.6C96.7742 170.493 96.7075 170.293 96.7075 170C96.7075 169.733 96.6808 169.387 96.6275 168.96C96.6008 168.533 96.5075 168.12 96.3475 167.72C96.1875 167.32 95.9342 166.987 95.5875 166.72C95.2408 166.427 94.7608 166.28 94.1475 166.28C93.2942 166.28 92.5342 166.547 91.8675 167.08C91.2008 167.587 90.8675 168.253 90.8675 169.08C90.8675 169.8 91.1342 170.387 91.6675 170.84C92.2275 171.293 92.9208 171.72 93.7475 172.12C94.5742 172.493 95.4675 172.88 96.4275 173.28C97.4142 173.68 98.3208 174.213 99.1475 174.88C99.9742 175.52 100.654 176.333 101.188 177.32C101.748 178.28 102.028 179.507 102.028 181C102.028 182.173 101.828 183.28 101.428 184.32C101.054 185.333 100.481 186.227 99.7075 187C98.9608 187.747 98.0008 188.333 96.8275 188.76C95.6808 189.187 94.3342 189.4 92.7875 189.4C91.4542 189.4 90.2142 189.253 89.0675 188.96C87.9475 188.667 86.9608 188.307 86.1075 187.88C85.2808 187.427 84.6275 186.947 84.1475 186.44C83.6675 185.907 83.4275 185.427 83.4275 185C83.4275 183.24 83.5208 181.973 83.7075 181.2C83.9208 180.427 84.2942 180.04 84.8275 180.04C85.2008 180.04 85.5875 180.2 85.9875 180.52C86.4142 180.84 86.8942 181.2 87.4275 181.6C87.9608 182 88.5742 182.36 89.2675 182.68C89.9875 183 90.8142 183.16 91.7475 183.16C92.1208 183.16 92.4808 183.133 92.8275 183.08C93.2008 183 93.5208 182.88 93.7875 182.72C94.0808 182.56 94.3075 182.347 94.4675 182.08C94.6542 181.813 94.7475 181.493 94.7475 181.12C94.7475 180.453 94.4942 179.92 93.9875 179.52C93.4808 179.12 92.8408 178.76 92.0675 178.44C91.2942 178.093 90.4542 177.747 89.5475 177.4C88.6675 177.027 87.8408 176.533 87.0675 175.92C86.2942 175.28 85.6542 174.467 85.1475 173.48C84.6408 172.493 84.3875 171.227 84.3875 169.68C84.3875 167.947 84.7075 166.48 85.3475 165.28C86.0142 164.08 86.8542 163.107 87.8675 162.36C88.9075 161.587 90.0675 161.04 91.3475 160.72C92.6542 160.373 93.9475 160.2 95.2275 160.2ZM104.268 184.08C104.268 181.68 105.348 179.8 107.508 178.44C109.668 177.08 112.855 176.347 117.068 176.24C117.095 175.947 117.108 175.707 117.108 175.52C117.135 175.307 117.148 175.053 117.148 174.76C117.148 173.907 116.988 173.227 116.668 172.72C116.348 172.213 115.681 171.96 114.668 171.96C114.108 171.96 113.655 172.04 113.308 172.2C112.961 172.36 112.681 172.587 112.468 172.88C112.255 173.147 112.081 173.48 111.948 173.88C111.815 174.28 111.695 174.72 111.588 175.2C111.535 175.44 111.415 175.6 111.228 175.68C111.041 175.733 110.748 175.76 110.348 175.76C107.628 175.76 106.268 174.733 106.268 172.68C106.268 171.853 106.455 171.067 106.828 170.32C107.228 169.573 107.801 168.933 108.548 168.4C109.321 167.84 110.281 167.4 111.428 167.08C112.575 166.76 113.908 166.6 115.428 166.6C118.388 166.6 120.535 167.213 121.868 168.44C123.201 169.667 123.868 171.4 123.868 173.64C123.868 173.933 123.828 174.467 123.748 175.24C123.695 175.987 123.615 176.787 123.508 177.64C123.428 178.467 123.348 179.253 123.268 180C123.215 180.747 123.188 181.267 123.188 181.56C123.188 182.227 123.308 182.707 123.548 183C123.788 183.267 124.055 183.453 124.348 183.56C124.668 183.667 124.948 183.747 125.188 183.8C125.428 183.853 125.548 183.987 125.548 184.2C125.548 184.787 125.468 185.387 125.308 186C125.148 186.613 124.881 187.173 124.508 187.68C124.161 188.187 123.668 188.6 123.028 188.92C122.415 189.24 121.655 189.4 120.748 189.4C119.468 189.4 118.508 189.093 117.868 188.48C117.228 187.867 116.801 187.013 116.588 185.92C115.948 186.853 115.108 187.667 114.068 188.36C113.055 189.053 111.721 189.4 110.068 189.4C109.268 189.4 108.508 189.307 107.788 189.12C107.095 188.933 106.481 188.627 105.948 188.2C105.441 187.773 105.028 187.227 104.708 186.56C104.415 185.867 104.268 185.04 104.268 184.08ZM116.708 179.52C116.015 179.52 115.335 179.573 114.668 179.68C114.001 179.787 113.401 179.96 112.868 180.2C112.361 180.413 111.948 180.707 111.628 181.08C111.308 181.453 111.148 181.907 111.148 182.44C111.148 183.053 111.335 183.48 111.708 183.72C112.108 183.96 112.535 184.08 112.988 184.08C113.415 184.08 113.841 183.987 114.268 183.8C114.695 183.613 115.068 183.333 115.388 182.96C115.735 182.56 116.028 182.08 116.268 181.52C116.508 180.96 116.655 180.293 116.708 179.52ZM136.855 183.92C137.175 182.8 137.468 181.693 137.735 180.6C138.028 179.507 138.308 178.347 138.575 177.12C138.868 175.867 139.175 174.507 139.495 173.04C139.841 171.547 140.241 169.853 140.695 167.96C140.775 167.587 140.895 167.347 141.055 167.24C141.215 167.107 141.561 167.04 142.095 167.04C142.495 167.04 143.028 167.053 143.695 167.08C144.361 167.107 145.015 167.2 145.655 167.36C146.295 167.52 146.841 167.76 147.295 168.08C147.775 168.4 148.015 168.84 148.015 169.4C148.015 169.853 147.855 170.587 147.535 171.6C147.215 172.613 146.801 173.773 146.295 175.08C145.788 176.36 145.215 177.707 144.575 179.12C143.961 180.533 143.361 181.867 142.775 183.12C142.188 184.373 141.641 185.48 141.135 186.44C140.628 187.373 140.255 188.027 140.015 188.4C139.801 188.693 139.615 188.867 139.455 188.92C139.295 188.973 139.028 189 138.655 189H135.095C134.535 189 134.068 188.907 133.695 188.72C133.348 188.507 133.055 188.24 132.815 187.92C132.575 187.6 132.375 187.24 132.215 186.84C132.055 186.413 131.908 185.973 131.775 185.52C131.001 182.853 130.321 180.573 129.735 178.68C129.175 176.76 128.695 175.16 128.295 173.88C127.895 172.6 127.575 171.587 127.335 170.84C127.095 170.067 126.908 169.48 126.775 169.08C126.641 168.653 126.548 168.373 126.495 168.24C126.441 168.08 126.415 167.973 126.415 167.92C126.441 167.733 126.575 167.533 126.815 167.32C127.055 167.107 127.361 167 127.735 167C128.961 167 130.001 167.053 130.855 167.16C131.735 167.24 132.455 167.4 133.015 167.64C133.601 167.88 134.041 168.213 134.335 168.64C134.655 169.067 134.881 169.627 135.015 170.32C135.041 170.507 135.095 170.88 135.175 171.44C135.255 172 135.335 172.68 135.415 173.48C135.521 174.253 135.641 175.12 135.775 176.08C135.908 177.013 136.028 177.96 136.135 178.92C136.268 179.853 136.388 180.76 136.495 181.64C136.628 182.52 136.748 183.28 136.855 183.92ZM159.005 189.4C157.832 189.4 156.658 189.253 155.485 188.96C154.338 188.667 153.298 188.16 152.365 187.44C151.458 186.72 150.712 185.76 150.125 184.56C149.538 183.36 149.245 181.853 149.245 180.04C149.245 179.373 149.298 178.573 149.405 177.64C149.512 176.707 149.712 175.747 150.005 174.76C150.325 173.773 150.752 172.8 151.285 171.84C151.845 170.853 152.565 169.973 153.445 169.2C154.325 168.427 155.392 167.8 156.645 167.32C157.898 166.84 159.392 166.6 161.125 166.6C162.512 166.6 163.685 166.76 164.645 167.08C165.605 167.4 166.378 167.84 166.965 168.4C167.552 168.933 167.978 169.56 168.245 170.28C168.512 171 168.645 171.773 168.645 172.6C168.645 173.827 168.392 174.867 167.885 175.72C167.405 176.573 166.765 177.293 165.965 177.88C165.192 178.44 164.325 178.88 163.365 179.2C162.405 179.52 161.458 179.773 160.525 179.96C159.592 180.12 158.725 180.227 157.925 180.28C157.152 180.307 156.552 180.32 156.125 180.32C156.125 180.827 156.192 181.333 156.325 181.84C156.485 182.32 156.712 182.747 157.005 183.12C157.298 183.493 157.685 183.8 158.165 184.04C158.645 184.28 159.232 184.4 159.925 184.4C160.618 184.4 161.152 184.293 161.525 184.08C161.925 183.84 162.245 183.587 162.485 183.32C162.725 183.027 162.925 182.773 163.085 182.56C163.272 182.32 163.512 182.2 163.805 182.2C163.938 182.2 164.165 182.24 164.485 182.32C164.832 182.373 165.178 182.507 165.525 182.72C165.872 182.933 166.178 183.227 166.445 183.6C166.712 183.973 166.845 184.453 166.845 185.04C166.845 185.813 166.605 186.48 166.125 187.04C165.645 187.6 165.018 188.053 164.245 188.4C163.498 188.747 162.658 189 161.725 189.16C160.792 189.32 159.885 189.4 159.005 189.4ZM159.765 171.92C159.178 171.92 158.672 172.093 158.245 172.44C157.845 172.76 157.498 173.173 157.205 173.68C156.938 174.187 156.725 174.747 156.565 175.36C156.432 175.973 156.325 176.56 156.245 177.12C157.898 177.093 159.232 176.813 160.245 176.28C161.285 175.747 161.805 174.987 161.805 174C161.805 173.467 161.632 172.987 161.285 172.56C160.965 172.133 160.458 171.92 159.765 171.92ZM180.374 166.6C182.641 166.6 184.307 167.053 185.374 167.96C186.441 168.84 186.974 169.973 186.974 171.36C186.974 172.533 186.601 173.427 185.854 174.04C185.134 174.653 184.081 174.96 182.694 174.96C182.321 174.96 182.067 174.92 181.934 174.84C181.801 174.76 181.734 174.613 181.734 174.4C181.734 174.16 181.707 173.893 181.654 173.6C181.627 173.28 181.534 172.987 181.374 172.72C181.241 172.427 181.014 172.187 180.694 172C180.401 171.813 179.974 171.72 179.414 171.72C178.667 171.72 178.067 171.907 177.614 172.28C177.161 172.627 176.934 173.067 176.934 173.6C176.934 174.16 177.161 174.613 177.614 174.96C178.094 175.28 178.681 175.587 179.374 175.88C180.094 176.173 180.867 176.48 181.694 176.8C182.521 177.093 183.281 177.493 183.974 178C184.694 178.507 185.281 179.147 185.734 179.92C186.214 180.667 186.454 181.64 186.454 182.84C186.454 184.76 185.774 186.333 184.414 187.56C183.054 188.787 181.014 189.4 178.294 189.4C177.547 189.4 176.681 189.333 175.694 189.2C174.734 189.093 173.814 188.92 172.934 188.68C172.054 188.413 171.307 188.067 170.694 187.64C170.107 187.213 169.814 186.68 169.814 186.04C169.814 185.8 169.854 185.507 169.934 185.16C170.041 184.813 170.187 184.48 170.374 184.16C170.587 183.84 170.827 183.573 171.094 183.36C171.387 183.12 171.734 183 172.134 183C172.454 183 172.747 183.08 173.014 183.24C173.281 183.4 173.587 183.573 173.934 183.76C174.307 183.92 174.761 184.08 175.294 184.24C175.827 184.4 176.534 184.48 177.414 184.48C178.081 184.48 178.667 184.4 179.174 184.24C179.707 184.08 179.974 183.72 179.974 183.16C179.974 182.653 179.761 182.253 179.334 181.96C178.907 181.64 178.361 181.347 177.694 181.08C177.054 180.813 176.347 180.533 175.574 180.24C174.827 179.92 174.121 179.507 173.454 179C172.814 178.493 172.281 177.853 171.854 177.08C171.427 176.28 171.214 175.253 171.214 174C171.214 172.64 171.481 171.493 172.014 170.56C172.574 169.6 173.281 168.827 174.134 168.24C175.014 167.653 176.001 167.24 177.094 167C178.187 166.733 179.281 166.6 180.374 166.6Z" fill="black"/>
<path d="M93.9985 78.2681C93.9985 77.1493 94.1746 76.1756 94.5268 75.3469C94.8789 74.5183 95.3451 73.8139 95.9252 73.2338C96.526 72.6537 97.1993 72.198 97.9451 71.8665C98.7116 71.5143 99.5092 71.2553 100.338 71.0896C100.379 70.7581 100.4 70.4163 100.4 70.0641C100.421 69.6912 100.452 69.3597 100.493 69.0697C100.555 68.7796 100.638 68.5414 100.742 68.3549C100.845 68.1685 101.001 68.0753 101.208 68.0753C102.244 68.0753 102.938 68.3342 103.29 68.8521C103.663 69.3494 103.849 70.0641 103.849 70.9964C105.3 71.2242 106.377 71.7422 107.081 72.5501C107.806 73.3374 108.169 74.3215 108.169 75.5023C108.169 76.6625 107.848 77.5533 107.206 78.1748C106.563 78.7756 105.641 79.076 104.44 79.076C104.067 79.076 103.829 79.0449 103.725 78.9828C103.622 78.8999 103.57 78.7446 103.57 78.5167C103.57 78.3095 103.549 78.0402 103.508 77.7087C103.487 77.3772 103.414 77.0561 103.29 76.7454C103.166 76.4346 102.969 76.1756 102.7 75.9685C102.43 75.7406 102.057 75.6266 101.581 75.6266C100.918 75.6266 100.328 75.8338 99.8096 76.2481C99.2917 76.6418 99.0327 77.1597 99.0327 77.8019C99.0327 78.3613 99.2399 78.8171 99.6542 79.1693C100.089 79.5214 100.628 79.8529 101.27 80.1637C101.912 80.4537 102.606 80.7541 103.352 81.0649C104.119 81.3756 104.823 81.79 105.465 82.3079C106.108 82.8051 106.636 83.437 107.05 84.2035C107.485 84.9493 107.703 85.9023 107.703 87.0625C107.703 88.7198 107.226 90.1389 106.273 91.3198C105.32 92.5007 103.891 93.2258 101.985 93.4951L101.736 95.8879C101.695 96.1365 101.633 96.3023 101.55 96.3852C101.488 96.468 101.322 96.5095 101.053 96.5095C100.535 96.5095 100.11 96.4369 99.7785 96.2919C99.4471 96.1676 99.1881 95.9708 99.0016 95.7015C98.8152 95.4529 98.6805 95.1318 98.5977 94.7381C98.5355 94.3652 98.5044 93.9302 98.5044 93.433C97.7172 93.3087 97.0024 93.1222 96.3602 92.8736C95.718 92.6043 95.169 92.3246 94.7132 92.0346C94.2574 91.7238 93.8949 91.4131 93.6256 91.1023C93.377 90.7708 93.2527 90.4601 93.2527 90.17C93.2527 88.8027 93.3252 87.8186 93.4702 87.2178C93.6359 86.617 93.926 86.3166 94.3403 86.3166C94.6303 86.3166 94.9307 86.4409 95.2415 86.6896C95.573 86.9382 95.9459 87.2178 96.3602 87.5286C96.7746 87.8394 97.251 88.119 97.7897 88.3676C98.3491 88.6162 98.9913 88.7405 99.7164 88.7405C100.006 88.7405 100.286 88.7198 100.555 88.6784C100.845 88.6162 101.094 88.523 101.301 88.3987C101.529 88.2744 101.705 88.1087 101.83 87.9015C101.975 87.6943 102.047 87.4457 102.047 87.1557C102.047 86.6378 101.85 86.2234 101.457 85.9127C101.063 85.6019 100.566 85.3222 99.965 85.0736C99.3642 84.8043 98.7116 84.535 98.0072 84.2657C97.3236 83.9756 96.6813 83.5923 96.0805 83.1159C95.4797 82.6186 94.9825 81.9868 94.5889 81.2202C94.1953 80.4537 93.9985 79.4696 93.9985 78.2681Z" fill="black"/>
</svg>
