<svg width="540" height="526" viewBox="0 0 540 526" fill="none" xmlns="http://www.w3.org/2000/svg">
<rect x="137" y="149" width="225" height="195" fill="white"/>
<path d="M74.4194 327.818C33.3187 248.658 79.5413 143.188 177.661 92.2434C275.78 41.2988 388.64 64.1719 429.741 143.332C470.841 222.492 424.619 327.962 326.499 378.907C228.38 429.852 115.52 406.978 74.4194 327.818ZM337.348 191.303C317.622 153.31 263.455 142.333 216.362 166.783C169.27 191.234 147.086 241.854 166.812 279.847C186.538 317.84 240.705 328.818 287.797 304.367C334.89 279.916 357.074 229.296 337.348 191.303Z" fill="#FFE3BD"/>
<path d="M411 259.5C411 259.5 420.36 283.385 422.5 289.5C442.507 303 437.995 277.477 442.507 268.776C445.154 263.671 447.902 258.601 450.312 253.366C453.209 247.072 454.449 240.803 455.695 234.025C458.059 221.173 455.695 208.553 455.695 195.5C455.695 181.678 455.873 168.12 450.084 155.577C444.474 143.422 434.7 132.698 425.359 123.275C459.313 75.4999 409.823 103.794 398.5 96.9999C392.522 91.2745 386.221 86.291 379.5 81.602L378.958 81.2235C358.024 66.617 334.096 49.9216 309.627 49.9216C290.731 49.9216 273.873 56.9999 255 56.9999C253.395 56.9999 234.883 55.2194 235.5 55.4999C218.5 66.9999 256 77.9999 256 77.9999C271 86.9999 281.5 92.9999 303.5 106C340 123.5 330.5 138.077 349 155.577C386.5 178.577 392 214.5 411 259.5Z" fill="#493B3B"/>
<path d="M79.1272 326.083C78.173 325.233 76.7658 323.662 75.3569 323.582C73.1746 323.639 70.1582 325.374 68.2947 326.418C66.9043 327.198 65.5536 328.265 64.0467 328.89C62.2404 330.44 61.1042 330.993 59.7419 332.138C58.0587 333.552 56.2123 333.402 55.3751 335.623C55.0603 336.458 56.0962 339.178 56.3365 340.139L56.3466 340.179C56.6316 341.319 56.9766 342.698 57.5242 343.724C58.0286 344.67 58.0902 345.728 58.5592 346.656C59.418 348.357 59.9917 350.212 60.9984 351.853C62.3678 354.085 63.7065 356.177 65.8553 357.779C69.3104 360.354 73.1968 362.596 77.2942 363.917C78.1425 364.191 78.339 364.541 79.1338 364.005C79.5368 363.733 80.1644 363.153 80.5754 362.921C82.2285 361.989 83.7122 360.805 85.3691 359.874C87.2485 358.817 88.9885 357.315 90.6219 355.905C93.0875 353.777 97.3802 349.517 97.8668 349.004C97.8668 349.004 98.2303 348.495 97.8415 348.045C96.8196 346.64 95.6501 345.285 94.5227 343.964C92.2071 341.252 89.807 338.668 87.6533 335.81C85.0319 332.331 82.3942 328.995 79.1272 326.083Z" fill="#FFE3BD"/>
<path d="M49.5 449L45.7 504.5C45.6333 505.5 45.2667 506 44.6 506H39.1C35.3667 506 32.7 505.267 31.1 503.8C29.5 502.333 28.7 500.233 28.7 497.5C28.7 496.5 28.7333 495 28.8 493C28.9333 491 29.1 488.667 29.3 486C29.5 483.267 29.7 480.333 29.9 477.2C30.1667 474 30.4333 470.8 30.7 467.6C30.9667 464.333 31.2 461.1 31.4 457.9C31.6667 454.7 31.9 451.733 32.1 449H16.1C15.3667 449 15 448.533 15 447.6L15.3 442C15.3667 441.133 15.5 440.3 15.7 439.5C15.9667 438.633 16.3667 437.867 16.9 437.2C17.4333 436.533 18.1 436 18.9 435.6C19.7667 435.2 20.8 435 22 435H66.7C67.1 435 67.4667 435.1 67.8 435.3C68.1333 435.5 68.3 435.867 68.3 436.4L67.9 442.3C67.7667 444.3 67.2 445.933 66.2 447.2C65.2667 448.4 63.3 449 60.3 449H49.5ZM80.7945 506C78.7279 506 77.0279 505.8 75.6945 505.4C74.4279 504.933 73.3945 504.3 72.5945 503.5C71.8612 502.7 71.3279 501.733 70.9945 500.6C70.7279 499.4 70.5945 498.033 70.5945 496.5C70.5945 495.5 70.6279 494.1 70.6945 492.3C70.8279 490.433 71.0279 487.9 71.2945 484.7C71.5612 481.433 71.8612 477.333 72.1945 472.4C72.5945 467.4 73.0612 461.233 73.5945 453.9C73.6612 452.433 73.8279 451.567 74.0945 451.3C74.2945 451.1 74.8279 451 75.6945 451H79.5945C81.6612 451 83.3279 451.2 84.5945 451.6C85.9279 452 86.9612 452.6 87.6945 453.4C88.4945 454.2 89.0279 455.167 89.2945 456.3C89.6279 457.433 89.7945 458.7 89.7945 460.1C89.7945 461.1 89.7279 462.6 89.5945 464.6C89.4612 466.6 89.2612 469.333 88.9945 472.8C88.7945 476.2 88.4945 480.467 88.0945 485.6C87.6945 490.667 87.1945 496.8 86.5945 504C86.5279 504.8 86.3612 505.333 86.0945 505.6C85.8279 505.867 85.2612 506 84.3945 506H80.7945ZM73.6945 439.2C73.6945 436.533 74.6612 434.433 76.5945 432.9C78.5279 431.367 81.1279 430.6 84.3945 430.6C87.2612 430.6 89.3279 431.2 90.5945 432.4C91.9279 433.533 92.5945 435.067 92.5945 437C92.5945 439.467 91.6612 441.533 89.7945 443.2C87.9945 444.8 85.3279 445.6 81.7945 445.6C76.3945 445.6 73.6945 443.467 73.6945 439.2ZM132.72 497.2C132.72 495.733 132.82 493.833 133.02 491.5C133.286 489.1 133.52 486.6 133.72 484C133.986 481.333 134.22 478.767 134.42 476.3C134.686 473.833 134.82 471.767 134.82 470.1C134.82 468.367 134.386 466.833 133.52 465.5C132.72 464.1 131.12 463.4 128.72 463.4C126.386 463.4 124.453 463.967 122.92 465.1C121.386 466.233 120.086 468.3 119.02 471.3C118.02 474.3 117.186 478.433 116.52 483.7C115.853 488.967 115.22 495.733 114.62 504C114.553 504.8 114.386 505.333 114.12 505.6C113.853 505.867 113.286 506 112.42 506H108.82C106.753 506 105.053 505.8 103.72 505.4C102.453 504.933 101.42 504.3 100.62 503.5C99.8862 502.7 99.3529 501.733 99.0195 500.6C98.7529 499.4 98.6195 498.033 98.6195 496.5C98.6195 495.5 98.6529 494.1 98.7195 492.3C98.8529 490.433 99.0529 487.9 99.3195 484.7C99.5862 481.433 99.8862 477.333 100.22 472.4C100.62 467.4 101.086 461.233 101.62 453.9C101.686 452.433 101.853 451.567 102.12 451.3C102.32 451.1 102.853 451 103.72 451H107.62C109.62 451 111.253 451.233 112.52 451.7C113.853 452.167 114.92 452.8 115.72 453.6C116.52 454.333 117.086 455.233 117.42 456.3C117.753 457.3 117.953 458.333 118.02 459.4C120.086 455.867 122.453 453.433 125.12 452.1C127.786 450.7 131.12 450 135.12 450C137.92 450 140.353 450.3 142.42 450.9C144.486 451.5 146.186 452.533 147.52 454C148.92 455.4 149.953 457.267 150.62 459.6C151.286 461.867 151.62 464.7 151.62 468.1C151.62 469.167 151.553 470.7 151.42 472.7C151.286 474.7 151.12 476.9 150.92 479.3C150.72 481.633 150.486 484.1 150.22 486.7C150.02 489.233 149.82 491.6 149.62 493.8C149.42 496 149.253 497.933 149.12 499.6C148.986 501.267 148.92 502.367 148.92 502.9C148.92 504.367 148.753 505.267 148.42 505.6C148.086 505.867 147.353 506 146.22 506H143.02C140.886 506 139.153 505.8 137.82 505.4C136.486 505 135.453 504.433 134.72 503.7C133.986 502.967 133.453 502.067 133.12 501C132.853 499.867 132.72 498.6 132.72 497.2ZM179.634 460.2C179.634 461.733 179.534 463.567 179.334 465.7C179.134 467.767 178.9 469.867 178.634 472C178.434 474.067 178.234 476.033 178.034 477.9C177.834 479.7 177.734 481.1 177.734 482.1C177.734 484.633 178.334 486.533 179.534 487.8C180.8 489 182.334 489.6 184.134 489.6C187.267 489.6 189.767 487.967 191.634 484.7C193.5 481.433 194.667 477.1 195.134 471.7L196.734 453C196.8 452.267 197.034 451.767 197.434 451.5C197.9 451.167 198.4 451 198.934 451H202.534C203.934 451 205.234 451.133 206.434 451.4C207.7 451.6 208.8 452.033 209.734 452.7C210.667 453.3 211.4 454.133 211.934 455.2C212.467 456.267 212.734 457.633 212.734 459.3C212.734 459.967 212.667 461.233 212.534 463.1C212.467 464.9 212.3 467.533 212.034 471C211.834 474.4 211.534 478.733 211.134 484C210.734 489.2 210.267 495.567 209.734 503.1C209.4 507.5 208.4 511.133 206.734 514C205.134 516.933 203.1 519.233 200.634 520.9C198.167 522.633 195.4 523.833 192.334 524.5C189.267 525.167 186.134 525.5 182.934 525.5C179.534 525.5 176.4 525.2 173.534 524.6C170.734 524 168.3 523.167 166.234 522.1C164.167 521.033 162.534 519.8 161.334 518.4C160.2 517 159.634 515.5 159.634 513.9C159.634 512.633 159.9 511.533 160.434 510.6C161.034 509.667 161.8 508.9 162.734 508.3C163.667 507.7 164.734 507.233 165.934 506.9C167.2 506.633 168.5 506.5 169.834 506.5C170.5 506.5 170.967 506.833 171.234 507.5C171.567 508.167 172.034 508.9 172.634 509.7C173.3 510.567 174.334 511.333 175.734 512C177.134 512.667 179.234 513 182.034 513C184.5 513 186.5 512.4 188.034 511.2C189.567 510 190.734 508.467 191.534 506.6C192.4 504.733 192.967 502.7 193.234 500.5C193.5 498.3 193.634 496.2 193.634 494.2C192.567 496.067 191.367 497.6 190.034 498.8C188.767 499.933 187.434 500.833 186.034 501.5C184.634 502.1 183.234 502.5 181.834 502.7C180.434 502.9 179.1 503 177.834 503C175.367 503 173.1 502.667 171.034 502C169.034 501.333 167.3 500.267 165.834 498.8C164.367 497.267 163.234 495.3 162.434 492.9C161.634 490.5 161.234 487.6 161.234 484.2C161.234 482.933 161.3 481.267 161.434 479.2C161.567 477.067 161.734 474.7 161.934 472.1C162.134 469.433 162.334 466.567 162.534 463.5C162.8 460.433 163.067 457.3 163.334 454.1C163.467 452.033 164.4 451 166.134 451H169.334C171.467 451 173.2 451.2 174.534 451.6C175.867 452 176.9 452.6 177.634 453.4C178.434 454.133 178.967 455.1 179.234 456.3C179.5 457.433 179.634 458.733 179.634 460.2ZM250.069 434C256.335 434 260.969 435.367 263.969 438.1C267.035 440.833 268.569 444.4 268.569 448.8C268.569 452.533 267.535 455.4 265.469 457.4C263.402 459.333 260.435 460.3 256.569 460.3C255.369 460.3 254.602 460.2 254.269 460C253.935 459.733 253.769 459.233 253.769 458.5C253.769 457.833 253.702 456.967 253.569 455.9C253.502 454.833 253.269 453.8 252.869 452.8C252.469 451.8 251.835 450.967 250.969 450.3C250.102 449.567 248.902 449.2 247.369 449.2C245.235 449.2 243.335 449.867 241.669 451.2C240.002 452.467 239.169 454.133 239.169 456.2C239.169 458 239.835 459.467 241.169 460.6C242.569 461.733 244.302 462.8 246.369 463.8C248.435 464.733 250.669 465.7 253.069 466.7C255.535 467.7 257.802 469.033 259.869 470.7C261.935 472.3 263.635 474.333 264.969 476.8C266.369 479.2 267.069 482.267 267.069 486C267.069 488.933 266.569 491.7 265.569 494.3C264.635 496.833 263.202 499.067 261.269 501C259.402 502.867 257.002 504.333 254.069 505.4C251.202 506.467 247.835 507 243.969 507C240.635 507 237.535 506.633 234.669 505.9C231.869 505.167 229.402 504.267 227.269 503.2C225.202 502.067 223.569 500.867 222.369 499.6C221.169 498.267 220.569 497.067 220.569 496C220.569 491.6 220.802 488.433 221.269 486.5C221.802 484.567 222.735 483.6 224.069 483.6C225.002 483.6 225.969 484 226.969 484.8C228.035 485.6 229.235 486.5 230.569 487.5C231.902 488.5 233.435 489.4 235.169 490.2C236.969 491 239.035 491.4 241.369 491.4C242.302 491.4 243.202 491.333 244.069 491.2C245.002 491 245.802 490.7 246.469 490.3C247.202 489.9 247.769 489.367 248.169 488.7C248.635 488.033 248.869 487.233 248.869 486.3C248.869 484.633 248.235 483.3 246.969 482.3C245.702 481.3 244.102 480.4 242.169 479.6C240.235 478.733 238.135 477.867 235.869 477C233.669 476.067 231.602 474.833 229.669 473.3C227.735 471.7 226.135 469.667 224.869 467.2C223.602 464.733 222.969 461.567 222.969 457.7C222.969 453.367 223.769 449.7 225.369 446.7C227.035 443.7 229.135 441.267 231.669 439.4C234.269 437.467 237.169 436.1 240.369 435.3C243.635 434.433 246.869 434 250.069 434ZM272.67 493.7C272.67 487.7 275.37 483 280.77 479.6C286.17 476.2 294.137 474.367 304.67 474.1C304.737 473.367 304.77 472.767 304.77 472.3C304.837 471.767 304.87 471.133 304.87 470.4C304.87 468.267 304.47 466.567 303.67 465.3C302.87 464.033 301.204 463.4 298.67 463.4C297.27 463.4 296.137 463.6 295.27 464C294.404 464.4 293.704 464.967 293.17 465.7C292.637 466.367 292.204 467.2 291.87 468.2C291.537 469.2 291.237 470.3 290.97 471.5C290.837 472.1 290.537 472.5 290.07 472.7C289.604 472.833 288.87 472.9 287.87 472.9C281.07 472.9 277.67 470.333 277.67 465.2C277.67 463.133 278.137 461.167 279.07 459.3C280.07 457.433 281.504 455.833 283.37 454.5C285.304 453.1 287.704 452 290.57 451.2C293.437 450.4 296.77 450 300.57 450C307.97 450 313.337 451.533 316.67 454.6C320.004 457.667 321.67 462 321.67 467.6C321.67 468.333 321.57 469.667 321.37 471.6C321.237 473.467 321.037 475.467 320.77 477.6C320.57 479.667 320.37 481.633 320.17 483.5C320.037 485.367 319.97 486.667 319.97 487.4C319.97 489.067 320.27 490.267 320.87 491C321.47 491.667 322.137 492.133 322.87 492.4C323.67 492.667 324.37 492.867 324.97 493C325.57 493.133 325.87 493.467 325.87 494C325.87 495.467 325.67 496.967 325.27 498.5C324.87 500.033 324.204 501.433 323.27 502.7C322.404 503.967 321.17 505 319.57 505.8C318.037 506.6 316.137 507 313.87 507C310.67 507 308.27 506.233 306.67 504.7C305.07 503.167 304.004 501.033 303.47 498.3C301.87 500.633 299.77 502.667 297.17 504.4C294.637 506.133 291.304 507 287.17 507C285.17 507 283.27 506.767 281.47 506.3C279.737 505.833 278.204 505.067 276.87 504C275.604 502.933 274.57 501.567 273.77 499.9C273.037 498.167 272.67 496.1 272.67 493.7ZM303.77 482.3C302.037 482.3 300.337 482.433 298.67 482.7C297.004 482.967 295.504 483.4 294.17 484C292.904 484.533 291.87 485.267 291.07 486.2C290.27 487.133 289.87 488.267 289.87 489.6C289.87 491.133 290.337 492.2 291.27 492.8C292.27 493.4 293.337 493.7 294.47 493.7C295.537 493.7 296.604 493.467 297.67 493C298.737 492.533 299.67 491.833 300.47 490.9C301.337 489.9 302.07 488.7 302.67 487.3C303.27 485.9 303.637 484.233 303.77 482.3ZM354.137 493.3C354.937 490.5 355.67 487.733 356.337 485C357.07 482.267 357.77 479.367 358.437 476.3C359.17 473.167 359.937 469.767 360.737 466.1C361.603 462.367 362.603 458.133 363.737 453.4C363.937 452.467 364.237 451.867 364.637 451.6C365.037 451.267 365.903 451.1 367.237 451.1C368.237 451.1 369.57 451.133 371.237 451.2C372.903 451.267 374.537 451.5 376.137 451.9C377.737 452.3 379.103 452.9 380.237 453.7C381.437 454.5 382.037 455.6 382.037 457C382.037 458.133 381.637 459.967 380.837 462.5C380.037 465.033 379.003 467.933 377.737 471.2C376.47 474.4 375.037 477.767 373.437 481.3C371.903 484.833 370.403 488.167 368.937 491.3C367.47 494.433 366.103 497.2 364.837 499.6C363.57 501.933 362.637 503.567 362.037 504.5C361.503 505.233 361.037 505.667 360.637 505.8C360.237 505.933 359.57 506 358.637 506H349.737C348.337 506 347.17 505.767 346.237 505.3C345.37 504.767 344.637 504.1 344.037 503.3C343.437 502.5 342.937 501.6 342.537 500.6C342.137 499.533 341.77 498.433 341.437 497.3C339.503 490.633 337.803 484.933 336.337 480.2C334.937 475.4 333.737 471.4 332.737 468.2C331.737 465 330.937 462.467 330.337 460.6C329.737 458.667 329.27 457.2 328.937 456.2C328.603 455.133 328.37 454.433 328.237 454.1C328.103 453.7 328.037 453.433 328.037 453.3C328.103 452.833 328.437 452.333 329.037 451.8C329.637 451.267 330.403 451 331.337 451C334.403 451 337.003 451.133 339.137 451.4C341.337 451.6 343.137 452 344.537 452.6C346.003 453.2 347.103 454.033 347.837 455.1C348.637 456.167 349.203 457.567 349.537 459.3C349.603 459.767 349.737 460.7 349.937 462.1C350.137 463.5 350.337 465.2 350.537 467.2C350.803 469.133 351.103 471.3 351.437 473.7C351.77 476.033 352.07 478.4 352.337 480.8C352.67 483.133 352.97 485.4 353.237 487.6C353.57 489.8 353.87 491.7 354.137 493.3ZM409.513 507C406.579 507 403.646 506.633 400.713 505.9C397.846 505.167 395.246 503.9 392.913 502.1C390.646 500.3 388.779 497.9 387.313 494.9C385.846 491.9 385.113 488.133 385.113 483.6C385.113 481.933 385.246 479.933 385.513 477.6C385.779 475.267 386.279 472.867 387.013 470.4C387.813 467.933 388.879 465.5 390.213 463.1C391.613 460.633 393.413 458.433 395.613 456.5C397.813 454.567 400.479 453 403.613 451.8C406.746 450.6 410.479 450 414.813 450C418.279 450 421.213 450.4 423.613 451.2C426.013 452 427.946 453.1 429.413 454.5C430.879 455.833 431.946 457.4 432.613 459.2C433.279 461 433.613 462.933 433.613 465C433.613 468.067 432.979 470.667 431.713 472.8C430.513 474.933 428.913 476.733 426.913 478.2C424.979 479.6 422.813 480.7 420.413 481.5C418.013 482.3 415.646 482.933 413.313 483.4C410.979 483.8 408.813 484.067 406.813 484.2C404.879 484.267 403.379 484.3 402.313 484.3C402.313 485.567 402.479 486.833 402.813 488.1C403.213 489.3 403.779 490.367 404.513 491.3C405.246 492.233 406.213 493 407.413 493.6C408.613 494.2 410.079 494.5 411.813 494.5C413.546 494.5 414.879 494.233 415.813 493.7C416.813 493.1 417.613 492.467 418.213 491.8C418.813 491.067 419.313 490.433 419.713 489.9C420.179 489.3 420.779 489 421.513 489C421.846 489 422.413 489.1 423.213 489.3C424.079 489.433 424.946 489.767 425.813 490.3C426.679 490.833 427.446 491.567 428.113 492.5C428.779 493.433 429.113 494.633 429.113 496.1C429.113 498.033 428.513 499.7 427.313 501.1C426.113 502.5 424.546 503.633 422.613 504.5C420.746 505.367 418.646 506 416.313 506.4C413.979 506.8 411.713 507 409.513 507ZM411.413 463.3C409.946 463.3 408.679 463.733 407.613 464.6C406.613 465.4 405.746 466.433 405.013 467.7C404.346 468.967 403.813 470.367 403.413 471.9C403.079 473.433 402.813 474.9 402.613 476.3C406.746 476.233 410.079 475.533 412.613 474.2C415.213 472.867 416.513 470.967 416.513 468.5C416.513 467.167 416.079 465.967 415.213 464.9C414.413 463.833 413.146 463.3 411.413 463.3ZM462.935 450C468.602 450 472.768 451.133 475.435 453.4C478.102 455.6 479.435 458.433 479.435 461.9C479.435 464.833 478.502 467.067 476.635 468.6C474.835 470.133 472.202 470.9 468.735 470.9C467.802 470.9 467.168 470.8 466.835 470.6C466.502 470.4 466.335 470.033 466.335 469.5C466.335 468.9 466.268 468.233 466.135 467.5C466.068 466.7 465.835 465.967 465.435 465.3C465.102 464.567 464.535 463.967 463.735 463.5C463.002 463.033 461.935 462.8 460.535 462.8C458.668 462.8 457.168 463.267 456.035 464.2C454.902 465.067 454.335 466.167 454.335 467.5C454.335 468.9 454.902 470.033 456.035 470.9C457.235 471.7 458.702 472.467 460.435 473.2C462.235 473.933 464.168 474.7 466.235 475.5C468.302 476.233 470.202 477.233 471.935 478.5C473.735 479.767 475.202 481.367 476.335 483.3C477.535 485.167 478.135 487.6 478.135 490.6C478.135 495.4 476.435 499.333 473.035 502.4C469.635 505.467 464.535 507 457.735 507C455.868 507 453.702 506.833 451.235 506.5C448.835 506.233 446.535 505.8 444.335 505.2C442.135 504.533 440.268 503.667 438.735 502.6C437.268 501.533 436.535 500.2 436.535 498.6C436.535 498 436.635 497.267 436.835 496.4C437.102 495.533 437.468 494.7 437.935 493.9C438.468 493.1 439.068 492.433 439.735 491.9C440.468 491.3 441.335 491 442.335 491C443.135 491 443.868 491.2 444.535 491.6C445.202 492 445.968 492.433 446.835 492.9C447.768 493.3 448.902 493.7 450.235 494.1C451.568 494.5 453.335 494.7 455.535 494.7C457.202 494.7 458.668 494.5 459.935 494.1C461.268 493.7 461.935 492.8 461.935 491.4C461.935 490.133 461.402 489.133 460.335 488.4C459.268 487.6 457.902 486.867 456.235 486.2C454.635 485.533 452.868 484.833 450.935 484.1C449.068 483.3 447.302 482.267 445.635 481C444.035 479.733 442.702 478.133 441.635 476.2C440.568 474.2 440.035 471.633 440.035 468.5C440.035 465.1 440.702 462.233 442.035 459.9C443.435 457.5 445.202 455.567 447.335 454.1C449.535 452.633 452.002 451.6 454.735 451C457.468 450.333 460.202 450 462.935 450Z" fill="black"/>
<path d="M233.32 224.53C233.32 221.29 233.83 218.47 234.85 216.07C235.87 213.67 237.22 211.63 238.9 209.95C240.64 208.27 242.59 206.95 244.75 205.99C246.97 204.97 249.28 204.22 251.68 203.74C251.8 202.78 251.86 201.79 251.86 200.77C251.92 199.69 252.01 198.73 252.13 197.89C252.31 197.05 252.55 196.36 252.85 195.82C253.15 195.28 253.6 195.01 254.2 195.01C257.2 195.01 259.21 195.76 260.23 197.26C261.31 198.7 261.85 200.77 261.85 203.47C266.05 204.13 269.17 205.63 271.21 207.97C273.31 210.25 274.36 213.1 274.36 216.52C274.36 219.88 273.43 222.46 271.57 224.26C269.71 226 267.04 226.87 263.56 226.87C262.48 226.87 261.79 226.78 261.49 226.6C261.19 226.36 261.04 225.91 261.04 225.25C261.04 224.65 260.98 223.87 260.86 222.91C260.8 221.95 260.59 221.02 260.23 220.12C259.87 219.22 259.3 218.47 258.52 217.87C257.74 217.21 256.66 216.88 255.28 216.88C253.36 216.88 251.65 217.48 250.15 218.68C248.65 219.82 247.9 221.32 247.9 223.18C247.9 224.8 248.5 226.12 249.7 227.14C250.96 228.16 252.52 229.12 254.38 230.02C256.24 230.86 258.25 231.73 260.41 232.63C262.63 233.53 264.67 234.73 266.53 236.23C268.39 237.67 269.92 239.5 271.12 241.72C272.38 243.88 273.01 246.64 273.01 250C273.01 254.8 271.63 258.91 268.87 262.33C266.11 265.75 261.97 267.85 256.45 268.63L255.73 275.56C255.61 276.28 255.43 276.76 255.19 277C255.01 277.24 254.53 277.36 253.75 277.36C252.25 277.36 251.02 277.15 250.06 276.73C249.1 276.37 248.35 275.8 247.81 275.02C247.27 274.3 246.88 273.37 246.64 272.23C246.46 271.15 246.37 269.89 246.37 268.45C244.09 268.09 242.02 267.55 240.16 266.83C238.3 266.05 236.71 265.24 235.39 264.4C234.07 263.5 233.02 262.6 232.24 261.7C231.52 260.74 231.16 259.84 231.16 259C231.16 255.04 231.37 252.19 231.79 250.45C232.27 248.71 233.11 247.84 234.31 247.84C235.15 247.84 236.02 248.2 236.92 248.92C237.88 249.64 238.96 250.45 240.16 251.35C241.36 252.25 242.74 253.06 244.3 253.78C245.92 254.5 247.78 254.86 249.88 254.86C250.72 254.86 251.53 254.8 252.31 254.68C253.15 254.5 253.87 254.23 254.47 253.87C255.13 253.51 255.64 253.03 256 252.43C256.42 251.83 256.63 251.11 256.63 250.27C256.63 248.77 256.06 247.57 254.92 246.67C253.78 245.77 252.34 244.96 250.6 244.24C248.86 243.46 246.97 242.68 244.93 241.9C242.95 241.06 241.09 239.95 239.35 238.57C237.61 237.13 236.17 235.3 235.03 233.08C233.89 230.86 233.32 228.01 233.32 224.53Z" fill="black"/>
</svg>
