<svg width="540" height="557" viewBox="0 0 540 557" fill="none" xmlns="http://www.w3.org/2000/svg">
<rect x="137" y="149" width="225" height="195" fill="white"/>
<path d="M74.4194 327.818C33.3187 248.658 79.5413 143.188 177.661 92.2433C275.78 41.2987 388.64 64.1718 429.741 143.332C470.841 222.492 424.619 327.962 326.499 378.907C228.38 429.851 115.52 406.978 74.4194 327.818ZM337.348 191.303C317.622 153.31 263.455 142.332 216.362 166.783C169.27 191.234 147.086 241.854 166.812 279.847C186.538 317.84 240.705 328.818 287.797 304.367C334.89 279.916 357.074 229.296 337.348 191.303Z" fill="#FFD295"/>
<path d="M399.658 270.149C399.658 270.149 406.361 311.355 415.506 308.833C424.652 306.311 422.938 306.754 436.704 301.839C446.103 296.299 452.773 298.418 456.218 292.597C460.359 285.599 461.102 285.978 466.5 282C473.5 270.149 487.5 268 491.5 245C494.072 230.214 482.441 195.375 477.746 179.857C473.197 164.818 463.782 150.893 454.664 138.557C499.498 87.0616 440.045 113.564 428.334 104.046C422.456 96.5091 412.805 76.6026 403.766 69.8953C397.625 61.359 363.554 21.9383 336.661 17.6836C290.957 10.4526 298.843 22.01 279.082 25.1618C272.313 25.0086 269.83 36.4661 257.099 50.2362C242.444 66.0868 252.44 70.2187 252.44 70.2187C255.362 73.6773 288.069 93.0004 308.256 113.924C338.764 152.785 329.758 147.152 344.989 171.453C374.5 218.535 384.798 214.714 399.658 270.149Z" fill="#493B3B"/>
<path d="M79.1272 326.083C78.173 325.233 76.7658 323.661 75.3569 323.582C73.1746 323.639 70.1582 325.374 68.2947 326.418C66.9043 327.198 65.5536 328.265 64.0467 328.89C62.2404 330.44 61.1042 330.993 59.7419 332.138C58.0587 333.552 56.2123 333.402 55.3751 335.623C55.0603 336.458 56.0962 339.178 56.3365 340.139L56.3466 340.179C56.6316 341.319 56.9766 342.698 57.5242 343.724C58.0286 344.67 58.0902 345.728 58.5592 346.656C59.418 348.357 59.9917 350.212 60.9984 351.853C62.3678 354.085 63.7065 356.177 65.8553 357.779C69.3104 360.354 73.1968 362.596 77.2942 363.917C78.1425 364.191 78.339 364.541 79.1338 364.005C79.5368 363.733 80.1644 363.153 80.5754 362.921C82.2285 361.989 83.7122 360.805 85.3691 359.874C87.2485 358.817 88.9885 357.315 90.6219 355.905C93.0875 353.776 97.3802 349.517 97.8668 349.004C97.8668 349.004 98.2303 348.495 97.8415 348.045C96.8196 346.64 95.6501 345.285 94.5227 343.964C92.2071 341.252 89.807 338.668 87.6533 335.809C85.0319 332.331 82.3942 328.994 79.1272 326.083Z" fill="#FFD295"/>
<path d="M49.5 480L45.7 535.5C45.6333 536.5 45.2667 537 44.6 537H39.1C35.3667 537 32.7 536.267 31.1 534.8C29.5 533.333 28.7 531.233 28.7 528.5C28.7 527.5 28.7333 526 28.8 524C28.9333 522 29.1 519.667 29.3 517C29.5 514.267 29.7 511.333 29.9 508.2C30.1667 505 30.4333 501.8 30.7 498.6C30.9667 495.333 31.2 492.1 31.4 488.9C31.6667 485.7 31.9 482.733 32.1 480H16.1C15.3667 480 15 479.533 15 478.6L15.3 473C15.3667 472.133 15.5 471.3 15.7 470.5C15.9667 469.633 16.3667 468.867 16.9 468.2C17.4333 467.533 18.1 467 18.9 466.6C19.7667 466.2 20.8 466 22 466H66.7C67.1 466 67.4667 466.1 67.8 466.3C68.1333 466.5 68.3 466.867 68.3 467.4L67.9 473.3C67.7667 475.3 67.2 476.933 66.2 478.2C65.2667 479.4 63.3 480 60.3 480H49.5ZM80.7945 537C78.7279 537 77.0279 536.8 75.6945 536.4C74.4279 535.933 73.3945 535.3 72.5945 534.5C71.8612 533.7 71.3279 532.733 70.9945 531.6C70.7279 530.4 70.5945 529.033 70.5945 527.5C70.5945 526.5 70.6279 525.1 70.6945 523.3C70.8279 521.433 71.0279 518.9 71.2945 515.7C71.5612 512.433 71.8612 508.333 72.1945 503.4C72.5945 498.4 73.0612 492.233 73.5945 484.9C73.6612 483.433 73.8279 482.567 74.0945 482.3C74.2945 482.1 74.8279 482 75.6945 482H79.5945C81.6612 482 83.3279 482.2 84.5945 482.6C85.9279 483 86.9612 483.6 87.6945 484.4C88.4945 485.2 89.0279 486.167 89.2945 487.3C89.6279 488.433 89.7945 489.7 89.7945 491.1C89.7945 492.1 89.7279 493.6 89.5945 495.6C89.4612 497.6 89.2612 500.333 88.9945 503.8C88.7945 507.2 88.4945 511.467 88.0945 516.6C87.6945 521.667 87.1945 527.8 86.5945 535C86.5279 535.8 86.3612 536.333 86.0945 536.6C85.8279 536.867 85.2612 537 84.3945 537H80.7945ZM73.6945 470.2C73.6945 467.533 74.6612 465.433 76.5945 463.9C78.5279 462.367 81.1279 461.6 84.3945 461.6C87.2612 461.6 89.3279 462.2 90.5945 463.4C91.9279 464.533 92.5945 466.067 92.5945 468C92.5945 470.467 91.6612 472.533 89.7945 474.2C87.9945 475.8 85.3279 476.6 81.7945 476.6C76.3945 476.6 73.6945 474.467 73.6945 470.2ZM132.72 528.2C132.72 526.733 132.82 524.833 133.02 522.5C133.286 520.1 133.52 517.6 133.72 515C133.986 512.333 134.22 509.767 134.42 507.3C134.686 504.833 134.82 502.767 134.82 501.1C134.82 499.367 134.386 497.833 133.52 496.5C132.72 495.1 131.12 494.4 128.72 494.4C126.386 494.4 124.453 494.967 122.92 496.1C121.386 497.233 120.086 499.3 119.02 502.3C118.02 505.3 117.186 509.433 116.52 514.7C115.853 519.967 115.22 526.733 114.62 535C114.553 535.8 114.386 536.333 114.12 536.6C113.853 536.867 113.286 537 112.42 537H108.82C106.753 537 105.053 536.8 103.72 536.4C102.453 535.933 101.42 535.3 100.62 534.5C99.8862 533.7 99.3529 532.733 99.0195 531.6C98.7529 530.4 98.6195 529.033 98.6195 527.5C98.6195 526.5 98.6529 525.1 98.7195 523.3C98.8529 521.433 99.0529 518.9 99.3195 515.7C99.5862 512.433 99.8862 508.333 100.22 503.4C100.62 498.4 101.086 492.233 101.62 484.9C101.686 483.433 101.853 482.567 102.12 482.3C102.32 482.1 102.853 482 103.72 482H107.62C109.62 482 111.253 482.233 112.52 482.7C113.853 483.167 114.92 483.8 115.72 484.6C116.52 485.333 117.086 486.233 117.42 487.3C117.753 488.3 117.953 489.333 118.02 490.4C120.086 486.867 122.453 484.433 125.12 483.1C127.786 481.7 131.12 481 135.12 481C137.92 481 140.353 481.3 142.42 481.9C144.486 482.5 146.186 483.533 147.52 485C148.92 486.4 149.953 488.267 150.62 490.6C151.286 492.867 151.62 495.7 151.62 499.1C151.62 500.167 151.553 501.7 151.42 503.7C151.286 505.7 151.12 507.9 150.92 510.3C150.72 512.633 150.486 515.1 150.22 517.7C150.02 520.233 149.82 522.6 149.62 524.8C149.42 527 149.253 528.933 149.12 530.6C148.986 532.267 148.92 533.367 148.92 533.9C148.92 535.367 148.753 536.267 148.42 536.6C148.086 536.867 147.353 537 146.22 537H143.02C140.886 537 139.153 536.8 137.82 536.4C136.486 536 135.453 535.433 134.72 534.7C133.986 533.967 133.453 533.067 133.12 532C132.853 530.867 132.72 529.6 132.72 528.2ZM179.634 491.2C179.634 492.733 179.534 494.567 179.334 496.7C179.134 498.767 178.9 500.867 178.634 503C178.434 505.067 178.234 507.033 178.034 508.9C177.834 510.7 177.734 512.1 177.734 513.1C177.734 515.633 178.334 517.533 179.534 518.8C180.8 520 182.334 520.6 184.134 520.6C187.267 520.6 189.767 518.967 191.634 515.7C193.5 512.433 194.667 508.1 195.134 502.7L196.734 484C196.8 483.267 197.034 482.767 197.434 482.5C197.9 482.167 198.4 482 198.934 482H202.534C203.934 482 205.234 482.133 206.434 482.4C207.7 482.6 208.8 483.033 209.734 483.7C210.667 484.3 211.4 485.133 211.934 486.2C212.467 487.267 212.734 488.633 212.734 490.3C212.734 490.967 212.667 492.233 212.534 494.1C212.467 495.9 212.3 498.533 212.034 502C211.834 505.4 211.534 509.733 211.134 515C210.734 520.2 210.267 526.567 209.734 534.1C209.4 538.5 208.4 542.133 206.734 545C205.134 547.933 203.1 550.233 200.634 551.9C198.167 553.633 195.4 554.833 192.334 555.5C189.267 556.167 186.134 556.5 182.934 556.5C179.534 556.5 176.4 556.2 173.534 555.6C170.734 555 168.3 554.167 166.234 553.1C164.167 552.033 162.534 550.8 161.334 549.4C160.2 548 159.634 546.5 159.634 544.9C159.634 543.633 159.9 542.533 160.434 541.6C161.034 540.667 161.8 539.9 162.734 539.3C163.667 538.7 164.734 538.233 165.934 537.9C167.2 537.633 168.5 537.5 169.834 537.5C170.5 537.5 170.967 537.833 171.234 538.5C171.567 539.167 172.034 539.9 172.634 540.7C173.3 541.567 174.334 542.333 175.734 543C177.134 543.667 179.234 544 182.034 544C184.5 544 186.5 543.4 188.034 542.2C189.567 541 190.734 539.467 191.534 537.6C192.4 535.733 192.967 533.7 193.234 531.5C193.5 529.3 193.634 527.2 193.634 525.2C192.567 527.067 191.367 528.6 190.034 529.8C188.767 530.933 187.434 531.833 186.034 532.5C184.634 533.1 183.234 533.5 181.834 533.7C180.434 533.9 179.1 534 177.834 534C175.367 534 173.1 533.667 171.034 533C169.034 532.333 167.3 531.267 165.834 529.8C164.367 528.267 163.234 526.3 162.434 523.9C161.634 521.5 161.234 518.6 161.234 515.2C161.234 513.933 161.3 512.267 161.434 510.2C161.567 508.067 161.734 505.7 161.934 503.1C162.134 500.433 162.334 497.567 162.534 494.5C162.8 491.433 163.067 488.3 163.334 485.1C163.467 483.033 164.4 482 166.134 482H169.334C171.467 482 173.2 482.2 174.534 482.6C175.867 483 176.9 483.6 177.634 484.4C178.434 485.133 178.967 486.1 179.234 487.3C179.5 488.433 179.634 489.733 179.634 491.2ZM250.069 465C256.335 465 260.969 466.367 263.969 469.1C267.035 471.833 268.569 475.4 268.569 479.8C268.569 483.533 267.535 486.4 265.469 488.4C263.402 490.333 260.435 491.3 256.569 491.3C255.369 491.3 254.602 491.2 254.269 491C253.935 490.733 253.769 490.233 253.769 489.5C253.769 488.833 253.702 487.967 253.569 486.9C253.502 485.833 253.269 484.8 252.869 483.8C252.469 482.8 251.835 481.967 250.969 481.3C250.102 480.567 248.902 480.2 247.369 480.2C245.235 480.2 243.335 480.867 241.669 482.2C240.002 483.467 239.169 485.133 239.169 487.2C239.169 489 239.835 490.467 241.169 491.6C242.569 492.733 244.302 493.8 246.369 494.8C248.435 495.733 250.669 496.7 253.069 497.7C255.535 498.7 257.802 500.033 259.869 501.7C261.935 503.3 263.635 505.333 264.969 507.8C266.369 510.2 267.069 513.267 267.069 517C267.069 519.933 266.569 522.7 265.569 525.3C264.635 527.833 263.202 530.067 261.269 532C259.402 533.867 257.002 535.333 254.069 536.4C251.202 537.467 247.835 538 243.969 538C240.635 538 237.535 537.633 234.669 536.9C231.869 536.167 229.402 535.267 227.269 534.2C225.202 533.067 223.569 531.867 222.369 530.6C221.169 529.267 220.569 528.067 220.569 527C220.569 522.6 220.802 519.433 221.269 517.5C221.802 515.567 222.735 514.6 224.069 514.6C225.002 514.6 225.969 515 226.969 515.8C228.035 516.6 229.235 517.5 230.569 518.5C231.902 519.5 233.435 520.4 235.169 521.2C236.969 522 239.035 522.4 241.369 522.4C242.302 522.4 243.202 522.333 244.069 522.2C245.002 522 245.802 521.7 246.469 521.3C247.202 520.9 247.769 520.367 248.169 519.7C248.635 519.033 248.869 518.233 248.869 517.3C248.869 515.633 248.235 514.3 246.969 513.3C245.702 512.3 244.102 511.4 242.169 510.6C240.235 509.733 238.135 508.867 235.869 508C233.669 507.067 231.602 505.833 229.669 504.3C227.735 502.7 226.135 500.667 224.869 498.2C223.602 495.733 222.969 492.567 222.969 488.7C222.969 484.367 223.769 480.7 225.369 477.7C227.035 474.7 229.135 472.267 231.669 470.4C234.269 468.467 237.169 467.1 240.369 466.3C243.635 465.433 246.869 465 250.069 465ZM272.67 524.7C272.67 518.7 275.37 514 280.77 510.6C286.17 507.2 294.137 505.367 304.67 505.1C304.737 504.367 304.77 503.767 304.77 503.3C304.837 502.767 304.87 502.133 304.87 501.4C304.87 499.267 304.47 497.567 303.67 496.3C302.87 495.033 301.204 494.4 298.67 494.4C297.27 494.4 296.137 494.6 295.27 495C294.404 495.4 293.704 495.967 293.17 496.7C292.637 497.367 292.204 498.2 291.87 499.2C291.537 500.2 291.237 501.3 290.97 502.5C290.837 503.1 290.537 503.5 290.07 503.7C289.604 503.833 288.87 503.9 287.87 503.9C281.07 503.9 277.67 501.333 277.67 496.2C277.67 494.133 278.137 492.167 279.07 490.3C280.07 488.433 281.504 486.833 283.37 485.5C285.304 484.1 287.704 483 290.57 482.2C293.437 481.4 296.77 481 300.57 481C307.97 481 313.337 482.533 316.67 485.6C320.004 488.667 321.67 493 321.67 498.6C321.67 499.333 321.57 500.667 321.37 502.6C321.237 504.467 321.037 506.467 320.77 508.6C320.57 510.667 320.37 512.633 320.17 514.5C320.037 516.367 319.97 517.667 319.97 518.4C319.97 520.067 320.27 521.267 320.87 522C321.47 522.667 322.137 523.133 322.87 523.4C323.67 523.667 324.37 523.867 324.97 524C325.57 524.133 325.87 524.467 325.87 525C325.87 526.467 325.67 527.967 325.27 529.5C324.87 531.033 324.204 532.433 323.27 533.7C322.404 534.967 321.17 536 319.57 536.8C318.037 537.6 316.137 538 313.87 538C310.67 538 308.27 537.233 306.67 535.7C305.07 534.167 304.004 532.033 303.47 529.3C301.87 531.633 299.77 533.667 297.17 535.4C294.637 537.133 291.304 538 287.17 538C285.17 538 283.27 537.767 281.47 537.3C279.737 536.833 278.204 536.067 276.87 535C275.604 533.933 274.57 532.567 273.77 530.9C273.037 529.167 272.67 527.1 272.67 524.7ZM303.77 513.3C302.037 513.3 300.337 513.433 298.67 513.7C297.004 513.967 295.504 514.4 294.17 515C292.904 515.533 291.87 516.267 291.07 517.2C290.27 518.133 289.87 519.267 289.87 520.6C289.87 522.133 290.337 523.2 291.27 523.8C292.27 524.4 293.337 524.7 294.47 524.7C295.537 524.7 296.604 524.467 297.67 524C298.737 523.533 299.67 522.833 300.47 521.9C301.337 520.9 302.07 519.7 302.67 518.3C303.27 516.9 303.637 515.233 303.77 513.3ZM354.137 524.3C354.937 521.5 355.67 518.733 356.337 516C357.07 513.267 357.77 510.367 358.437 507.3C359.17 504.167 359.937 500.767 360.737 497.1C361.603 493.367 362.603 489.133 363.737 484.4C363.937 483.467 364.237 482.867 364.637 482.6C365.037 482.267 365.903 482.1 367.237 482.1C368.237 482.1 369.57 482.133 371.237 482.2C372.903 482.267 374.537 482.5 376.137 482.9C377.737 483.3 379.103 483.9 380.237 484.7C381.437 485.5 382.037 486.6 382.037 488C382.037 489.133 381.637 490.967 380.837 493.5C380.037 496.033 379.003 498.933 377.737 502.2C376.47 505.4 375.037 508.767 373.437 512.3C371.903 515.833 370.403 519.167 368.937 522.3C367.47 525.433 366.103 528.2 364.837 530.6C363.57 532.933 362.637 534.567 362.037 535.5C361.503 536.233 361.037 536.667 360.637 536.8C360.237 536.933 359.57 537 358.637 537H349.737C348.337 537 347.17 536.767 346.237 536.3C345.37 535.767 344.637 535.1 344.037 534.3C343.437 533.5 342.937 532.6 342.537 531.6C342.137 530.533 341.77 529.433 341.437 528.3C339.503 521.633 337.803 515.933 336.337 511.2C334.937 506.4 333.737 502.4 332.737 499.2C331.737 496 330.937 493.467 330.337 491.6C329.737 489.667 329.27 488.2 328.937 487.2C328.603 486.133 328.37 485.433 328.237 485.1C328.103 484.7 328.037 484.433 328.037 484.3C328.103 483.833 328.437 483.333 329.037 482.8C329.637 482.267 330.403 482 331.337 482C334.403 482 337.003 482.133 339.137 482.4C341.337 482.6 343.137 483 344.537 483.6C346.003 484.2 347.103 485.033 347.837 486.1C348.637 487.167 349.203 488.567 349.537 490.3C349.603 490.767 349.737 491.7 349.937 493.1C350.137 494.5 350.337 496.2 350.537 498.2C350.803 500.133 351.103 502.3 351.437 504.7C351.77 507.033 352.07 509.4 352.337 511.8C352.67 514.133 352.97 516.4 353.237 518.6C353.57 520.8 353.87 522.7 354.137 524.3ZM409.513 538C406.579 538 403.646 537.633 400.713 536.9C397.846 536.167 395.246 534.9 392.913 533.1C390.646 531.3 388.779 528.9 387.313 525.9C385.846 522.9 385.113 519.133 385.113 514.6C385.113 512.933 385.246 510.933 385.513 508.6C385.779 506.267 386.279 503.867 387.013 501.4C387.813 498.933 388.879 496.5 390.213 494.1C391.613 491.633 393.413 489.433 395.613 487.5C397.813 485.567 400.479 484 403.613 482.8C406.746 481.6 410.479 481 414.813 481C418.279 481 421.213 481.4 423.613 482.2C426.013 483 427.946 484.1 429.413 485.5C430.879 486.833 431.946 488.4 432.613 490.2C433.279 492 433.613 493.933 433.613 496C433.613 499.067 432.979 501.667 431.713 503.8C430.513 505.933 428.913 507.733 426.913 509.2C424.979 510.6 422.813 511.7 420.413 512.5C418.013 513.3 415.646 513.933 413.313 514.4C410.979 514.8 408.813 515.067 406.813 515.2C404.879 515.267 403.379 515.3 402.313 515.3C402.313 516.567 402.479 517.833 402.813 519.1C403.213 520.3 403.779 521.367 404.513 522.3C405.246 523.233 406.213 524 407.413 524.6C408.613 525.2 410.079 525.5 411.813 525.5C413.546 525.5 414.879 525.233 415.813 524.7C416.813 524.1 417.613 523.467 418.213 522.8C418.813 522.067 419.313 521.433 419.713 520.9C420.179 520.3 420.779 520 421.513 520C421.846 520 422.413 520.1 423.213 520.3C424.079 520.433 424.946 520.767 425.813 521.3C426.679 521.833 427.446 522.567 428.113 523.5C428.779 524.433 429.113 525.633 429.113 527.1C429.113 529.033 428.513 530.7 427.313 532.1C426.113 533.5 424.546 534.633 422.613 535.5C420.746 536.367 418.646 537 416.313 537.4C413.979 537.8 411.713 538 409.513 538ZM411.413 494.3C409.946 494.3 408.679 494.733 407.613 495.6C406.613 496.4 405.746 497.433 405.013 498.7C404.346 499.967 403.813 501.367 403.413 502.9C403.079 504.433 402.813 505.9 402.613 507.3C406.746 507.233 410.079 506.533 412.613 505.2C415.213 503.867 416.513 501.967 416.513 499.5C416.513 498.167 416.079 496.967 415.213 495.9C414.413 494.833 413.146 494.3 411.413 494.3ZM462.935 481C468.602 481 472.768 482.133 475.435 484.4C478.102 486.6 479.435 489.433 479.435 492.9C479.435 495.833 478.502 498.067 476.635 499.6C474.835 501.133 472.202 501.9 468.735 501.9C467.802 501.9 467.168 501.8 466.835 501.6C466.502 501.4 466.335 501.033 466.335 500.5C466.335 499.9 466.268 499.233 466.135 498.5C466.068 497.7 465.835 496.967 465.435 496.3C465.102 495.567 464.535 494.967 463.735 494.5C463.002 494.033 461.935 493.8 460.535 493.8C458.668 493.8 457.168 494.267 456.035 495.2C454.902 496.067 454.335 497.167 454.335 498.5C454.335 499.9 454.902 501.033 456.035 501.9C457.235 502.7 458.702 503.467 460.435 504.2C462.235 504.933 464.168 505.7 466.235 506.5C468.302 507.233 470.202 508.233 471.935 509.5C473.735 510.767 475.202 512.367 476.335 514.3C477.535 516.167 478.135 518.6 478.135 521.6C478.135 526.4 476.435 530.333 473.035 533.4C469.635 536.467 464.535 538 457.735 538C455.868 538 453.702 537.833 451.235 537.5C448.835 537.233 446.535 536.8 444.335 536.2C442.135 535.533 440.268 534.667 438.735 533.6C437.268 532.533 436.535 531.2 436.535 529.6C436.535 529 436.635 528.267 436.835 527.4C437.102 526.533 437.468 525.7 437.935 524.9C438.468 524.1 439.068 523.433 439.735 522.9C440.468 522.3 441.335 522 442.335 522C443.135 522 443.868 522.2 444.535 522.6C445.202 523 445.968 523.433 446.835 523.9C447.768 524.3 448.902 524.7 450.235 525.1C451.568 525.5 453.335 525.7 455.535 525.7C457.202 525.7 458.668 525.5 459.935 525.1C461.268 524.7 461.935 523.8 461.935 522.4C461.935 521.133 461.402 520.133 460.335 519.4C459.268 518.6 457.902 517.867 456.235 517.2C454.635 516.533 452.868 515.833 450.935 515.1C449.068 514.3 447.302 513.267 445.635 512C444.035 510.733 442.702 509.133 441.635 507.2C440.568 505.2 440.035 502.633 440.035 499.5C440.035 496.1 440.702 493.233 442.035 490.9C443.435 488.5 445.202 486.567 447.335 485.1C449.535 483.633 452.002 482.6 454.735 482C457.468 481.333 460.202 481 462.935 481Z" fill="black"/>
<path d="M233.32 224.53C233.32 221.29 233.83 218.47 234.85 216.07C235.87 213.67 237.22 211.63 238.9 209.95C240.64 208.27 242.59 206.95 244.75 205.99C246.97 204.97 249.28 204.22 251.68 203.74C251.8 202.78 251.86 201.79 251.86 200.77C251.92 199.69 252.01 198.73 252.13 197.89C252.31 197.05 252.55 196.36 252.85 195.82C253.15 195.28 253.6 195.01 254.2 195.01C257.2 195.01 259.21 195.76 260.23 197.26C261.31 198.7 261.85 200.77 261.85 203.47C266.05 204.13 269.17 205.63 271.21 207.97C273.31 210.25 274.36 213.1 274.36 216.52C274.36 219.88 273.43 222.46 271.57 224.26C269.71 226 267.04 226.87 263.56 226.87C262.48 226.87 261.79 226.78 261.49 226.6C261.19 226.36 261.04 225.91 261.04 225.25C261.04 224.65 260.98 223.87 260.86 222.91C260.8 221.95 260.59 221.02 260.23 220.12C259.87 219.22 259.3 218.47 258.52 217.87C257.74 217.21 256.66 216.88 255.28 216.88C253.36 216.88 251.65 217.48 250.15 218.68C248.65 219.82 247.9 221.32 247.9 223.18C247.9 224.8 248.5 226.12 249.7 227.14C250.96 228.16 252.52 229.12 254.38 230.02C256.24 230.86 258.25 231.73 260.41 232.63C262.63 233.53 264.67 234.73 266.53 236.23C268.39 237.67 269.92 239.5 271.12 241.72C272.38 243.88 273.01 246.64 273.01 250C273.01 254.8 271.63 258.91 268.87 262.33C266.11 265.75 261.97 267.85 256.45 268.63L255.73 275.56C255.61 276.28 255.43 276.76 255.19 277C255.01 277.24 254.53 277.36 253.75 277.36C252.25 277.36 251.02 277.15 250.06 276.73C249.1 276.37 248.35 275.8 247.81 275.02C247.27 274.3 246.88 273.37 246.64 272.23C246.46 271.15 246.37 269.89 246.37 268.45C244.09 268.09 242.02 267.55 240.16 266.83C238.3 266.05 236.71 265.24 235.39 264.4C234.07 263.5 233.02 262.6 232.24 261.7C231.52 260.74 231.16 259.84 231.16 259C231.16 255.04 231.37 252.19 231.79 250.45C232.27 248.71 233.11 247.84 234.31 247.84C235.15 247.84 236.02 248.2 236.92 248.92C237.88 249.64 238.96 250.45 240.16 251.35C241.36 252.25 242.74 253.06 244.3 253.78C245.92 254.5 247.78 254.86 249.88 254.86C250.72 254.86 251.53 254.8 252.31 254.68C253.15 254.5 253.87 254.23 254.47 253.87C255.13 253.51 255.64 253.03 256 252.43C256.42 251.83 256.63 251.11 256.63 250.27C256.63 248.77 256.06 247.57 254.92 246.67C253.78 245.77 252.34 244.96 250.6 244.24C248.86 243.46 246.97 242.68 244.93 241.9C242.95 241.06 241.09 239.95 239.35 238.57C237.61 237.13 236.17 235.3 235.03 233.08C233.89 230.86 233.32 228.01 233.32 224.53Z" fill="black"/>
</svg>
