<svg width="1092" height="1221" viewBox="0 0 1092 1221" fill="none" xmlns="http://www.w3.org/2000/svg">
<ellipse cx="583.5" cy="781.5" rx="508.5" ry="439.5" fill="#FCCF77"/>
<path d="M684.378 771.744L398.973 221.742L900.649 191.068L684.378 771.744Z" fill="#FCCF77"/>
<path d="M535.4 712.1C535.4 701.3 537.1 691.9 540.5 683.9C543.9 675.9 548.4 669.1 554 663.5C559.8 657.9 566.3 653.5 573.5 650.3C580.9 646.9 588.6 644.4 596.6 642.8C597 639.6 597.2 636.3 597.2 632.9C597.4 629.3 597.7 626.1 598.1 623.3C598.7 620.5 599.5 618.2 600.5 616.4C601.5 614.6 603 613.7 605 613.7C615 613.7 621.7 616.2 625.1 621.2C628.7 626 630.5 632.9 630.5 641.9C644.5 644.1 654.9 649.1 661.7 656.9C668.7 664.5 672.2 674 672.2 685.4C672.2 696.6 669.1 705.2 662.9 711.2C656.7 717 647.8 719.9 636.2 719.9C632.6 719.9 630.3 719.6 629.3 719C628.3 718.2 627.8 716.7 627.8 714.5C627.8 712.5 627.6 709.9 627.2 706.7C627 703.5 626.3 700.4 625.1 697.4C623.9 694.4 622 691.9 619.4 689.9C616.8 687.7 613.2 686.6 608.6 686.6C602.2 686.6 596.5 688.6 591.5 692.6C586.5 696.4 584 701.4 584 707.6C584 713 586 717.4 590 720.8C594.2 724.2 599.4 727.4 605.6 730.4C611.8 733.2 618.5 736.1 625.7 739.1C633.1 742.1 639.9 746.1 646.1 751.1C652.3 755.9 657.4 762 661.4 769.4C665.6 776.6 667.7 785.8 667.7 797C667.7 813 663.1 826.7 653.9 838.1C644.7 849.5 630.9 856.5 612.5 859.1L610.1 882.2C609.7 884.6 609.1 886.2 608.3 887C607.7 887.8 606.1 888.2 603.5 888.2C598.5 888.2 594.4 887.5 591.2 886.1C588 884.9 585.5 883 583.7 880.4C581.9 878 580.6 874.9 579.8 871.1C579.2 867.5 578.9 863.3 578.9 858.5C571.3 857.3 564.4 855.5 558.2 853.1C552 850.5 546.7 847.8 542.3 845C537.9 842 534.4 839 531.8 836C529.4 832.8 528.2 829.8 528.2 827C528.2 813.8 528.9 804.3 530.3 798.5C531.9 792.7 534.7 789.8 538.7 789.8C541.5 789.8 544.4 791 547.4 793.4C550.6 795.8 554.2 798.5 558.2 801.5C562.2 804.5 566.8 807.2 572 809.6C577.4 812 583.6 813.2 590.6 813.2C593.4 813.2 596.1 813 598.7 812.6C601.5 812 603.9 811.1 605.9 809.9C608.1 808.7 609.8 807.1 611 805.1C612.4 803.1 613.1 800.7 613.1 797.9C613.1 792.9 611.2 788.9 607.4 785.9C603.6 782.9 598.8 780.2 593 777.8C587.2 775.2 580.9 772.6 574.1 770C567.5 767.2 561.3 763.5 555.5 758.9C549.7 754.1 544.9 748 541.1 740.6C537.3 733.2 535.4 723.7 535.4 712.1Z" fill="black"/>
<ellipse cx="174.5" cy="327" rx="99.5" ry="68" transform="rotate(-17.9919 174.5 327)" fill="#FFED4B"/>
<ellipse cx="113.442" cy="657.725" rx="99.5" ry="58.6303" transform="rotate(-41.3127 113.442 657.725)" fill="#FFED4B"/>
<path d="M210.94 1131.6C170.942 1122.35 148.559 1071.45 160.945 1017.91C173.332 964.37 215.798 928.47 255.795 937.724C295.793 946.978 318.176 997.881 305.79 1051.42C293.403 1104.96 250.937 1140.86 210.94 1131.6Z" fill="#FFED4B"/>
</svg>
