<svg width="245" height="246" viewBox="0 0 245 246" fill="none" xmlns="http://www.w3.org/2000/svg">
<ellipse cx="122.5" cy="123" rx="122.5" ry="123" fill="#FFC9BB"/>
<path d="M115.08 160.216C118.664 160.216 121.224 161.112 122.76 162.904C124.296 164.611 125.064 167.043 125.064 170.2C125.064 171.565 124.893 173.059 124.552 174.68C124.211 176.301 123.571 177.837 122.632 179.288C121.779 180.653 120.499 181.848 118.792 182.872C117.171 183.811 115.037 184.28 112.392 184.28C108.552 184.28 105.949 183.299 104.584 181.336C103.219 179.288 102.536 176.771 102.536 173.784C102.536 172.077 102.749 170.413 103.176 168.792C103.603 167.171 104.285 165.72 105.224 164.44C106.163 163.16 107.443 162.136 109.064 161.368C110.685 160.6 112.691 160.216 115.08 160.216ZM124.68 148.696C124.083 149.891 123.571 150.616 123.144 150.872C122.717 151.128 122.163 151.256 121.48 151.256H116.872C113.544 151.256 111.155 150.573 109.704 149.208C108.253 147.757 107.528 146.008 107.528 143.96C107.528 141.997 108.04 140.12 109.064 138.328C110.173 136.451 111.539 134.659 113.16 132.952C114.781 131.245 116.488 129.581 118.28 127.96C120.157 126.253 121.907 124.589 123.528 122.968C125.149 121.261 126.472 119.555 127.496 117.848C128.605 116.056 129.16 114.179 129.16 112.216C129.16 110.168 128.477 108.291 127.112 106.584C125.832 104.792 123.699 103.896 120.712 103.896C118.408 103.896 116.531 104.365 115.08 105.304C113.715 106.243 112.605 107.437 111.752 108.888C110.899 110.339 110.259 111.96 109.832 113.752C109.405 115.459 109.021 117.165 108.68 118.872C108.509 119.811 108.211 120.451 107.784 120.792C107.443 121.048 106.504 121.176 104.968 121.176C99.7627 121.176 96.0507 120.28 93.832 118.488C91.6987 116.611 90.632 113.752 90.632 109.912C90.632 105.901 91.5707 102.445 93.448 99.544C95.4107 96.6427 97.928 94.2533 101 92.376C104.157 90.4987 107.699 89.1333 111.624 88.28C115.635 87.3413 119.688 86.872 123.784 86.872C128.648 86.872 132.787 87.512 136.2 88.792C139.699 89.9867 142.557 91.6507 144.776 93.784C146.995 95.832 148.616 98.264 149.64 101.08C150.749 103.811 151.304 106.669 151.304 109.656C151.304 114.179 150.195 118.189 147.976 121.688C145.757 125.187 143.155 128.429 140.168 131.416C137.181 134.403 134.195 137.261 131.208 139.992C128.307 142.723 126.131 145.624 124.68 148.696Z" fill="black"/>
</svg>
