<svg width="158" height="148" viewBox="0 0 158 148" fill="none" xmlns="http://www.w3.org/2000/svg">
<path d="M76.319 2.33719C77.4264 0.132593 80.5733 0.132594 81.6807 2.33719L103.571 45.9174C104.012 46.7954 104.855 47.4018 105.827 47.5407L154.687 54.5166C157.164 54.8702 158.145 57.9223 156.338 59.653L121.051 93.4494C120.329 94.141 119.998 95.1469 120.17 96.1319L128.51 143.906C128.936 146.349 126.381 148.226 124.178 147.087L80.3767 124.461C79.513 124.015 78.4867 124.015 77.623 124.461L33.8222 147.087C31.6182 148.226 29.0635 146.349 29.49 143.906L37.8293 96.1319C38.0013 95.1469 37.6712 94.141 36.9491 93.4494L1.66206 59.653C-0.144994 57.9223 0.836055 54.8702 3.3131 54.5166L52.1723 47.5407C53.145 47.4018 53.9881 46.7954 54.4291 45.9174L76.319 2.33719Z" fill="#FFB31B"/>
</svg>
