<svg width="1080" height="1080" version="1.1" xmlns="http://www.w3.org/2000/svg" desc="Created with imagetracer.js version 1.2.6" ><path fill="rgb(245,245,246)" stroke="rgb(245,245,246)" stroke-width="1" opacity="1" d="M 416.5 364 L 421.5 365 L 425.5 364 L 427.5 365 L 428.5 364 L 462.5 364 L 462.5 365 L 405.5 366 L 396.5 368 L 380.5 368 L 380.5 367 L 389.5 367 L 398.5 365 L 415.5 365 L 416.5 364 Z " /><path fill="rgb(245,245,246)" stroke="rgb(245,245,246)" stroke-width="1" opacity="1" d="M 468.5 364 L 528.5 364 L 529.5 365 L 546.5 365 L 547.5 366 L 549.5 365 L 550.5 366 L 564.5 366 L 565.5 367 L 578 367.5 L 564.5 368 L 562.5 367 L 560.5 368 L 559.5 367 L 546.5 367 L 545.5 366 L 468.5 365 L 468.5 364 Z " /><path fill="rgb(245,245,246)" stroke="rgb(245,245,246)" stroke-width="1" opacity="1" d="M 579.5 367 L 582 368.5 L 579 369 L 579.5 367 Z " /><path fill="rgb(245,245,246)" stroke="rgb(245,245,246)" stroke-width="1" opacity="1" d="M 364.5 368 L 378 368.5 L 359.5 370 L 358.5 371 L 347.5 371 L 347.5 370 L 355.5 370 L 364.5 368 Z " /><path fill="rgb(245,245,246)" stroke="rgb(245,245,246)" stroke-width="1" opacity="1" d="M 584.5 368 Q 598.8 366.2 607.5 370 L 609.5 369 L 618 370.5 L 606.5 371 L 595.5 369 L 584.5 369 L 584.5 368 Z " /><path fill="rgb(245,245,246)" stroke="rgb(245,245,246)" stroke-width="1" opacity="1" d="M 336.5 371 L 346 371.5 Q 336.8 371.3 330.5 374 L 328.5 374 L 321.5 374 L 310.5 377 L 308.5 377 L 288.5 380 L 267.5 386 Q 253.7 390.2 246 400.5 L 241 410.5 L 238 425.5 L 238 457.5 L 241 471.5 L 246 481 L 248 481.5 L 248 489.5 L 249 490.5 L 249 504.5 L 248 504.5 L 247 482.5 L 240 472.5 L 239 465.5 L 237 461.5 L 237 422.5 L 240 409.5 Q 243.5 400 250.5 394 L 263.5 386 L 283.5 380 L 293.5 379 L 312.5 374 L 335.5 372 L 336.5 371 Z " /><path fill="rgb(245,245,246)" stroke="rgb(245,245,246)" stroke-width="1" opacity="1" d="M 621.5 371 L 633.5 371 L 641.5 373 L 651 373 L 650.5 375 L 640.5 373 L 621.5 372 L 621.5 371 Z " /><path fill="rgb(245,245,246)" stroke="rgb(245,245,246)" stroke-width="1" opacity="1" d="M 804.5 372 L 817.5 374 Q 824.9 376.1 829 381.5 Q 837.5 390.5 841 404.5 L 843 415.5 L 844 436.5 L 842 445.5 L 841 462.5 L 835.5 480 L 835 477.5 L 838 469.5 L 841 452.5 L 841 445.5 L 842 444.5 L 842 420.5 L 842 418.5 L 840 405.5 L 835 391.5 L 823.5 378 L 813.5 374 L 798.5 374 L 793.5 375 L 783.5 380 L 754.5 405 L 737.5 395 Q 728.5 393.5 722.5 389 L 702 383.5 L 705.5 383 L 733.5 392 L 755.5 404 Q 768.6 388.1 786.5 377 L 796.5 373 Q 802.7 374.8 804.5 372 Z " /><path fill="rgb(245,245,246)" stroke="rgb(245,245,246)" stroke-width="1" opacity="1" d="M 652 373 L 654.5 374 L 662.5 374 L 668.5 376 L 674.5 376 L 701 382.5 L 697.5 383 L 693.5 381 L 688.5 381 L 673.5 377 L 671.5 377 L 667.5 376 L 665.5 376 L 652 375 L 652 373 Z " /><path fill="rgb(245,245,246)" stroke="rgb(245,245,246)" stroke-width="1" opacity="1" d="M 423.5 394 L 506 394.5 L 423.5 395 L 423.5 394 Z " /><path fill="rgb(245,245,246)" stroke="rgb(245,245,246)" stroke-width="1" opacity="1" d="M 410.5 395 L 420 395.5 L 410.5 396 L 410.5 395 Z " /><path fill="rgb(245,245,246)" stroke="rgb(245,245,246)" stroke-width="1" opacity="1" d="M 509.5 395 L 518 395.5 L 509.5 396 L 509.5 395 Z " /><path fill="rgb(245,245,246)" stroke="rgb(245,245,246)" stroke-width="1" opacity="1" d="M 395.5 396 L 405 396.5 L 395.5 397 L 395.5 396 Z " /><path fill="rgb(245,245,246)" stroke="rgb(245,245,246)" stroke-width="1" opacity="1" d="M 522.5 396 L 530 396.5 L 522.5 397 L 522.5 396 Z " /><path fill="rgb(245,245,246)" stroke="rgb(245,245,246)" stroke-width="1" opacity="1" d="M 381.5 397 L 390 397.5 L 381.5 398 L 381.5 397 Z " /><path fill="rgb(245,245,246)" stroke="rgb(245,245,246)" stroke-width="1" opacity="1" d="M 532.5 397 L 540 397.5 L 532.5 398 L 532.5 397 Z " /><path fill="rgb(245,245,246)" stroke="rgb(245,245,246)" stroke-width="1" opacity="1" d="M 372.5 398 L 379 398.5 L 372.5 399 L 372.5 398 Z " /><path fill="rgb(245,245,246)" stroke="rgb(245,245,246)" stroke-width="1" opacity="1" d="M 541.5 398 L 546 398.5 L 541.5 399 L 541.5 398 Z " /><path fill="rgb(245,245,246)" stroke="rgb(245,245,246)" stroke-width="1" opacity="1" d="M 362.5 399 L 370 399.5 L 362.5 400 L 362.5 399 Z " /><path fill="rgb(245,245,246)" stroke="rgb(245,245,246)" stroke-width="1" opacity="1" d="M 548.5 399 L 553 399.5 L 548.5 400 L 548.5 399 Z " /><path fill="rgb(245,245,246)" stroke="rgb(245,245,246)" stroke-width="1" opacity="1" d="M 354.5 400 L 360 400.5 L 354.5 401 L 354.5 400 Z " /><path fill="rgb(245,245,246)" stroke="rgb(245,245,246)" stroke-width="1" opacity="1" d="M 554.5 400 L 562 401.5 L 559.5 402 L 554.5 401 L 554.5 400 Z " /><path fill="rgb(245,245,246)" stroke="rgb(245,245,246)" stroke-width="1" opacity="1" d="M 348.5 401 L 352 401.5 L 348.5 402 L 348.5 401 Z " /><path fill="rgb(245,245,246)" stroke="rgb(245,245,246)" stroke-width="1" opacity="1" d="M 341.5 402 L 346 402.5 L 341.5 403 L 341.5 402 Z " /><path fill="rgb(245,245,246)" stroke="rgb(245,245,246)" stroke-width="1" opacity="1" d="M 563.5 402 L 567 402.5 L 563.5 403 L 563.5 402 Z " /><path fill="rgb(245,245,246)" stroke="rgb(245,245,246)" stroke-width="1" opacity="1" d="M 334.5 403 L 339 403.5 L 334.5 404 L 334.5 403 Z " /><path fill="rgb(245,245,246)" stroke="rgb(245,245,246)" stroke-width="1" opacity="1" d="M 568.5 403 L 571 403.5 L 568.5 404 L 568.5 403 Z " /><path fill="rgb(245,245,246)" stroke="rgb(245,245,246)" stroke-width="1" opacity="1" d="M 329.5 404 L 332 404.5 L 329.5 405 L 329.5 404 Z " /><path fill="rgb(245,245,246)" stroke="rgb(245,245,246)" stroke-width="1" opacity="1" d="M 322.5 405 L 327 405.5 L 322.5 406 L 322.5 405 Z " /><path fill="rgb(245,245,246)" stroke="rgb(245,245,246)" stroke-width="1" opacity="1" d="M 575.5 405 L 581 406.5 L 578.5 407 L 575.5 406 L 575.5 405 Z " /><path fill="rgb(245,245,246)" stroke="rgb(245,245,246)" stroke-width="1" opacity="1" d="M 317.5 406 L 321 406.5 L 317.5 407 L 317.5 406 Z " /><path fill="rgb(245,245,246)" stroke="rgb(245,245,246)" stroke-width="1" opacity="1" d="M 312.5 407 L 316 407.5 L 312.5 408 L 312.5 407 Z " /><path fill="rgb(245,245,246)" stroke="rgb(245,245,246)" stroke-width="1" opacity="1" d="M 306.5 408 L 310 408.5 L 306.5 409 L 306.5 408 Z " /><path fill="rgb(245,245,246)" stroke="rgb(245,245,246)" stroke-width="1" opacity="1" d="M 301.5 409 L 305 409.5 L 301.5 410 L 301.5 409 Z " /><path fill="rgb(245,245,246)" stroke="rgb(245,245,246)" stroke-width="1" opacity="1" d="M 588.5 409 L 611 417.5 L 609.5 418 L 588.5 410 L 588.5 409 Z " /><path fill="rgb(245,245,246)" stroke="rgb(245,245,246)" stroke-width="1" opacity="1" d="M 801.5 409 L 803 409.5 L 800.5 411 L 801.5 409 Z " /><path fill="rgb(245,245,246)" stroke="rgb(245,245,246)" stroke-width="1" opacity="1" d="M 804.5 410 L 809 413.5 L 808.5 415 L 805.5 411 L 804.5 410 Z " /><path fill="rgb(245,245,246)" stroke="rgb(245,245,246)" stroke-width="1" opacity="1" d="M 292 411 L 295.5 412 L 310 412.5 L 292 413 L 292 411 Z " /><path fill="rgb(245,245,246)" stroke="rgb(245,245,246)" stroke-width="1" opacity="1" d="M 488.5 412 L 499 412.5 L 488.5 413 L 488.5 412 Z " /><path fill="rgb(245,245,246)" stroke="rgb(245,245,246)" stroke-width="1" opacity="1" d="M 506.5 412 L 515 412.5 L 506.5 413 L 506.5 412 Z " /><path fill="rgb(245,245,246)" stroke="rgb(245,245,246)" stroke-width="1" opacity="1" d="M 312.5 413 L 323 413.5 L 312.5 414 L 312.5 413 Z " /><path fill="rgb(245,245,246)" stroke="rgb(245,245,246)" stroke-width="1" opacity="1" d="M 482.5 413 L 487 413.5 L 482.5 414 L 482.5 413 Z " /><path fill="rgb(245,245,246)" stroke="rgb(245,245,246)" stroke-width="1" opacity="1" d="M 516.5 413 L 524 413.5 L 516.5 414 L 516.5 413 Z " /><path fill="rgb(245,245,246)" stroke="rgb(245,245,246)" stroke-width="1" opacity="1" d="M 327.5 414 L 331 414.5 L 327.5 415 L 327.5 414 Z " /><path fill="rgb(245,245,246)" stroke="rgb(245,245,246)" stroke-width="1" opacity="1" d="M 527.5 414 L 530 414.5 L 527.5 415 L 527.5 414 Z " /><path fill="rgb(245,245,246)" stroke="rgb(245,245,246)" stroke-width="1" opacity="1" d="M 796.5 414 L 777.5 434 L 796.5 414 Z " /><path fill="rgb(245,245,246)" stroke="rgb(245,245,246)" stroke-width="1" opacity="1" d="M 281.5 415 L 306 415.5 L 281.5 416 L 281.5 415 Z " /><path fill="rgb(245,245,246)" stroke="rgb(245,245,246)" stroke-width="1" opacity="1" d="M 334.5 415 L 344 416.5 L 338.5 417 L 334.5 416 L 334.5 415 Z " /><path fill="rgb(245,245,246)" stroke="rgb(245,245,246)" stroke-width="1" opacity="1" d="M 532.5 415 L 536 415.5 L 532.5 416 L 532.5 415 Z " /><path fill="rgb(245,245,246)" stroke="rgb(245,245,246)" stroke-width="1" opacity="1" d="M 273.5 416 L 279 416.5 L 273.5 417 L 273.5 416 Z " /><path fill="rgb(245,245,246)" stroke="rgb(245,245,246)" stroke-width="1" opacity="1" d="M 309.5 416 L 316 416.5 L 309.5 417 L 309.5 416 Z " /><path fill="rgb(245,245,246)" stroke="rgb(245,245,246)" stroke-width="1" opacity="1" d="M 537.5 416 L 542 416.5 L 537.5 417 L 537.5 416 Z " /><path fill="rgb(245,245,246)" stroke="rgb(245,245,246)" stroke-width="1" opacity="1" d="M 809.5 416 L 811 420.5 L 810 420.5 L 809.5 416 Z " /><path fill="rgb(245,245,246)" stroke="rgb(245,245,246)" stroke-width="1" opacity="1" d="M 320.5 417 L 328 417.5 L 320.5 418 L 320.5 417 Z " /><path fill="rgb(245,245,246)" stroke="rgb(245,245,246)" stroke-width="1" opacity="1" d="M 543.5 417 L 546 417.5 L 543.5 418 L 543.5 417 Z " /><path fill="rgb(245,245,246)" stroke="rgb(245,245,246)" stroke-width="1" opacity="1" d="M 329.5 418 L 335 418.5 L 329.5 419 L 329.5 418 Z " /><path fill="rgb(245,245,246)" stroke="rgb(245,245,246)" stroke-width="1" opacity="1" d="M 349.5 418 L 358 419.5 L 353.5 420 L 349.5 419 L 349.5 418 Z " /><path fill="rgb(245,245,246)" stroke="rgb(245,245,246)" stroke-width="1" opacity="1" d="M 547.5 418 L 554 419.5 L 550.5 420 L 547.5 419 L 547.5 418 Z " /><path fill="rgb(245,245,246)" stroke="rgb(245,245,246)" stroke-width="1" opacity="1" d="M 612.5 418 L 640 430.5 L 638.5 431 L 612.5 419 L 612.5 418 Z " /><path fill="rgb(245,245,246)" stroke="rgb(245,245,246)" stroke-width="1" opacity="1" d="M 337.5 419 L 340 419.5 L 337.5 420 L 337.5 419 Z " /><path fill="rgb(245,245,246)" stroke="rgb(245,245,246)" stroke-width="1" opacity="1" d="M 342.5 420 L 346 420.5 L 342.5 421 L 342.5 420 Z " /><path fill="rgb(245,245,246)" stroke="rgb(245,245,246)" stroke-width="1" opacity="1" d="M 347.5 421 L 351 421.5 L 347.5 422 L 347.5 421 Z " /><path fill="rgb(245,245,246)" stroke="rgb(245,245,246)" stroke-width="1" opacity="1" d="M 362.5 421 L 369 422.5 L 366.5 423 L 362.5 422 L 362.5 421 Z " /><path fill="rgb(245,245,246)" stroke="rgb(245,245,246)" stroke-width="1" opacity="1" d="M 459.5 421 L 461 421.5 L 456.5 423 L 456.5 422 L 459.5 421 Z " /><path fill="rgb(245,245,246)" stroke="rgb(245,245,246)" stroke-width="1" opacity="1" d="M 558.5 421 L 563 422.5 L 560.5 423 L 558.5 421 Z " /><path fill="rgb(245,245,246)" stroke="rgb(245,245,246)" stroke-width="1" opacity="1" d="M 352.5 422 L 355 422.5 L 352.5 423 L 352.5 422 Z " /><path fill="rgb(245,245,246)" stroke="rgb(245,245,246)" stroke-width="1" opacity="1" d="M 811.5 422 L 812 442.5 L 811 442.5 L 811.5 422 Z " /><path fill="rgb(245,245,246)" stroke="rgb(245,245,246)" stroke-width="1" opacity="1" d="M 356.5 423 L 360 423.5 L 356.5 424 L 356.5 423 Z " /><path fill="rgb(245,245,246)" stroke="rgb(245,245,246)" stroke-width="1" opacity="1" d="M 371.5 423 L 374 423.5 L 371.5 424 L 371.5 423 Z " /><path fill="rgb(245,245,246)" stroke="rgb(245,245,246)" stroke-width="1" opacity="1" d="M 267.5 424 L 268 428.5 L 267 428.5 L 267.5 424 Z " /><path fill="rgb(245,245,246)" stroke="rgb(245,245,246)" stroke-width="1" opacity="1" d="M 361.5 424 L 364 424.5 L 361.5 425 L 361.5 424 Z " /><path fill="rgb(245,245,246)" stroke="rgb(245,245,246)" stroke-width="1" opacity="1" d="M 375.5 424 L 381 424.5 L 375.5 425 L 375.5 424 Z " /><path fill="rgb(245,245,246)" stroke="rgb(245,245,246)" stroke-width="1" opacity="1" d="M 447.5 424 L 451 424.5 L 447.5 425 L 447.5 424 Z " /><path fill="rgb(245,245,246)" stroke="rgb(245,245,246)" stroke-width="1" opacity="1" d="M 567.5 424 L 571 425.5 L 569.5 426 L 567.5 424 Z " /><path fill="rgb(245,245,246)" stroke="rgb(245,245,246)" stroke-width="1" opacity="1" d="M 365.5 425 L 368 425.5 L 365.5 426 L 365.5 425 Z " /><path fill="rgb(245,245,246)" stroke="rgb(245,245,246)" stroke-width="1" opacity="1" d="M 382.5 425 L 445 425.5 L 382.5 426 L 382.5 425 Z " /><path fill="rgb(245,245,246)" stroke="rgb(245,245,246)" stroke-width="1" opacity="1" d="M 369.5 426 L 372 426.5 L 369.5 427 L 369.5 426 Z " /><path fill="rgb(245,245,246)" stroke="rgb(245,245,246)" stroke-width="1" opacity="1" d="M 373.5 427 L 376 427.5 L 373.5 428 L 373.5 427 Z " /><path fill="rgb(245,245,246)" stroke="rgb(245,245,246)" stroke-width="1" opacity="1" d="M 574.5 427 L 579 429.5 L 577.5 429 Q 573.7 429.5 574.5 427 Z " /><path fill="rgb(245,245,246)" stroke="rgb(245,245,246)" stroke-width="1" opacity="1" d="M 380.5 429 L 388 431.5 L 386.5 432 L 380.5 430 L 380.5 429 Z " /><path fill="rgb(245,245,246)" stroke="rgb(245,245,246)" stroke-width="1" opacity="1" d="M 580.5 430 L 585 432.5 L 583.5 432 Q 579.7 431.7 580.5 430 Z " /><path fill="rgb(245,245,246)" stroke="rgb(245,245,246)" stroke-width="1" opacity="1" d="M 266.5 431 L 267 443.5 L 266 443.5 L 266.5 431 Z " /><path fill="rgb(245,245,246)" stroke="rgb(245,245,246)" stroke-width="1" opacity="1" d="M 641.5 431 L 651 437.5 L 652 440.5 L 651 440.5 L 648.5 436 L 642.5 433 L 641.5 431 Z " /><path fill="rgb(245,245,246)" stroke="rgb(245,245,246)" stroke-width="1" opacity="1" d="M 392.5 433 L 396 434.5 L 394.5 435 L 392.5 433 Z " /><path fill="rgb(245,245,246)" stroke="rgb(245,245,246)" stroke-width="1" opacity="1" d="M 586.5 433 L 594 437.5 L 592.5 438 L 587.5 435 L 586.5 433 Z " /><path fill="rgb(245,245,246)" stroke="rgb(245,245,246)" stroke-width="1" opacity="1" d="M 397.5 435 L 406 438.5 L 404.5 439 L 397.5 436 L 397.5 435 Z " /><path fill="rgb(245,245,246)" stroke="rgb(245,245,246)" stroke-width="1" opacity="1" d="M 775.5 435 L 774.5 437 L 775.5 435 Z " /><path fill="rgb(245,245,246)" stroke="rgb(245,245,246)" stroke-width="1" opacity="1" d="M 595.5 438 L 600 441.5 L 598.5 441 L 595.5 438 Z " /><path fill="rgb(245,245,246)" stroke="rgb(245,245,246)" stroke-width="1" opacity="1" d="M 772.5 438 L 772 439.5 L 770.5 442 Q 768.3 441.3 769 443.5 L 756.5 455 L 757.5 453 Q 759.8 453.8 759 451.5 L 762 450 L 763.5 447 Q 765.8 447.8 765 445.5 L 768 444 L 769.5 441 Q 771.8 441.8 771 439.5 L 772.5 438 Z " /><path fill="rgb(245,245,246)" stroke="rgb(245,245,246)" stroke-width="1" opacity="1" d="M 407.5 439 L 410 440.5 L 408.5 440 L 407.5 439 Z " /><path fill="rgb(245,245,246)" stroke="rgb(245,245,246)" stroke-width="1" opacity="1" d="M 411.5 441 L 415 442.5 L 413.5 443 L 411.5 441 Z " /><path fill="rgb(245,245,246)" stroke="rgb(245,245,246)" stroke-width="1" opacity="1" d="M 601.5 442 L 605 444.5 L 603.5 444 L 601.5 442 Z " /><path fill="rgb(245,245,246)" stroke="rgb(245,245,246)" stroke-width="1" opacity="1" d="M 416.5 443 L 423 446.5 L 421.5 446 Q 416.5 445.9 416.5 443 Z " /><path fill="rgb(245,245,246)" stroke="rgb(245,245,246)" stroke-width="1" opacity="1" d="M 810.5 444 L 811 447.5 L 810 447.5 L 810.5 444 Z " /><path fill="rgb(245,245,246)" stroke="rgb(245,245,246)" stroke-width="1" opacity="1" d="M 606.5 445 L 609 446.5 L 607.5 447 L 606.5 445 Z " /><path fill="rgb(245,245,246)" stroke="rgb(245,245,246)" stroke-width="1" opacity="1" d="M 267.5 447 L 268 451.5 L 267 451.5 L 267.5 447 Z " /><path fill="rgb(245,245,246)" stroke="rgb(245,245,246)" stroke-width="1" opacity="1" d="M 424.5 447 L 429 449.5 L 427.5 449 Q 423.8 448.8 424.5 447 Z " /><path fill="rgb(245,245,246)" stroke="rgb(245,245,246)" stroke-width="1" opacity="1" d="M 610.5 447 L 614 449.5 L 612.5 450 L 610.5 447 Z " /><path fill="rgb(245,245,246)" stroke="rgb(245,245,246)" stroke-width="1" opacity="1" d="M 650.5 448 L 646.5 453 L 650.5 448 Z " /><path fill="rgb(245,245,246)" stroke="rgb(245,245,246)" stroke-width="1" opacity="1" d="M 809.5 449 L 810 451.5 L 809 451.5 L 809.5 449 Z " /><path fill="rgb(245,245,246)" stroke="rgb(245,245,246)" stroke-width="1" opacity="1" d="M 430.5 450 L 435 452.5 L 433.5 452 Q 429.7 451.7 430.5 450 Z " /><path fill="rgb(245,245,246)" stroke="rgb(245,245,246)" stroke-width="1" opacity="1" d="M 615.5 450 L 620 452.5 L 618.5 453 L 615.5 450 Z " /><path fill="rgb(245,245,246)" stroke="rgb(245,245,246)" stroke-width="1" opacity="1" d="M 436.5 453 L 441 455.5 L 439.5 455 Q 435.7 454.8 436.5 453 Z " /><path fill="rgb(245,245,246)" stroke="rgb(245,245,246)" stroke-width="1" opacity="1" d="M 644.5 453 L 643.5 455 L 642 454.5 L 644.5 453 Z " /><path fill="rgb(245,245,246)" stroke="rgb(245,245,246)" stroke-width="1" opacity="1" d="M 808.5 453 L 809 455.5 L 807.5 458 L 807 456.5 L 808.5 453 Z " /><path fill="rgb(245,245,246)" stroke="rgb(245,245,246)" stroke-width="1" opacity="1" d="M 268.5 454 L 269 456.5 L 268 456.5 L 268.5 454 Z " /><path fill="rgb(245,245,246)" stroke="rgb(245,245,246)" stroke-width="1" opacity="1" d="M 623.5 454 L 629 455.5 L 625.5 456 L 623.5 454 Z " /><path fill="rgb(245,245,246)" stroke="rgb(245,245,246)" stroke-width="1" opacity="1" d="M 638.5 455 L 641 455.5 L 638.5 456 L 638.5 455 Z " /><path fill="rgb(245,245,246)" stroke="rgb(245,245,246)" stroke-width="1" opacity="1" d="M 442.5 456 L 447 458.5 L 445.5 458 Q 441.8 457.8 442.5 456 Z " /><path fill="rgb(245,245,246)" stroke="rgb(245,245,246)" stroke-width="1" opacity="1" d="M 754.5 456 L 753.5 458 L 754.5 456 Z " /><path fill="rgb(245,245,246)" stroke="rgb(245,245,246)" stroke-width="1" opacity="1" d="M 269.5 458 L 270 460.5 L 269 460.5 L 269.5 458 Z " /><path fill="rgb(245,245,246)" stroke="rgb(245,245,246)" stroke-width="1" opacity="1" d="M 448.5 459 L 451 460.5 L 449.5 460 L 448.5 459 Z " /><path fill="rgb(245,245,246)" stroke="rgb(245,245,246)" stroke-width="1" opacity="1" d="M 751.5 459 L 750.5 461 L 751.5 459 Z " /><path fill="rgb(245,245,246)" stroke="rgb(245,245,246)" stroke-width="1" opacity="1" d="M 454.5 462 L 459 464.5 L 457.5 464 Q 453.7 463.8 454.5 462 Z " /><path fill="rgb(245,245,246)" stroke="rgb(245,245,246)" stroke-width="1" opacity="1" d="M 748.5 462 L 733.5 478 L 732 477.5 L 735 475.5 Q 734.3 473.3 736.5 474 L 738 471 L 739.5 471 L 748.5 462 Z " /><path fill="rgb(245,245,246)" stroke="rgb(245,245,246)" stroke-width="1" opacity="1" d="M 805.5 462 L 806 464.5 L 804.5 468 L 804 465.5 L 805.5 462 Z " /><path fill="rgb(245,245,246)" stroke="rgb(245,245,246)" stroke-width="1" opacity="1" d="M 538.5 464 L 546 464.5 L 538.5 465 L 538.5 464 Z " /><path fill="rgb(245,245,246)" stroke="rgb(245,245,246)" stroke-width="1" opacity="1" d="M 567.5 464 L 579 464.5 L 567.5 465 L 567.5 464 Z " /><path fill="rgb(245,245,246)" stroke="rgb(245,245,246)" stroke-width="1" opacity="1" d="M 460.5 465 L 467 467.5 L 465.5 468 L 460.5 466 L 460.5 465 Z " /><path fill="rgb(245,245,246)" stroke="rgb(245,245,246)" stroke-width="1" opacity="1" d="M 518.5 465 L 532 465.5 L 518.5 466 L 518.5 465 Z " /><path fill="rgb(245,245,246)" stroke="rgb(245,245,246)" stroke-width="1" opacity="1" d="M 585.5 465 L 600 465.5 L 585.5 466 L 585.5 465 Z " /><path fill="rgb(245,245,246)" stroke="rgb(245,245,246)" stroke-width="1" opacity="1" d="M 272.5 466 L 274 468.5 L 272 467.5 L 272.5 466 Z " /><path fill="rgb(245,245,246)" stroke="rgb(245,245,246)" stroke-width="1" opacity="1" d="M 510.5 466 L 517 466.5 L 510.5 467 L 510.5 466 Z " /><path fill="rgb(245,245,246)" stroke="rgb(245,245,246)" stroke-width="1" opacity="1" d="M 601.5 466 L 610 466.5 L 601.5 467 L 601.5 466 Z " /><path fill="rgb(245,245,246)" stroke="rgb(245,245,246)" stroke-width="1" opacity="1" d="M 504.5 467 L 508 467.5 L 504.5 468 L 504.5 467 Z " /><path fill="rgb(245,245,246)" stroke="rgb(245,245,246)" stroke-width="1" opacity="1" d="M 613.5 467 L 617 467.5 L 613.5 468 L 613.5 467 Z " /><path fill="rgb(245,245,246)" stroke="rgb(245,245,246)" stroke-width="1" opacity="1" d="M 468.5 468 L 476 469.5 L 471.5 470 L 468.5 469 L 468.5 468 Z " /><path fill="rgb(245,245,246)" stroke="rgb(245,245,246)" stroke-width="1" opacity="1" d="M 495.5 468 L 501 468.5 L 495.5 469 L 495.5 468 Z " /><path fill="rgb(245,245,246)" stroke="rgb(245,245,246)" stroke-width="1" opacity="1" d="M 621.5 468 L 628 468.5 L 621.5 469 L 621.5 468 Z " /><path fill="rgb(245,245,246)" stroke="rgb(245,245,246)" stroke-width="1" opacity="1" d="M 488.5 469 L 494 469.5 L 488.5 470 L 488.5 469 Z " /><path fill="rgb(245,245,246)" stroke="rgb(245,245,246)" stroke-width="1" opacity="1" d="M 629.5 469 L 634 469.5 L 629.5 470 L 629.5 469 Z " /><path fill="rgb(245,245,246)" stroke="rgb(245,245,246)" stroke-width="1" opacity="1" d="M 803.5 469 L 804 471.5 L 803 471.5 L 803.5 469 Z " /><path fill="rgb(245,245,246)" stroke="rgb(245,245,246)" stroke-width="1" opacity="1" d="M 274.5 470 L 277 473.5 L 275 472.5 L 274.5 470 Z " /><path fill="rgb(245,245,246)" stroke="rgb(245,245,246)" stroke-width="1" opacity="1" d="M 479.5 470 L 483 470.5 L 479.5 471 L 479.5 470 Z " /><path fill="rgb(245,245,246)" stroke="rgb(245,245,246)" stroke-width="1" opacity="1" d="M 636.5 470 L 640 470.5 L 636.5 471 L 636.5 470 Z " /><path fill="rgb(245,245,246)" stroke="rgb(245,245,246)" stroke-width="1" opacity="1" d="M 643.5 471 L 649 471.5 L 643.5 472 L 643.5 471 Z " /><path fill="rgb(245,245,246)" stroke="rgb(245,245,246)" stroke-width="1" opacity="1" d="M 650.5 472 L 655 472.5 L 650.5 473 L 650.5 472 Z " /><path fill="rgb(245,245,246)" stroke="rgb(245,245,246)" stroke-width="1" opacity="1" d="M 657.5 473 L 660 473.5 L 657.5 474 L 657.5 473 Z " /><path fill="rgb(245,245,246)" stroke="rgb(245,245,246)" stroke-width="1" opacity="1" d="M 802.5 473 L 803 475.5 L 802 475.5 L 802.5 473 Z " /><path fill="rgb(245,245,246)" stroke="rgb(245,245,246)" stroke-width="1" opacity="1" d="M 662.5 474 Q 669.3 473.3 673 475.5 L 669.5 476 Q 668 473.5 662.5 475 L 662.5 474 Z " /><path fill="rgb(245,245,246)" stroke="rgb(245,245,246)" stroke-width="1" opacity="1" d="M 278.5 475 L 279 490.5 L 278 490.5 L 278.5 475 Z " /><path fill="rgb(245,245,246)" stroke="rgb(245,245,246)" stroke-width="1" opacity="1" d="M 784.5 475 Q 787.1 474.2 786 477.5 L 785 477.5 L 784.5 476 L 779 480 Q 780.1 482.7 777.5 482 L 760.5 498 L 759 498 Q 760.1 500.7 757.5 500 L 742.5 514 L 749.5 506 L 784.5 475 Z " /><path fill="rgb(245,245,246)" stroke="rgb(245,245,246)" stroke-width="1" opacity="1" d="M 675.5 476 L 678 476.5 L 675.5 477 L 675.5 476 Z " /><path fill="rgb(245,245,246)" stroke="rgb(245,245,246)" stroke-width="1" opacity="1" d="M 680.5 477 L 690 478.5 L 686.5 479 Q 685.3 476.7 680.5 478 L 680.5 477 Z " /><path fill="rgb(245,245,246)" stroke="rgb(245,245,246)" stroke-width="1" opacity="1" d="M 691.5 479 L 694 479.5 L 691.5 480 L 691.5 479 Z " /><path fill="rgb(245,245,246)" stroke="rgb(245,245,246)" stroke-width="1" opacity="1" d="M 730.5 479 L 723.5 487 L 720 486.5 L 723.5 486 L 730.5 479 Z " /><path fill="rgb(245,245,246)" stroke="rgb(245,245,246)" stroke-width="1" opacity="1" d="M 696.5 480 L 704 481.5 L 700.5 482 L 696.5 481 L 696.5 480 Z " /><path fill="rgb(245,245,246)" stroke="rgb(245,245,246)" stroke-width="1" opacity="1" d="M 800.5 480 L 801 481.5 L 798.5 486 L 799 484.5 L 800.5 480 Z " /><path fill="rgb(245,245,246)" stroke="rgb(245,245,246)" stroke-width="1" opacity="1" d="M 834 481 L 836 481.5 L 827 501.5 L 814 520 L 806.5 526 L 794.5 532 L 794.5 531 Q 806.5 526.5 814 517.5 L 823 506.5 L 823 504.5 L 828 497.5 L 834 481 Z " /><path fill="rgb(245,245,246)" stroke="rgb(245,245,246)" stroke-width="1" opacity="1" d="M 784.5 482 L 785 496.5 L 786 497.5 L 784 496.5 L 784.5 482 Z " /><path fill="rgb(245,245,246)" stroke="rgb(245,245,246)" stroke-width="1" opacity="1" d="M 709.5 483 L 716 484.5 L 712.5 485 L 709.5 484 L 709.5 483 Z " /><path fill="rgb(245,245,246)" stroke="rgb(245,245,246)" stroke-width="1" opacity="1" d="M 797.5 487 L 798 488.5 L 791.5 497 L 789.5 498 L 790.5 496 L 794 493.5 L 797.5 487 Z " /><path fill="rgb(245,245,246)" stroke="rgb(245,245,246)" stroke-width="1" opacity="1" d="M 279.5 493 L 280 498.5 L 279 498.5 L 279.5 493 Z " /><path fill="rgb(245,245,246)" stroke="rgb(245,245,246)" stroke-width="1" opacity="1" d="M 468.5 499 L 472 499.5 L 468.5 500 L 468.5 499 Z " /><path fill="rgb(245,245,246)" stroke="rgb(245,245,246)" stroke-width="1" opacity="1" d="M 463.5 500 L 467 500.5 L 463.5 501 L 463.5 500 Z " /><path fill="rgb(245,245,246)" stroke="rgb(245,245,246)" stroke-width="1" opacity="1" d="M 473.5 500 L 478 500.5 L 473.5 501 L 473.5 500 Z " /><path fill="rgb(245,245,246)" stroke="rgb(245,245,246)" stroke-width="1" opacity="1" d="M 460.5 501 L 462 501.5 L 456.5 505 L 458.5 502 L 460.5 501 Z " /><path fill="rgb(245,245,246)" stroke="rgb(245,245,246)" stroke-width="1" opacity="1" d="M 479.5 501 Q 486.4 502.6 489 508.5 L 482.5 503 Q 478.7 502.8 479.5 501 Z " /><path fill="rgb(245,245,246)" stroke="rgb(245,245,246)" stroke-width="1" opacity="1" d="M 280.5 502 L 281 505.5 L 280 505.5 L 280.5 502 Z " /><path fill="rgb(245,245,246)" stroke="rgb(245,245,246)" stroke-width="1" opacity="1" d="M 281.5 508 L 282 512.5 L 281 512.5 L 281.5 508 Z " /><path fill="rgb(245,245,246)" stroke="rgb(245,245,246)" stroke-width="1" opacity="1" d="M 490.5 509 L 491 512.5 L 490 512.5 L 490.5 509 Z " /><path fill="rgb(245,245,246)" stroke="rgb(245,245,246)" stroke-width="1" opacity="1" d="M 248.5 510 Q 251.5 509.5 250 516.5 L 252 521.5 L 253 532.5 L 257 548.5 L 265 572.5 L 279 598.5 Q 288.5 613 301.5 624 L 323.5 639 L 344.5 647 L 365.5 651 L 388.5 651 L 404.5 648 L 404.5 649 L 391.5 652 L 363.5 652 Q 361.8 649.3 355.5 651 L 351.5 649 L 346.5 649 L 328.5 643 Q 310.3 633.7 296 620.5 Q 296.8 618.3 294.5 619 L 293 616 L 290 614.5 L 288 611.5 L 277 597.5 L 263 570.5 L 251 530.5 L 251 523.5 L 248.5 510 Z " /><path fill="rgb(245,245,246)" stroke="rgb(245,245,246)" stroke-width="1" opacity="1" d="M 458.5 510 L 459 513.5 L 458 513.5 L 458.5 510 Z " /><path fill="rgb(245,245,246)" stroke="rgb(245,245,246)" stroke-width="1" opacity="1" d="M 282.5 514 L 283 516.5 L 282 516.5 L 282.5 514 Z " /><path fill="rgb(245,245,246)" stroke="rgb(245,245,246)" stroke-width="1" opacity="1" d="M 740.5 514 L 734.5 521 L 723.5 527 L 723.5 526 Q 734.5 522.5 740.5 514 Z " /><path fill="rgb(245,245,246)" stroke="rgb(245,245,246)" stroke-width="1" opacity="1" d="M 459.5 516 L 460 525.5 L 459 525.5 L 459.5 516 Z " /><path fill="rgb(245,245,246)" stroke="rgb(245,245,246)" stroke-width="1" opacity="1" d="M 489.5 519 L 490 525.5 L 489 525.5 L 489.5 519 Z " /><path fill="rgb(245,245,246)" stroke="rgb(245,245,246)" stroke-width="1" opacity="1" d="M 284.5 523 L 286 529.5 L 285 529.5 L 284.5 523 Z " /><path fill="rgb(245,245,246)" stroke="rgb(245,245,246)" stroke-width="1" opacity="1" d="M 458.5 528 L 459 533.5 L 458 533.5 L 458.5 528 Z " /><path fill="rgb(245,245,246)" stroke="rgb(245,245,246)" stroke-width="1" opacity="1" d="M 718.5 528 L 720 528.5 L 715.5 530 L 715.5 529 L 718.5 528 Z " /><path fill="rgb(245,245,246)" stroke="rgb(245,245,246)" stroke-width="1" opacity="1" d="M 713.5 530 L 714 578.5 L 712.5 586 L 712 579.5 L 713 578.5 L 713.5 530 Z " /><path fill="rgb(245,245,246)" stroke="rgb(245,245,246)" stroke-width="1" opacity="1" d="M 792.5 532 L 791.5 534 L 777.5 538 Q 766.9 544.9 753 548.5 Q 755.8 550.3 754 556.5 L 753 559.5 L 753 561.5 L 753 571.5 L 752 572.5 L 753 576.5 L 752 577.5 L 752 588.5 L 751 589.5 L 751 591.5 Q 751.6 597.6 749 600.5 L 749 607.5 L 740 637.5 Q 730.7 661.7 714.5 679 Q 712.3 678.3 713 680.5 L 710 682 Q 711.1 684.7 708.5 684 L 694.5 696 L 696.5 693 Q 709.3 685.3 718 673.5 L 730 655.5 L 742 628.5 L 748 604.5 L 748 599.5 L 751 586.5 L 751 576.5 L 752 575.5 L 751 571.5 L 752 570.5 L 752 548.5 L 753.5 547 L 792.5 532 Z " /><path fill="rgb(245,245,246)" stroke="rgb(245,245,246)" stroke-width="1" opacity="1" d="M 287.5 534 L 288 536.5 L 287 536.5 L 287.5 534 Z " /><path fill="rgb(245,245,246)" stroke="rgb(245,245,246)" stroke-width="1" opacity="1" d="M 457.5 535 L 458 538.5 L 457 538.5 L 457.5 535 Z " /><path fill="rgb(245,245,246)" stroke="rgb(245,245,246)" stroke-width="1" opacity="1" d="M 490.5 535 L 492 547.5 L 491 547.5 L 490.5 535 Z " /><path fill="rgb(245,245,246)" stroke="rgb(245,245,246)" stroke-width="1" opacity="1" d="M 456.5 540 L 457 543.5 L 454.5 549 L 454 547.5 L 456.5 540 Z " /><path fill="rgb(245,245,246)" stroke="rgb(245,245,246)" stroke-width="1" opacity="1" d="M 290.5 544 L 292 547.5 L 291 547.5 L 290.5 544 Z " /><path fill="rgb(245,245,246)" stroke="rgb(245,245,246)" stroke-width="1" opacity="1" d="M 453.5 550 L 454 552.5 L 452.5 555 L 452 553.5 L 453.5 550 Z " /><path fill="rgb(245,245,246)" stroke="rgb(245,245,246)" stroke-width="1" opacity="1" d="M 492.5 550 L 493 552.5 L 492 552.5 L 492.5 550 Z " /><path fill="rgb(245,245,246)" stroke="rgb(245,245,246)" stroke-width="1" opacity="1" d="M 493.5 555 L 495 561.5 L 494 561.5 L 493.5 555 Z " /><path fill="rgb(245,245,246)" stroke="rgb(245,245,246)" stroke-width="1" opacity="1" d="M 295.5 556 L 301 566.5 L 299 565.5 L 295 557.5 L 295.5 556 Z " /><path fill="rgb(245,245,246)" stroke="rgb(245,245,246)" stroke-width="1" opacity="1" d="M 450.5 558 L 451 559.5 L 445.5 569 L 446 567.5 L 450.5 558 Z " /><path fill="rgb(245,245,246)" stroke="rgb(245,245,246)" stroke-width="1" opacity="1" d="M 496.5 566 L 497 568.5 L 496 568.5 L 496.5 566 Z " /><path fill="rgb(245,245,246)" stroke="rgb(245,245,246)" stroke-width="1" opacity="1" d="M 302.5 570 L 303.5 572 L 302.5 570 Z " /><path fill="rgb(245,245,246)" stroke="rgb(245,245,246)" stroke-width="1" opacity="1" d="M 444.5 570 L 445 571.5 L 431.5 590 Q 429.3 589.3 430 591.5 L 428 592.5 Q 438.2 583.2 444.5 570 Z " /><path fill="rgb(245,245,246)" stroke="rgb(245,245,246)" stroke-width="1" opacity="1" d="M 304.5 573 L 310 580.5 L 307 578.5 L 304.5 573 Z " /><path fill="rgb(245,245,246)" stroke="rgb(245,245,246)" stroke-width="1" opacity="1" d="M 499.5 576 L 502 581.5 L 500 580.5 L 499.5 576 Z " /><path fill="rgb(245,245,246)" stroke="rgb(245,245,246)" stroke-width="1" opacity="1" d="M 310.5 582 L 324 596.5 L 314 587.5 L 310.5 582 Z " /><path fill="rgb(245,245,246)" stroke="rgb(245,245,246)" stroke-width="1" opacity="1" d="M 502.5 583 L 504 586.5 L 502 585.5 L 502.5 583 Z " /><path fill="rgb(245,245,246)" stroke="rgb(245,245,246)" stroke-width="1" opacity="1" d="M 504.5 588 L 506 591.5 L 505 591.5 L 504.5 588 Z " /><path fill="rgb(245,245,246)" stroke="rgb(245,245,246)" stroke-width="1" opacity="1" d="M 711.5 588 L 712 591.5 L 711 591.5 L 711.5 588 Z " /><path fill="rgb(245,245,246)" stroke="rgb(245,245,246)" stroke-width="1" opacity="1" d="M 426.5 594 L 425.5 596 L 426.5 594 Z " /><path fill="rgb(245,245,246)" stroke="rgb(245,245,246)" stroke-width="1" opacity="1" d="M 710.5 594 L 711 598.5 L 709.5 603 L 709 599.5 L 710.5 594 Z " /><path fill="rgb(245,245,246)" stroke="rgb(245,245,246)" stroke-width="1" opacity="1" d="M 471.5 596 L 480 618.5 L 490 637.5 L 501 653.5 L 523.5 677 Q 549.7 701.3 591 710.5 L 586.5 711 Q 539.3 698.2 511 666.5 Q 496.1 650.9 485 631.5 L 472 600 L 468 602.5 L 465 608.5 L 449.5 625 Q 433 641.5 406.5 648 L 406.5 647 L 417.5 644 L 430.5 638 L 452 622 L 454.5 618 L 457 616.5 L 471.5 596 Z " /><path fill="rgb(245,245,246)" stroke="rgb(245,245,246)" stroke-width="1" opacity="1" d="M 325.5 597 L 335 604.5 L 333.5 604 Q 327.4 601.8 325.5 597 Z " /><path fill="rgb(245,245,246)" stroke="rgb(245,245,246)" stroke-width="1" opacity="1" d="M 423.5 597 L 422.5 599 L 409.5 608 L 409.5 607 L 423.5 597 Z " /><path fill="rgb(245,245,246)" stroke="rgb(245,245,246)" stroke-width="1" opacity="1" d="M 508.5 597 L 511 601.5 L 509 600.5 L 508.5 597 Z " /><path fill="rgb(245,245,246)" stroke="rgb(245,245,246)" stroke-width="1" opacity="1" d="M 511.5 603 L 514 606.5 L 511 604.5 L 511.5 603 Z " /><path fill="rgb(245,245,246)" stroke="rgb(245,245,246)" stroke-width="1" opacity="1" d="M 708.5 604 L 709 606.5 L 708 606.5 L 708.5 604 Z " /><path fill="rgb(245,245,246)" stroke="rgb(245,245,246)" stroke-width="1" opacity="1" d="M 338.5 606 L 341 607.5 L 339.5 608 L 338.5 606 Z " /><path fill="rgb(245,245,246)" stroke="rgb(245,245,246)" stroke-width="1" opacity="1" d="M 342.5 608 L 350 611.5 L 348.5 612 L 343.5 610 L 342.5 608 Z " /><path fill="rgb(245,245,246)" stroke="rgb(245,245,246)" stroke-width="1" opacity="1" d="M 407.5 608 L 406.5 610 L 403.5 611 L 403.5 610 L 407.5 608 Z " /><path fill="rgb(245,245,246)" stroke="rgb(245,245,246)" stroke-width="1" opacity="1" d="M 514.5 608 L 517 611.5 L 514 609.5 L 514.5 608 Z " /><path fill="rgb(245,245,246)" stroke="rgb(245,245,246)" stroke-width="1" opacity="1" d="M 707.5 608 L 708 610.5 L 706.5 614 L 706 611.5 L 707.5 608 Z " /><path fill="rgb(245,245,246)" stroke="rgb(245,245,246)" stroke-width="1" opacity="1" d="M 400.5 611 L 402 611.5 L 394.5 614 L 394.5 613 L 400.5 611 Z " /><path fill="rgb(245,245,246)" stroke="rgb(245,245,246)" stroke-width="1" opacity="1" d="M 354.5 613 L 357 613.5 L 354.5 614 L 354.5 613 Z " /><path fill="rgb(245,245,246)" stroke="rgb(245,245,246)" stroke-width="1" opacity="1" d="M 517.5 613 L 520 616.5 L 517 614.5 L 517.5 613 Z " /><path fill="rgb(245,245,246)" stroke="rgb(245,245,246)" stroke-width="1" opacity="1" d="M 389.5 614 L 392 614.5 L 389.5 615 L 389.5 614 Z " /><path fill="rgb(245,245,246)" stroke="rgb(245,245,246)" stroke-width="1" opacity="1" d="M 363.5 615 L 369 615.5 L 363.5 616 L 363.5 615 Z " /><path fill="rgb(245,245,246)" stroke="rgb(245,245,246)" stroke-width="1" opacity="1" d="M 381.5 615 L 388 615.5 L 381.5 616 L 381.5 615 Z " /><path fill="rgb(245,245,246)" stroke="rgb(245,245,246)" stroke-width="1" opacity="1" d="M 370.5 616 L 380 616.5 L 370.5 617 L 370.5 616 Z " /><path fill="rgb(245,245,246)" stroke="rgb(245,245,246)" stroke-width="1" opacity="1" d="M 520.5 618 L 530 631.5 L 529 631.5 L 520 619.5 L 520.5 618 Z " /><path fill="rgb(245,245,246)" stroke="rgb(245,245,246)" stroke-width="1" opacity="1" d="M 704.5 618 L 705 620.5 L 703.5 623 L 703 621.5 L 704.5 618 Z " /><path fill="rgb(245,245,246)" stroke="rgb(245,245,246)" stroke-width="1" opacity="1" d="M 701.5 626 L 702 627.5 L 700.5 630 L 700 628.5 L 701.5 626 Z " /><path fill="rgb(245,245,246)" stroke="rgb(245,245,246)" stroke-width="1" opacity="1" d="M 699.5 631 L 699 632.5 L 694.5 641 L 695 639.5 L 699.5 631 Z " /><path fill="rgb(245,245,246)" stroke="rgb(245,245,246)" stroke-width="1" opacity="1" d="M 531.5 633 L 537.5 640 Q 535.3 640.8 536 638.5 L 531.5 633 Z " /><path fill="rgb(245,245,246)" stroke="rgb(245,245,246)" stroke-width="1" opacity="1" d="M 538.5 641 L 539.5 643 L 538.5 641 Z " /><path fill="rgb(245,245,246)" stroke="rgb(245,245,246)" stroke-width="1" opacity="1" d="M 693.5 642 L 693 643.5 Q 686.9 654.9 676.5 662 L 688 649.5 L 693.5 642 Z " /><path fill="rgb(245,245,246)" stroke="rgb(245,245,246)" stroke-width="1" opacity="1" d="M 541.5 643 L 548.5 651 L 541.5 643 Z " /><path fill="rgb(245,245,246)" stroke="rgb(245,245,246)" stroke-width="1" opacity="1" d="M 550.5 651 L 560 658.5 L 558.5 658 L 550 653 L 550.5 651 Z " /><path fill="rgb(245,245,246)" stroke="rgb(245,245,246)" stroke-width="1" opacity="1" d="M 561.5 659 L 565 661.5 L 563.5 661 L 561.5 659 Z " /><path fill="rgb(245,245,246)" stroke="rgb(245,245,246)" stroke-width="1" opacity="1" d="M 568.5 663 L 584 670.5 L 582.5 671 L 569.5 665 L 568.5 663 Z " /><path fill="rgb(245,245,246)" stroke="rgb(245,245,246)" stroke-width="1" opacity="1" d="M 673.5 663 L 675 663.5 L 668.5 668 L 669.5 666 L 673.5 663 Z " /><path fill="rgb(245,245,246)" stroke="rgb(245,245,246)" stroke-width="1" opacity="1" d="M 666.5 668 L 665.5 670 L 654.5 674 L 654.5 673 Q 662.2 672.2 666.5 668 Z " /><path fill="rgb(245,245,246)" stroke="rgb(245,245,246)" stroke-width="1" opacity="1" d="M 591.5 673 L 594 673.5 L 591.5 674 L 591.5 673 Z " /><path fill="rgb(245,245,246)" stroke="rgb(245,245,246)" stroke-width="1" opacity="1" d="M 595.5 674 L 598 674.5 L 595.5 675 L 595.5 674 Z " /><path fill="rgb(245,245,246)" stroke="rgb(245,245,246)" stroke-width="1" opacity="1" d="M 599.5 675 L 603 675.5 L 599.5 676 L 599.5 675 Z " /><path fill="rgb(245,245,246)" stroke="rgb(245,245,246)" stroke-width="1" opacity="1" d="M 647.5 675 L 651 675.5 L 642.5 677 L 642.5 676 L 647.5 675 Z " /><path fill="rgb(245,245,246)" stroke="rgb(245,245,246)" stroke-width="1" opacity="1" d="M 604.5 676 L 609 676.5 L 604.5 677 L 604.5 676 Z " /><path fill="rgb(245,245,246)" stroke="rgb(245,245,246)" stroke-width="1" opacity="1" d="M 612.5 677 L 617 677.5 L 612.5 678 L 612.5 677 Z " /><path fill="rgb(245,245,246)" stroke="rgb(245,245,246)" stroke-width="1" opacity="1" d="M 634.5 677 L 639 677.5 L 634.5 678 L 634.5 677 Z " /><path fill="rgb(245,245,246)" stroke="rgb(245,245,246)" stroke-width="1" opacity="1" d="M 622.5 678 L 625 678.5 L 622.5 679 L 622.5 678 Z " /><path fill="rgb(245,245,246)" stroke="rgb(245,245,246)" stroke-width="1" opacity="1" d="M 626.5 678 L 630 678.5 L 626.5 679 L 626.5 678 Z " /><path fill="rgb(245,245,246)" stroke="rgb(245,245,246)" stroke-width="1" opacity="1" d="M 692.5 696 L 689.5 700 Q 677.3 707.8 661.5 712 L 638.5 716 L 635.5 715 L 634.5 716 L 620.5 716 L 619.5 715 L 608.5 715 L 607.5 714 L 605.5 714 L 600.5 714 L 592 711.5 L 595.5 711 L 601.5 713 L 621.5 714 L 623.5 715 L 625.5 714 Q 627.3 716.8 633.5 715 L 634.5 714 L 645.5 714 L 664.5 710 Q 680.5 705 692.5 696 Z " /><path fill="rgb(254,254,254)" stroke="rgb(254,254,254)" stroke-width="1" opacity="1" d="M 410.5 364 L 414 364.5 L 410.5 365 L 410.5 364 Z " /><path fill="rgb(254,254,254)" stroke="rgb(254,254,254)" stroke-width="1" opacity="1" d="M 463.5 364 L 468.5 365 L 505 365 Q 503.9 367.7 506.5 367 L 508.5 367 L 510.5 366 L 512.5 366 L 518.5 367 L 520.5 366 L 525.5 367 L 528.5 366 L 532.5 367 L 536.5 367 L 545.5 366 L 545.5 367 L 539 367.5 Q 541.3 368.8 538.5 370 L 536.5 370 L 531.5 369 L 528.5 370 L 525.5 369 L 523.5 369 L 520.5 370 L 519.5 369 L 507.5 369 L 503.5 367 L 501.5 368 L 500.5 367 L 436.5 367 L 433.5 368 L 429.5 367 L 418.5 369 L 414.5 369 Q 407.3 370.3 405 366.5 L 406.5 367 L 425.5 367 L 433.5 365 L 462.5 365 L 463.5 364 Z " /><path fill="rgb(254,254,254)" stroke="rgb(254,254,254)" stroke-width="1" opacity="1" d="M 529.5 364 L 539 364.5 L 529.5 365 L 529.5 364 Z " /><path fill="rgb(254,254,254)" stroke="rgb(254,254,254)" stroke-width="1" opacity="1" d="M 373.5 367 L 396.5 368 L 398.5 368 L 400 368.5 L 393.5 371 L 393 369 L 391 369.5 L 391.5 371 L 389.5 370 L 384.5 371 L 381.5 370 L 371.5 371 L 368 369.5 L 370.5 369 L 371.5 370 L 378 370 Q 379.4 366.3 373.5 368 L 373.5 367 Z " /><path fill="rgb(254,254,254)" stroke="rgb(254,254,254)" stroke-width="1" opacity="1" d="M 550.5 367 L 552.5 368 Q 554 365.5 559.5 367 L 561.5 368 L 563.5 367 L 566 368 L 566.5 370 L 568.5 368 L 577.5 368 L 578.5 367 L 579 370 L 582 368.5 L 580 367.5 L 590.5 367 L 590.5 368 Q 582.9 366.5 584 370 L 595.5 369 L 595.5 370 L 591.5 370 Q 592.5 373.2 586.5 372 L 582.5 370 L 579.5 371 L 577.5 370 L 574.5 371 L 572.5 371 Q 567 372.5 565.5 370 L 562.5 371 L 558.5 371 L 554.5 369 Q 553.3 371.3 548.5 370 L 541 368.5 L 549.5 368 L 550.5 367 Z M 563 369 L 563 370 L 565 370 L 563 369 Z M 569 369 L 569 370 L 572 370 L 569 369 Z " /><path fill="rgb(254,254,254)" stroke="rgb(254,254,254)" stroke-width="1" opacity="1" d="M 341.5 370 Q 348.2 369.3 351.5 372 L 354.5 371 L 360.5 370 L 363 371.5 L 360.5 373 L 356.5 373 L 347.5 374 L 345.5 374 L 341.5 375 L 341 373 L 339 373.5 L 339.5 375 L 337 374.5 L 337.5 372 L 346 373 Q 347.4 369.3 341.5 371 L 341.5 370 Z " /><path fill="rgb(254,254,254)" stroke="rgb(254,254,254)" stroke-width="1" opacity="1" d="M 601.5 370 Q 604.1 369.3 603 372 L 605.5 372 L 605.5 371 L 604 370.5 L 605.5 370 L 606.5 371 L 617.5 371 L 620.5 370 L 627 370.5 L 621 371.5 Q 622 374 626.5 373 L 628.5 373 L 630.5 372 L 631.5 374 L 633.5 374 L 641.5 372 L 641.5 374 L 649.5 374 L 650 375.5 L 651 375.5 L 651.5 373 L 653.5 376 L 655.5 375 L 660 375.5 L 658.5 378 L 657.5 376 L 657 378 L 649.5 376 L 647.5 377 L 645.5 377 L 640.5 376 L 638.5 376 L 635.5 375 L 631.5 376 L 628 375 L 627.5 373 L 622.5 374 L 617.5 373 L 614.5 374 L 611.5 373 L 598.5 373 L 592 371.5 L 600.5 371 L 601.5 370 Z M 642 375 L 642 376 L 645 376 L 642 375 Z " /><path fill="rgb(254,254,254)" stroke="rgb(254,254,254)" stroke-width="1" opacity="1" d="M 364.5 371 L 368 371.5 L 364.5 372 L 364.5 371 Z " /><path fill="rgb(254,254,254)" stroke="rgb(254,254,254)" stroke-width="1" opacity="1" d="M 806.5 372 L 809 372.5 L 806.5 373 L 806.5 372 Z " /><path fill="rgb(254,254,254)" stroke="rgb(254,254,254)" stroke-width="1" opacity="1" d="M 316.5 373 L 319 373.5 L 316.5 374 L 316.5 373 Z " /><path fill="rgb(254,254,254)" stroke="rgb(254,254,254)" stroke-width="1" opacity="1" d="M 329.5 373 L 331.5 373 L 336 374.5 L 332.5 376 L 330.5 376 L 328.5 377 L 327.5 375 L 327 377 L 322.5 376 L 319.5 378 L 317.5 378 L 307.5 380 L 305.5 379 L 300.5 382 L 299 379 L 309.5 376 L 312 376.5 L 312.5 378 L 316 376.5 L 315.5 375 L 321 376 L 321.5 374 L 328.5 374 L 329.5 373 Z " /><path fill="rgb(254,254,254)" stroke="rgb(254,254,254)" stroke-width="1" opacity="1" d="M 654.5 373 L 657 373.5 L 654.5 374 L 654.5 373 Z " /><path fill="rgb(254,254,254)" stroke="rgb(254,254,254)" stroke-width="1" opacity="1" d="M 792.5 374 L 795.5 376 L 798.5 374 L 814 374 Q 812.8 377 816.5 376 L 818 378.5 L 816.5 378 L 806 376.5 L 809 375.5 L 805.5 375 Q 804.1 377.6 799.5 377 Q 798 374.5 796.5 378 L 792.5 379 L 791 378.5 L 790.5 380 L 789.5 379 L 786.5 382 L 782 384.5 L 781.5 386 L 780.5 385 L 776.5 389 L 775.5 388 Q 773.3 387.3 774 389.5 L 775 390.5 L 770.5 395 L 758.5 406 L 752.5 407 L 752.5 405 L 750.5 406 L 748.5 403 L 751 401.5 L 749.5 399 L 755.5 403 L 767.5 391 L 768.5 392 L 773 390.5 L 772 389.5 Q 776.3 387.2 774.5 385 L 777.5 387 L 779 383.5 L 778.5 382 L 782 384 L 783 380.5 L 780 381.5 Q 781.7 377.3 783.5 380 L 786.5 378 L 789 379 L 788 376.5 L 789.5 377 L 794.5 378 L 795 376 L 792.5 374 Z M 800 375 L 800 376 L 803 376 L 800 375 Z M 754 404 Q 753 407 756 406 Q 757 403 754 404 Z " /><path fill="rgb(254,254,254)" stroke="rgb(254,254,254)" stroke-width="1" opacity="1" d="M 668.5 375 L 669.5 378 L 671.5 377 L 674 377.5 Q 673.1 380.5 677.5 379 L 679 378.5 L 678 381 L 675.5 380 L 674 380.5 Q 674.8 378.3 672.5 379 L 670.5 379 L 668.5 378 L 666.5 379 L 664.5 379 L 661 377.5 L 665.5 376 Q 667 378.5 668.5 375 Z " /><path fill="rgb(254,254,254)" stroke="rgb(254,254,254)" stroke-width="1" opacity="1" d="M 299.5 376 L 303 376.5 L 299.5 377 L 299.5 376 Z " /><path fill="rgb(254,254,254)" stroke="rgb(254,254,254)" stroke-width="1" opacity="1" d="M 675.5 376 L 678 376.5 L 675.5 377 L 675.5 376 Z " /><path fill="rgb(254,254,254)" stroke="rgb(254,254,254)" stroke-width="1" opacity="1" d="M 819 377 Q 823.9 376.9 826 380.5 L 827.5 383 L 829.5 382 L 829.5 385 L 828 385.5 L 832.5 388 L 834 387.5 L 831 389.5 L 834.5 391 L 836 390.5 L 834 394.5 L 836 398 Q 839.5 396.9 838 404.5 L 839 409.5 L 841 411.5 L 842 418.5 L 841 421.5 L 840.5 425 L 839 420.5 L 839 416.5 L 840 414.5 L 838 411.5 L 838 406.5 L 835 399.5 L 835 397.5 L 833 394.5 L 833.5 393 L 832 392.5 L 832.5 391 L 830 389.5 Q 832.3 388.3 829.5 387 L 826 384.5 Q 828.2 383.3 825.5 382 Q 823.8 384.8 822 380.5 Q 822.8 378.3 820.5 379 L 820.5 381 L 819 377 Z " /><path fill="rgb(254,254,254)" stroke="rgb(254,254,254)" stroke-width="1" opacity="1" d="M 292.5 378 L 298 380.5 L 295.5 383 L 293.5 383 L 278.5 386 L 276.5 386 L 266 389.5 L 266.5 391 L 264.5 391 L 261.5 392 L 259.5 391 L 259.5 393 L 248 402.5 L 247.5 404 L 246 400.5 L 247 400.5 L 247.5 402 L 249 399.5 Q 246.8 398.3 249.5 397 Q 251.8 397.8 251 395.5 L 252.5 392 L 252.5 394 Q 255.8 395.1 255 392.5 L 255.5 390 L 258 391.5 L 257 389.5 L 259 388.5 L 258.5 390 L 262.5 388 L 263 390 Q 266 391 265 388 L 268.5 388 L 268.5 387 L 267 386.5 L 271.5 385 L 273 385.5 L 273.5 384 L 277 385 Q 275.7 381.7 280.5 383 L 282.5 382 L 282.5 384 L 285 383.5 L 284 381 L 288 382 Q 289.1 379.3 286.5 380 L 286.5 379 L 293.5 380 L 293.5 379 L 292.5 378 Z " /><path fill="rgb(254,254,254)" stroke="rgb(254,254,254)" stroke-width="1" opacity="1" d="M 682 379 L 685.5 381 L 690.5 379 L 690.5 380 L 688 380.5 L 691.5 382 L 694.5 380 L 693.5 382 L 689.5 383 L 687.5 383 L 682 382 L 682 379 Z " /><path fill="rgb(254,254,254)" stroke="rgb(254,254,254)" stroke-width="1" opacity="1" d="M 697.5 381 L 697.5 383 L 703.5 382 L 703.5 383 L 701 384.5 L 703.5 385 L 706.5 383 L 705.5 385 L 704 385.5 L 704.5 387 L 698.5 384 L 696.5 384 L 694 383.5 L 697.5 381 Z " /><path fill="rgb(254,254,254)" stroke="rgb(254,254,254)" stroke-width="1" opacity="1" d="M 709.5 384 L 709.5 386 L 713 386 Q 711.9 388.7 714.5 388 L 716 387.5 L 715.5 389 L 719.5 387 L 719.5 389 L 723.5 388 L 723 389.5 L 723.5 391 L 725 390.5 L 724.5 393 L 719.5 390 L 716.5 391 L 714.5 389 L 712.5 388 L 711 388.5 L 710.5 387 L 708 388 L 709.5 384 Z " /><path fill="rgb(254,254,254)" stroke="rgb(254,254,254)" stroke-width="1" opacity="1" d="M 726.5 391 Q 728.3 394.1 730 392.5 Q 729.3 394.8 731.5 394 L 733 393.5 L 733.5 395 Q 735 392.5 736.5 396 L 738.5 394 L 741 395.5 Q 737.3 397.3 740.5 399 L 742.5 396 L 742.5 398 L 745.5 397 Q 748.3 398.3 746 399.5 L 746.5 402 L 748.5 401 L 748.5 402 L 745 403 L 743.5 400 L 741.5 400 L 737.5 397 L 735.5 397 L 731.5 395 L 730 395.5 L 729.5 394 L 728 394.5 Q 728.7 391.9 726 393 L 726.5 391 Z M 738 395 L 738 397 L 740 396 L 738 395 Z M 744 398 L 744 400 L 746 399 L 744 398 Z " /><path fill="rgb(254,254,254)" stroke="rgb(254,254,254)" stroke-width="1" opacity="1" d="M 423.5 392 L 503.5 392 L 504.5 393 L 508.5 393 L 511.5 392 L 513.5 392 L 520.5 394 L 522.5 394 Q 527.5 395 528.5 392 L 531 392.5 L 530.5 394 L 540.5 396 L 542.5 396 L 544.5 397 Q 545.8 394.7 550.5 396 L 560 398 L 560.5 400 L 561 398 L 563.5 399 Q 565 396.5 566.5 400 Q 570.9 398.5 570 401.5 L 571.5 401 Q 576.7 400.8 578.5 404 L 580.5 403 L 584.5 405 L 586 404.5 Q 585.3 406.8 587.5 406 L 589.5 406 L 595 407 Q 593.8 410 597.5 409 L 606.5 413 L 609.5 413 L 617.5 418 L 619.5 418 L 623.5 420 L 625 419.5 Q 624.2 422.1 627.5 421 L 630 422 L 630.5 424 L 632.5 424 L 635.5 426 Q 637.2 423.3 639 427.5 L 639.5 429 L 641.5 429 L 645 430.5 L 645.5 432 L 648.5 431 L 651 433.5 Q 650.3 436.1 653 435 L 653 437.5 L 654 438.5 L 654 448.5 L 649 452.5 L 647.5 455 L 643.5 457 L 642 456.5 L 641.5 458 L 629.5 458 L 627.5 458 Q 621.4 459.3 622 456.5 L 620 456.5 Q 620.8 454.3 618.5 455 L 617 455.5 Q 617.8 453.3 615.5 454 L 609.5 450 L 608.5 451 L 603.5 446 Q 602 448.5 600.5 445 Q 598.3 445.8 599 443.5 L 596.5 441 L 594.5 441 L 588.5 437 L 584 436 L 583.5 434 L 581.5 434 L 577 432 L 576.5 430 L 575.5 432 L 574.5 430 L 572.5 430 L 570 429.5 L 570.5 428 L 567.5 428 L 561.5 424 L 558.5 425 L 556.5 423 L 538.5 418 L 535.5 419 L 526.5 416 L 524.5 416 L 519.5 415 L 517.5 415 L 513.5 416 L 512.5 415 L 499.5 415 L 498.5 414 L 496.5 414 L 489.5 416 L 487.5 415 L 484.5 416 L 481.5 417 L 479.5 417 L 476.5 418 L 475 417.5 Q 475.9 420.5 471.5 419 L 466.5 422 Q 465 419.5 463.5 423 L 460.5 424 Q 459 421.5 457.5 425 L 448.5 428 L 448.5 426 L 443.5 428 L 441.5 428 L 439.5 427 L 438.5 428 L 388 428.5 L 397.5 431 L 404.5 435 Q 406 432.5 407.5 436 L 410.5 438 L 412.5 437 Q 416.2 439 414.5 441 L 418.5 440 L 431.5 447 L 433 446.5 Q 430.8 447.8 433.5 449 L 435.5 450 L 437 449.5 Q 436.3 451.8 438.5 451 L 439.5 450 L 442.5 453 L 452 457 L 452.5 459 L 454.5 458 Q 457.9 461.7 464 461 L 464.5 464 L 465.5 462 L 472.5 467 L 485.5 467 L 486.5 468 L 489.5 466 L 501.5 465 L 503.5 466 L 507.5 464 Q 514.3 465.3 517.5 463 L 519.5 464 L 521.5 464 L 523.5 463 L 536.5 463 L 537.5 462 L 541 463 L 541.5 461 L 543.5 462 L 546.5 461 L 547.5 462 L 574.5 462 Q 576.3 464.8 582.5 463 L 585.5 462 L 586.5 463 L 601.5 464 L 603.5 463 L 609.5 465 L 614.5 465 L 616.5 465 L 627.5 467 L 629.5 467 L 634.5 468 L 636.5 467 L 639.5 469 L 642.5 468 L 649.5 470 L 652.5 469 Q 653.3 471.8 657.5 471 L 659.5 470 L 667.5 473 L 669.5 472 L 672.5 474 L 673.5 472 L 678.5 474 L 689 475 L 689.5 477 L 691.5 475 L 694 475.5 L 693.5 477 L 696.5 476 L 699 477 L 699.5 479 L 700.5 477 L 706.5 480 L 708.5 480 L 711.5 482 L 714.5 481 L 722.5 484 L 726 481.5 L 725 480.5 L 729.5 476 Q 731.8 476.8 731 474.5 L 733 474.5 L 733.5 473 Q 734.7 475.3 736 472.5 L 735.5 471 Q 737.3 473.7 739 469.5 L 749.5 458 L 751 458.5 L 752.5 455 Q 753.8 457.3 755 454.5 L 754 453.5 L 766 441.5 Q 765.3 439.3 767.5 440 Q 768.8 442.2 770 439.5 L 768 438.5 L 770 438 L 771.5 435 L 786.5 421 L 789 421 Q 787.5 417.3 790.5 418 L 792 415 L 794 414.5 L 793 412.5 L 798.5 408 L 800 408.5 Q 799.1 405.1 804.5 407 L 808 408.5 L 811 412.5 Q 808.5 414 812 415.5 L 813 417.5 L 812 419.5 L 814 419.5 L 814 421.5 L 814 441.5 L 812 446.5 L 812 448.5 Q 812 458.5 807 463.5 L 808 465.5 L 806 469.5 Q 805.8 478.8 801 483.5 L 802 485.5 L 796.5 494 L 795 494.5 L 796 495.5 L 792.5 499 L 791 498.5 L 789.5 501 L 784.5 500 L 783 499.5 L 783 481.5 L 781 480.5 L 781 482.5 L 776.5 487 L 770.5 492 L 768 492 L 762.5 499 L 761 498.5 Q 761.8 500.8 759.5 500 L 759.5 502 L 757 503.5 Q 757.8 505.8 755.5 505 Q 753.2 509.2 751 507.5 Q 751.5 511.5 748.5 512 L 745 514.5 Q 745.8 516.8 743.5 516 L 741 516.5 L 739.5 519 Q 737.3 518.3 738 520.5 L 731.5 526 L 715 533.5 L 716 538.5 L 715 538.5 L 714 530 L 717.5 530 L 730.5 524 L 757.5 500 L 759 500 Q 757.9 497.3 760.5 498 L 769 491 Q 767.9 488.3 770.5 489 L 779 482 Q 777.9 479.3 780.5 480 L 785 476.5 L 784 496.5 L 787.5 499 L 795 493.5 L 800 484.5 L 803 472.5 L 805 470.5 L 804 468.5 L 809 455.5 L 813 434.5 L 812 431.5 L 813 429.5 L 811 418.5 L 809 413.5 L 805.5 410 L 801.5 409 L 798 411 L 798 413 Q 795.3 411.9 796 414.5 L 774 436.5 L 774 438 L 771 439.5 Q 771.8 441.8 769.5 441 L 768 444 L 765 445.5 Q 765.8 447.8 763.5 447 L 762 450 L 759 451.5 Q 759.8 453.8 757.5 453 L 756 456 L 753 457.5 Q 753.8 459.8 751.5 459 L 750 462 L 738 471 L 736.5 474 L 733.5 476 L 732 479 L 721.5 486 L 708.5 482 L 706.5 482 L 696.5 479 L 694.5 480 L 681.5 476 L 679.5 476 L 673.5 476 L 663.5 473 L 661.5 473 L 655.5 473 L 643.5 470 L 641.5 471 L 621.5 467 L 619.5 468 L 616.5 467 L 587.5 464 L 582.5 465 L 580.5 464 L 578.5 464 L 553.5 463 L 552.5 464 Q 539.8 462.3 531.5 465 Q 530.3 462.8 525.5 464 L 524.5 465 L 510.5 466 L 501.5 468 L 499.5 467 L 486.5 470 L 484.5 470 L 476.5 470 L 468.5 467 L 466.5 467 L 459.5 465 L 411.5 440 Q 410 442.5 408.5 439 L 385.5 430 L 360.5 424 L 357.5 422 L 355.5 423 Q 352.6 420.4 346.5 421 L 343.5 419 L 340.5 420 L 322.5 416 L 317.5 417 L 316.5 416 L 306.5 416 L 305.5 415 L 281.5 415 L 280.5 416 L 269.5 417 L 268 418.5 L 269 421 L 267 421.5 L 268 423.5 L 266 431.5 L 266 443.5 L 269 460.5 L 276.5 474 L 278 474.5 L 278 490.5 L 279 493.5 L 281 512.5 L 284 522.5 L 284 524.5 L 289 540.5 Q 286.5 542 290 543.5 Q 300.5 576.5 323.5 597 L 340.5 609 Q 342 606.5 343.5 610 L 357.5 615 L 359.5 615 L 370.5 617 L 379.5 617 L 380.5 616 L 394.5 615 L 410.5 608 L 430 591.5 Q 429.3 589.3 431.5 590 L 445 571.5 L 451 560.5 L 451 557.5 L 458 541.5 L 457 539.5 L 459 533.5 L 460 516.5 L 457 504.5 L 462.5 501 L 472.5 500 L 476.5 502 L 478.5 501 L 490 509 L 489 517.5 L 489.5 519 Q 486.5 517.5 488 511.5 L 482.5 506 L 473.5 502 L 465.5 502 L 460.5 505 L 459 504.5 L 461 510.5 L 461 512.5 L 461 529.5 L 460 530.5 L 461 532.5 L 459 538.5 L 458 548 L 456 548.5 L 456 550.5 L 454 554.5 L 454 556.5 L 451 561.5 L 451 563.5 L 448 567.5 L 448 569.5 L 446.5 572 L 445 572.5 L 445 574.5 Q 440.5 585 432.5 592 Q 431.3 589.8 430 592.5 Q 432.3 593.8 429.5 595 Q 427.3 594.3 428 596.5 L 425 598 L 420.5 604 L 416.5 607 L 415 606.5 Q 415.8 608.8 413.5 608 L 408.5 612 L 407.5 611 L 404.5 614 L 402.5 614 L 388.5 619 Q 386.5 615 384.5 619 L 379.5 618 Q 378.3 620.3 373.5 619 L 370.5 618 L 367.5 619 Q 366 615.5 364.5 618 L 362.5 617 L 360.5 617 L 348.5 615 L 346.5 613 Q 345 615.5 343.5 612 L 341.5 611 L 339 612 Q 340.1 609.3 337.5 610 L 335 609 L 334.5 607 L 333 607.5 Q 333.8 605.3 331.5 606 L 326 601.5 L 324.5 599 Q 319.5 599.5 319 595.5 Q 319.8 593.3 317.5 594 L 315 593 L 308.5 582 L 307 582.5 L 303 576.5 L 303.5 575 L 301 573.5 L 300 571.5 L 300.5 570 Q 298.3 570.8 299 568.5 Q 295.9 566.8 297.5 565 Q 295.3 565.8 296 563.5 L 291 554.5 L 283 528.5 L 283.5 527 L 282 526.5 L 282 524.5 L 279 512.5 L 279 510.5 L 279 505.5 L 277 498.5 L 277 496.5 L 277 477.5 L 276 476.5 Q 278.3 475.3 275.5 474 Q 274.3 476.3 273 473.5 L 270 468.5 Q 272.5 467 269 465.5 L 268 463.5 L 268.5 462 Q 265.8 462.6 267 456.5 L 265 451.5 L 265 449.5 L 265 424.5 Q 268 421.3 267 415 L 271.5 414 L 274.5 415 L 274.5 414 L 273 413.5 L 275.5 413 L 277.5 413 L 279.5 414 L 282.5 413 L 288.5 413 L 289 411 L 290.5 411 L 294.5 408 L 295.5 409 L 299.5 407 L 303.5 406 L 307.5 406 L 309 405.5 L 308.5 404 L 313 405 L 313.5 403 L 316 403.5 L 316.5 405 L 320 404 L 320.5 402 L 324.5 403 L 327.5 402 L 330.5 401 L 332.5 401 L 338 402 Q 336.8 399 340.5 400 L 343.5 399 Q 348.3 400.2 349.5 398 L 351.5 398 Q 356.3 399.2 357.5 397 L 359.5 397 L 362.5 396 L 366.5 397 L 368.5 396 L 370.5 396 L 376.5 395 L 379.5 396 L 381.5 395 L 383.5 395 L 398 395.5 Q 394.9 397.9 388.5 397 L 386.5 397 L 366.5 399 L 364.5 399 L 334.5 403 L 328.5 405 L 322.5 405 L 293.5 411 Q 292.3 408.8 291 411.5 L 291.5 413 L 311.5 413 L 312.5 414 L 325.5 415 L 327.5 415 L 333.5 415 L 344.5 418 L 346.5 418 L 357.5 421 L 359.5 421 L 382.5 426 L 444.5 426 L 454.5 423 L 456.5 424 L 480.5 414 L 483.5 415 L 487.5 413 L 505.5 412 L 506.5 413 L 515.5 413 L 525.5 415 L 527.5 415 L 536.5 416 L 543.5 419 L 545.5 418 L 555.5 422 L 557.5 421 L 563.5 424 L 565.5 424 L 585.5 433 L 588.5 436 L 594.5 438 L 603.5 445 L 609.5 447 L 619.5 454 L 621.5 454 L 628.5 457 L 630.5 457 L 638.5 456 Q 640 458.5 641.5 455 Q 648.7 453.2 652 447.5 Q 654.3 437.3 648.5 435 L 627.5 424 L 590.5 409 L 558.5 400 L 540.5 398 L 539.5 397 L 530.5 397 L 526.5 395 Q 524.8 397.8 518.5 396 L 507.5 394 L 505.5 394 L 441.5 394 L 439.5 393 L 438.5 394 L 423.5 394 L 422.5 395 L 410.5 395 L 409.5 396 L 407.5 396 L 399.5 396 L 399 394 L 405.5 393 L 407.5 393 L 412.5 394 L 423.5 392 Z M 515 393 L 515 394 L 517 394 L 515 393 Z M 771 436 L 771 438 L 773 437 L 771 436 Z M 461 462 L 461 463 L 463 463 L 461 462 Z " /><path fill="rgb(254,254,254)" stroke="rgb(254,254,254)" stroke-width="1" opacity="1" d="M 361.5 394 L 364 394.5 L 360.5 396 L 361.5 394 Z " /><path fill="rgb(254,254,254)" stroke="rgb(254,254,254)" stroke-width="1" opacity="1" d="M 243.5 402 L 247 405.5 L 244.5 408 Q 241.9 408.8 243 405.5 L 242.5 404 L 244.5 405 L 243.5 402 Z " /><path fill="rgb(254,254,254)" stroke="rgb(254,254,254)" stroke-width="1" opacity="1" d="M 243.5 409 L 244 413.5 L 242 413.5 L 241 417.5 L 241 419.5 L 242 421.5 L 240.5 422 L 239 418.5 L 242 411.5 L 241.5 410 L 243.5 409 Z " /><path fill="rgb(254,254,254)" stroke="rgb(254,254,254)" stroke-width="1" opacity="1" d="M 238.5 425 L 240 426.5 L 240 456.5 L 241 461.5 L 240.5 463 L 242 463.5 L 242 465.5 L 243 467.5 L 243 469.5 L 246 474.5 L 245 475.5 Q 249.2 477.8 247.5 480 L 250 480.5 L 250 494.5 L 251 496.5 L 250 499.5 L 252 506.5 L 252 508.5 Q 253.7 516.3 249.5 518 L 251 515.5 L 251 510 Q 246.9 511.7 248 507.5 L 249 504.5 L 249 490.5 L 248 489.5 L 248 481 L 246 481.5 L 246.5 483 Q 243.8 481.8 246 480.5 L 247 478.5 L 244.5 478 L 243 478.5 L 244.5 476 Q 242.3 476.8 243 474.5 L 242.5 472 L 241 471.5 L 242 469.5 L 240 467.5 L 239 462.5 L 240 457.5 L 238 457.5 L 239 456.5 L 239 426.5 L 238.5 425 Z " /><path fill="rgb(254,254,254)" stroke="rgb(254,254,254)" stroke-width="1" opacity="1" d="M 843.5 425 L 844 428.5 L 843 428.5 L 843.5 425 Z " /><path fill="rgb(254,254,254)" stroke="rgb(254,254,254)" stroke-width="1" opacity="1" d="M 840.5 427 L 841 430.5 L 840 430.5 L 840.5 427 Z " /><path fill="rgb(254,254,254)" stroke="rgb(254,254,254)" stroke-width="1" opacity="1" d="M 236.5 429 L 237 450.5 L 236 450.5 L 236.5 429 Z " /><path fill="rgb(254,254,254)" stroke="rgb(254,254,254)" stroke-width="1" opacity="1" d="M 840.5 436 L 843 445.5 L 841 445.5 Q 841.9 453.9 839 458.5 L 839.5 460 Q 836.8 460.6 838 454.5 L 839 451.5 L 840 449.5 Q 837.8 448.3 839 443.5 L 839 441.5 L 840.5 436 Z " /><path fill="rgb(254,254,254)" stroke="rgb(254,254,254)" stroke-width="1" opacity="1" d="M 837 463 Q 839.7 461.9 839 464.5 L 838 469.5 L 834.5 474 L 835 472.5 L 836 470.5 L 836 468.5 L 837 466.5 L 837 464.5 L 837 463 Z " /><path fill="rgb(254,254,254)" stroke="rgb(254,254,254)" stroke-width="1" opacity="1" d="M 833 475 L 836 476.5 L 834 478.5 L 835.5 481 Q 832.2 479.9 833 482.5 L 834.5 485 L 832 483.5 Q 833 488.5 830 489.5 L 830.5 491 L 829 490.5 L 830 492.5 L 827 496.5 L 828.5 499 Q 827.3 496.8 826 499.5 Q 826.8 501.8 824.5 501 L 825.5 503 L 827 502.5 Q 825.3 505.8 823.5 502 L 822 502.5 L 824 507.5 Q 822 511.2 820 509.5 L 821 511.5 L 819.5 511 L 817 512.5 Q 817.8 514.8 815.5 514 L 813 515.5 L 815 518.5 L 813 517.5 L 812.5 516 L 812 518 Q 807.9 516.3 809 520.5 L 810 520.5 Q 809.3 518.3 811.5 519 L 812.5 521 L 811.5 520 L 808.5 523 L 806.5 522 L 805 525.5 L 805.5 527 L 803.5 526 L 802.5 529 L 798.5 527 L 798.5 529 L 796 530.5 L 796.5 532 L 794 530.5 L 795 532.5 L 793.5 533 L 791.5 533 L 790 533.5 L 790.5 535 L 786 533 Q 784.9 535.7 787.5 535 L 787.5 536 L 783.5 535 L 779.5 537 L 777 536 L 778 538.5 L 776.5 538 L 770 539 Q 771.1 541.7 768.5 541 L 766 542.5 L 766.5 544 L 763 542 Q 764.1 544.7 761.5 544 L 761.5 546 L 759 542.5 L 761 542.5 Q 760.2 539.9 763.5 541 L 775.5 535 Q 776.8 537.3 778 534.5 Q 777.3 531.9 780 533 Q 778.9 535.7 781.5 535 L 782.5 532 L 785.5 532 L 791.5 529 L 793.5 529 L 803.5 523 L 805 523.5 Q 803.9 520.2 806.5 521 L 809.5 517 Q 811.8 517.8 811 515.5 L 815 513.5 Q 812.8 512.3 815.5 511 Q 816.8 513.3 818 510.5 L 817.5 509 L 819 509 L 819 506 Q 821.7 507.1 821 504.5 L 822.5 501 L 824 500.5 L 824 498.5 L 833 480.5 L 833 478.5 L 833 475 Z M 790 531 L 788 533 L 790 533 L 790 531 Z " /><path fill="rgb(254,254,254)" stroke="rgb(254,254,254)" stroke-width="1" opacity="1" d="M 248.5 511 L 249 513.5 L 248 513.5 L 248.5 511 Z " /><path fill="rgb(254,254,254)" stroke="rgb(254,254,254)" stroke-width="1" opacity="1" d="M 252.5 519 L 255 531.5 L 253 532.5 L 254 529.5 L 252 526.5 Q 253.2 521.8 251 520.5 L 252.5 519 Z " /><path fill="rgb(254,254,254)" stroke="rgb(254,254,254)" stroke-width="1" opacity="1" d="M 488.5 520 L 489 524 Q 486 525.3 487 521.5 L 488.5 520 Z " /><path fill="rgb(254,254,254)" stroke="rgb(254,254,254)" stroke-width="1" opacity="1" d="M 489.5 526 L 490 527.5 L 489 528.5 L 489 538.5 L 495 566.5 L 499 574.5 L 499 576.5 L 502 582.5 L 502 584.5 L 511 604.5 L 514 607.5 L 513 608.5 L 517 612.5 L 520 619.5 L 529 632 Q 531.7 630.9 531 633.5 L 536.5 640 Q 538.8 639.3 538 641.5 L 543 645.5 L 544.5 648 L 555.5 657 L 579.5 670 L 606 677.5 L 601.5 678 L 597.5 678 L 591.5 675 L 589.5 675 L 583.5 673 L 581.5 673 L 577.5 671 L 576 671.5 L 576.5 670 L 573.5 670 L 567.5 666 L 566 666.5 L 565.5 665 L 564 665.5 L 564.5 664 L 560 663 L 560 661 Q 557.3 662.1 558 659.5 Q 556.3 661.1 554.5 658 L 550 654.5 L 549.5 653 L 548 653.5 Q 548.8 650.9 545.5 652 L 545.5 651 L 547 650.5 L 543 648.5 L 542.5 647 L 541.5 648 L 533 639.5 L 533.5 638 L 527 632.5 L 527.5 631 L 523 627.5 L 521 624.5 L 521.5 623 L 518 620.5 L 515 615.5 Q 517.3 614.3 514.5 613 Q 512.3 613.8 513 611.5 L 512.5 609 Q 510.3 609.8 511 607.5 L 507 601.5 L 507.5 600 Q 504.9 600.8 506 597.5 L 500 586.5 L 500 584.5 L 497 578.5 L 497 576.5 L 494 569.5 L 494 567.5 L 491 558.5 L 491 556.5 L 488 542.5 L 489 540.5 L 488 539.5 L 488 528.5 L 489.5 526 Z " /><path fill="rgb(254,254,254)" stroke="rgb(254,254,254)" stroke-width="1" opacity="1" d="M 255.5 533 L 258 539.5 L 255 541 L 254 535.5 L 255.5 533 Z " /><path fill="rgb(254,254,254)" stroke="rgb(254,254,254)" stroke-width="1" opacity="1" d="M 715.5 540 L 716 565.5 L 717 566.5 L 716 569.5 L 715 579.5 L 718 581.5 L 716 585.5 L 717 586.5 L 716.5 588 L 716 586 L 714 586.5 L 715 588.5 L 714 590.5 Q 717.5 592 715 593.5 L 716 595.5 L 712 597.5 L 712.5 599 L 714 598.5 L 713.5 601 Q 712.3 598.8 711 601.5 L 712 603.5 L 708 613.5 L 708 615.5 L 706 623.5 L 702 629.5 L 702 631.5 L 699 635.5 L 699 637.5 L 696 644 L 694 644.5 L 694 646.5 L 689 654 L 684 656.5 Q 684.8 658.8 682.5 658 L 675.5 666 L 671.5 669 L 670.5 668 L 666.5 672 L 650.5 678 L 648.5 678 L 638.5 680 L 630.5 680 L 629.5 681 L 627.5 681 L 615.5 680 L 614.5 679 L 612.5 680 L 610.5 680 L 607.5 679 L 606 679.5 L 607 677 L 624.5 679 L 626.5 679 L 631.5 678 L 633.5 678 L 650.5 676 L 667.5 669 Q 680.5 660.5 690 648.5 L 699 634.5 L 706 618.5 L 706 616.5 L 712 595.5 L 711 592.5 L 713 585.5 L 714 568.5 L 715 567.5 L 715.5 540 Z " /><path fill="rgb(254,254,254)" stroke="rgb(254,254,254)" stroke-width="1" opacity="1" d="M 257.5 542 L 258 543.5 L 256 544.5 L 257.5 542 Z " /><path fill="rgb(254,254,254)" stroke="rgb(254,254,254)" stroke-width="1" opacity="1" d="M 757.5 543 L 759 545.5 L 757.5 545 Q 755.3 544.3 756 546.5 L 756.5 548 L 753.5 547 L 753.5 549 L 751 545.5 L 753.5 544 L 755.5 545 L 757.5 543 Z " /><path fill="rgb(254,254,254)" stroke="rgb(254,254,254)" stroke-width="1" opacity="1" d="M 258.5 545 L 264 560.5 L 264 562.5 L 266 566.5 L 265.5 568 L 267 568.5 Q 264.5 570 268 571.5 L 267 573.5 L 270 575.5 Q 267.5 577 271 578.5 L 276 587.5 L 275.5 589 Q 277.8 588.3 277 590.5 Q 280.1 592.3 278.5 594 L 281 595.5 L 282 597.5 L 281.5 599 L 284 600.5 Q 281.8 601.8 284.5 603 L 288 605.5 L 287.5 607 L 291 608.5 L 289 609.5 Q 290.3 612.3 291.5 610 L 295 613.5 Q 294.3 615.8 296.5 615 Q 299.9 621.1 307 623.5 L 303.5 625 L 300.5 623 Q 299.3 625.3 298 622.5 Q 300.8 620.7 296.5 619 L 295 619.5 Q 297.8 617.8 293.5 616 L 292 616.5 Q 294.7 614.8 290.5 613 L 289 613.5 L 290 611 L 287.5 612 L 288 610.5 L 287 607 L 284.5 608 L 285 606.5 L 286 604.5 L 282 603 L 280.5 599 L 278.5 600 L 279 598.5 L 278 594 L 275.5 595 L 276 593.5 L 275.5 592 Q 273.7 594.8 272 590.5 L 272.5 589 L 274.5 592 Q 278.2 589.7 273 587.5 L 272 583 Q 269.3 584.1 270 581.5 L 267 580.5 L 270 579.5 L 269 577 L 267 576.5 Q 269.8 574.7 265.5 573 L 264 573.5 L 266 570 Q 263 571.3 264 567.5 L 263.5 565 L 261.5 566 L 263 563.5 Q 263.7 560.9 261 562 L 261 559.5 L 259 559.5 L 261 556.5 L 259 555.5 L 260 553.5 L 257.5 549 L 256 549.5 L 258.5 545 Z " /><path fill="rgb(254,254,254)" stroke="rgb(254,254,254)" stroke-width="1" opacity="1" d="M 750.5 557 L 751.5 559 Q 748.7 559.7 750.5 557 Z " /><path fill="rgb(254,254,254)" stroke="rgb(254,254,254)" stroke-width="1" opacity="1" d="M 750.5 560 L 752 566 L 750 566 L 750.5 560 Z " /><path fill="rgb(254,254,254)" stroke="rgb(254,254,254)" stroke-width="1" opacity="1" d="M 750.5 569 Q 752.8 568.3 752 570.5 L 751 574.5 L 751 576.5 L 751 586.5 Q 747.8 585.5 749 591.5 L 749.5 593 Q 746.8 593.6 748 587.5 L 749 584.5 L 749 576.5 L 748 575.5 L 750 575.5 L 749 570.5 L 750.5 569 Z " /><path fill="rgb(254,254,254)" stroke="rgb(254,254,254)" stroke-width="1" opacity="1" d="M 752.5 577 L 753 582.5 L 752 582.5 L 752.5 577 Z " /><path fill="rgb(254,254,254)" stroke="rgb(254,254,254)" stroke-width="1" opacity="1" d="M 469.5 594 Q 473.5 593.5 474 596.5 L 475 598.5 L 475 600.5 L 479 608.5 Q 476.5 610 480 611.5 L 485 622.5 L 484 623.5 L 488 627.5 L 487 628.5 L 490.5 633 L 489 632.5 L 488.5 634 L 488 631 L 486 630.5 L 487 629.5 Q 482.7 627.2 484.5 625 Q 482.3 625.8 483 623.5 L 482 623.5 L 481.5 625 L 481 623.5 L 482 621.5 L 481.5 619 L 479.5 620 L 478 617.5 L 479 617.5 L 479.5 619 Q 482.8 617.3 479 615.5 L 478 613.5 L 478.5 612 L 476.5 613 L 477 611.5 L 476.5 609 L 475.5 611 L 475 609.5 L 476.5 607 L 474.5 608 L 475.5 606 L 477 605.5 L 474 603.5 L 474.5 602 Q 472.3 601.3 473 603.5 L 472 603.5 L 473 596.5 L 469.5 595 L 469.5 596 L 471 596.5 L 470 599 Q 467 597.8 468 601.5 L 471 600.5 L 466.5 606 L 466.5 604 L 464 602.5 L 466 599 L 469 597.5 L 468 595.5 L 469.5 594 Z " /><path fill="rgb(254,254,254)" stroke="rgb(254,254,254)" stroke-width="1" opacity="1" d="M 746.5 596 Q 750.3 594.8 749 598.5 L 747 601.5 L 748 605 Q 745 603.8 746 607.5 L 747 609.5 L 745 608.5 L 747 600.5 L 746 598.5 L 746.5 596 Z " /><path fill="rgb(254,254,254)" stroke="rgb(254,254,254)" stroke-width="1" opacity="1" d="M 749.5 600 L 750 604.5 L 749 604.5 L 749.5 600 Z " /><path fill="rgb(254,254,254)" stroke="rgb(254,254,254)" stroke-width="1" opacity="1" d="M 463.5 604 L 466 607.5 Q 463.5 605.7 461 610.5 L 461.5 612 L 463 611.5 L 458.5 617 L 459 615.5 L 458.5 614 L 456 617.5 Q 458.3 618.8 455.5 620 L 455.5 618 L 453.5 619 Q 452.3 616.8 451 619.5 L 452.5 622 L 454 621.5 Q 452.8 624.3 451.5 622 L 449.5 621 L 449 624 Q 446.3 622.9 447 625.5 L 448.5 625 L 450.5 624 L 449.5 626 L 445.5 629 L 442.5 627 L 441 630.5 L 441.5 632 L 439 631.5 L 438.5 630 L 437 633.5 L 437.5 635 L 435.5 634 Q 437.2 636 433.5 638 L 431.5 639 L 429 637.5 L 430 639.5 L 428.5 639 L 427 639.5 L 427.5 641 L 425.5 640 L 425.5 642 L 422 640 L 421.5 642 L 420 641.5 Q 419.2 644.1 422.5 643 L 424 642.5 L 420.5 644 L 418.5 643 L 418.5 645 L 415.5 643 L 415 645 L 412.5 644 L 412 646 L 414 646.5 L 412.5 647 L 409.5 646 L 407.5 646 Q 405.3 645.3 406 647.5 L 406.5 649 L 402.5 647 L 401.5 649 L 404 649.5 L 401.5 650 L 397 647.5 L 404.5 645 L 406 645.5 Q 405.3 643.3 407.5 644 L 411.5 644 L 414.5 641 Q 417.8 639.9 417 642.5 L 418 642.5 L 419.5 640 L 423.5 638 L 424.5 640 L 426.5 636 L 427.5 637 L 430.5 634 Q 431.8 636.3 433 633.5 Q 432.3 631.3 434.5 632 L 437 631.5 L 439.5 628 L 442 626.5 L 442.5 625 L 445 626 L 445.5 623 Q 446.8 625.3 448 622.5 L 453.5 616 L 456 617 Q 457.1 614.3 454.5 615 L 454.5 614 L 457 614 Q 455.9 611.3 458.5 612 Q 456.7 609.7 461 607.5 L 463.5 604 Z M 459 612 L 459 614 L 461 613 L 459 612 Z " /><path fill="rgb(254,254,254)" stroke="rgb(254,254,254)" stroke-width="1" opacity="1" d="M 744.5 610 L 746 612.5 L 743 620.5 L 743.5 622 L 741 621.5 L 743 617.5 L 742 614.5 L 745 612.5 L 744.5 610 Z " /><path fill="rgb(254,254,254)" stroke="rgb(254,254,254)" stroke-width="1" opacity="1" d="M 746.5 614 L 747 617.5 L 746 617.5 L 746.5 614 Z " /><path fill="rgb(254,254,254)" stroke="rgb(254,254,254)" stroke-width="1" opacity="1" d="M 740.5 623 Q 743.8 621.9 743 624.5 L 744 627.5 L 743 627.5 Q 744.1 624.2 741.5 625 L 742 626.5 L 741.5 629 L 740 628.5 L 741 630.5 L 738 630.5 L 741 624.5 L 740.5 623 Z " /><path fill="rgb(254,254,254)" stroke="rgb(254,254,254)" stroke-width="1" opacity="1" d="M 307.5 625 L 307.5 627 L 311 627 Q 309.8 630 313.5 629 L 321 633.5 L 320.5 635 L 325 636 L 325.5 638 L 327.5 637 L 334.5 641 Q 335.8 638.8 337 641.5 L 337.5 643 L 338.5 641 L 339.5 644 L 343.5 643 L 346.5 645 L 348.5 644 L 353.5 647 L 355.5 647 L 366.5 649 L 367.5 648 L 384.5 648 L 386.5 649 L 396 647 Q 397.7 651.1 393.5 650 L 389 649 L 388.5 651 L 365 651 Q 366.4 647 359.5 649 L 358 649.5 Q 358.8 646.9 355.5 648 L 348.5 650 L 348.5 649 L 352 648.5 L 345.5 646 L 344 646.5 L 344.5 645 L 341.5 646 L 330 642 Q 331.1 639.3 328.5 640 L 325.5 639 L 322.5 640 L 322.5 636 L 320 637.5 L 320.5 639 L 317 636.5 Q 319.3 635.2 316.5 634 L 314.5 635 L 314.5 633 L 312.5 632 L 310.5 632 L 308 630.5 Q 310.8 628.7 306.5 627 L 305 627.5 L 305.5 629 Q 302.5 627.5 305.5 626 L 307.5 625 Z M 313 630 L 314 632 Q 315 629 313 630 Z M 320 635 L 318 637 L 320 637 L 320 635 Z " /><path fill="rgb(254,254,254)" stroke="rgb(254,254,254)" stroke-width="1" opacity="1" d="M 737 632 L 740 632.5 L 739 637 L 737 637.5 L 737.5 639 L 735 640.5 L 736 644 L 734 644.5 L 734.5 646 L 732 646.5 L 734 647.5 L 731.5 652 Q 730.3 649.8 729 652.5 L 731 653.5 L 730 656 Q 727 654.8 728 658.5 L 727 661 L 724 662.5 L 727 663.5 L 723.5 668 Q 722.3 665.8 721 668.5 L 721.5 670 L 723 669.5 Q 721.5 672.5 720 669.5 L 719.5 668 L 718 673.5 Q 720.8 675.2 716.5 677 Q 714.8 674.2 713 678.5 L 713.5 680 Q 711.8 677.3 710 681.5 L 710.5 683 Q 709.3 680.8 708 683.5 L 709 684.5 L 703.5 690 L 701 688.5 L 699.5 691 Q 697.3 690.3 698 692.5 L 698.5 694 L 695 691.5 L 698 690.5 L 698 688 Q 700.7 689.1 700 686.5 L 708 681.5 L 707.5 680 Q 709.8 680.8 709 678.5 L 712 677 L 714 672 Q 716.7 673.1 716 670.5 Q 717.3 666.2 722 667 L 721.5 665 L 720 665.5 L 724.5 660 L 726 659.5 L 726 657.5 Q 725.3 655.3 727.5 656 L 727.5 654 L 729 653.5 L 728 652.5 L 731 649.5 L 732 647.5 L 731 646.5 Q 735.2 644.3 733.5 642 L 735 641.5 Q 732.5 640 736 638.5 L 737 635.5 L 737 633.5 L 737 632 Z M 725 664 L 723 667 L 725 666 L 725 664 Z " /><path fill="rgb(254,254,254)" stroke="rgb(254,254,254)" stroke-width="1" opacity="1" d="M 490.5 634 L 491.5 636 L 488.5 637 L 487.5 635 Q 489 637.5 490.5 634 Z " /><path fill="rgb(254,254,254)" stroke="rgb(254,254,254)" stroke-width="1" opacity="1" d="M 740.5 634 Q 743.5 635.5 740.5 637 L 740.5 634 Z " /><path fill="rgb(254,254,254)" stroke="rgb(254,254,254)" stroke-width="1" opacity="1" d="M 490.5 637 L 492.5 638 L 494 637.5 L 497 642.5 L 496.5 644 L 500 646.5 L 502 649.5 Q 499.8 650.8 502.5 652 L 506 654.5 L 505.5 656 Q 508.1 655.2 507 658.5 L 508.5 658 L 515 664.5 L 512 666 L 513 663.5 L 511 662.5 L 510 664.5 L 510.5 666 L 508 663.5 L 508.5 661 L 510 660.5 L 506 658.5 Q 506.8 656.3 504.5 657 L 503.5 658 L 499 653.5 L 501 653.5 L 499.5 651 Q 497.8 653.7 496 649.5 L 498 645.5 L 492 640.5 L 491.5 639 L 490.5 641 L 490 639.5 L 490.5 637 Z " /><path fill="rgb(254,254,254)" stroke="rgb(254,254,254)" stroke-width="1" opacity="1" d="M 369.5 652 L 382 652.5 L 369.5 653 L 369.5 652 Z " /><path fill="rgb(254,254,254)" stroke="rgb(254,254,254)" stroke-width="1" opacity="1" d="M 730.5 657 L 729.5 659 L 730.5 657 Z " /><path fill="rgb(254,254,254)" stroke="rgb(254,254,254)" stroke-width="1" opacity="1" d="M 505.5 660 L 506.5 662 L 505.5 660 Z " /><path fill="rgb(254,254,254)" stroke="rgb(254,254,254)" stroke-width="1" opacity="1" d="M 516.5 666 L 518.5 670 Q 519.8 667.8 521 670.5 L 518 672 Q 519.1 669.3 516.5 670 L 515 667.5 L 516.5 666 Z " /><path fill="rgb(254,254,254)" stroke="rgb(254,254,254)" stroke-width="1" opacity="1" d="M 522.5 672 L 524.5 675 L 523 674.5 L 523 676 L 528 676 L 528 678.5 L 533 679.5 Q 530.8 680.8 533.5 682 L 535 681.5 Q 534.3 683.8 536.5 683 L 547 690 L 547.5 692 Q 549 689.5 550.5 693 L 555 694 L 555 696 Q 558.7 694.5 558 697.5 L 559.5 697 Q 561.8 696.3 561 698.5 L 563 698.5 L 563.5 700 L 565.5 700 L 567.5 701 L 569.5 701 L 575.5 704 L 577 703.5 L 576.5 705 L 579.5 706 L 582.5 705 L 586.5 707 L 595 708 L 595.5 710 L 597.5 710 L 600 710.5 L 596.5 712 L 592.5 711 L 589.5 712 L 589.5 711 L 592 709.5 L 588.5 709 L 586.5 710 L 585.5 707 L 584 707.5 L 584.5 709 L 582.5 710 L 582.5 708 L 575.5 705 L 573.5 705 L 567.5 702 L 565.5 702 L 563 702 Q 564.3 699 560.5 700 L 555.5 697 L 553 698.5 L 554 696 L 551 695.5 L 551.5 694 L 548.5 693 L 547.5 696 L 546.5 693 L 544.5 694 L 545 692.5 L 543.5 689 L 541.5 692 L 541.5 690 L 539.5 691 L 540 689.5 Q 540.8 687.3 538.5 688 L 536.5 687 L 536.5 689 Q 533.8 687.8 536 686.5 L 535.5 685 L 532 685.5 L 532 683.5 L 530.5 680 L 528.5 683 Q 525.8 681.8 528 680.5 Q 528.8 678.3 526.5 679 L 522.5 676 Q 521.3 678.3 520 675.5 L 520.5 673 L 522.5 672 Z " /><path fill="rgb(254,254,254)" stroke="rgb(254,254,254)" stroke-width="1" opacity="1" d="M 523.5 678 L 524.5 680 L 523.5 678 Z " /><path fill="rgb(254,254,254)" stroke="rgb(254,254,254)" stroke-width="1" opacity="1" d="M 692.5 693 L 695 693.5 L 694 695.5 L 694.5 697 L 691.5 699 L 689 697.5 Q 689.9 700.5 685.5 699 L 686.5 702 L 684 700.5 L 685 702.5 L 683.5 702 L 682 702.5 L 682.5 704 Q 680 702.8 681 699 L 683.5 700 L 687 697.5 L 686.5 696 Q 688 698.5 689.5 695 L 692.5 693 Z " /><path fill="rgb(254,254,254)" stroke="rgb(254,254,254)" stroke-width="1" opacity="1" d="M 679.5 700 L 680 704 L 675 705 L 674 702.5 L 676.5 702 L 678.5 703 L 679.5 700 Z " /><path fill="rgb(254,254,254)" stroke="rgb(254,254,254)" stroke-width="1" opacity="1" d="M 671.5 704 L 674 704.5 L 672.5 707 Q 671 704.5 669.5 708 L 668 708.5 L 668.5 710 L 665.5 708 L 665 709.5 L 665.5 711 Q 664.4 708.3 661 709 Q 662.3 712.3 657.5 711 L 654.5 712 L 651 710.5 L 657.5 708 L 659.5 708 L 665.5 707 L 667.5 705 L 669.5 705 L 671.5 704 Z " /><path fill="rgb(254,254,254)" stroke="rgb(254,254,254)" stroke-width="1" opacity="1" d="M 601.5 710 L 604.5 711 L 606 711.5 L 601 713 L 601.5 710 Z " /><path fill="rgb(254,254,254)" stroke="rgb(254,254,254)" stroke-width="1" opacity="1" d="M 607.5 711 L 611.5 712 L 613.5 712 L 618.5 711 L 620.5 712 L 622.5 712 Q 628.8 710.2 630.5 713 Q 632 710.5 637.5 712 L 639 712.5 L 639.5 711 L 641.5 712 L 644.5 711 L 648.5 712 L 650.5 712 L 652 712.5 L 650.5 713 L 647.5 712 L 646 712 L 645.5 714 L 634.5 714 Q 632.7 716.8 626.5 715 L 624.5 714 L 622.5 715 L 621.5 714 L 609 714 Q 610.1 711.3 607.5 712 L 607.5 711 Z " /><path fill="rgb(255,255,255)" stroke="rgb(255,255,255)" stroke-width="1" opacity="1" d="M 0 0 L 1080 0 L 1080 1080 L 0 1080 L 0 0 Z M 411 364 L 410 365 L 390 366 L 389 367 L 374 367 L 364 369 L 356 369 L 355 370 L 342 370 L 336 372 L 317 373 L 307 376 L 300 376 L 296 378 L 287 379 L 280 382 L 275 382 L 269 385 L 266 385 L 253 392 L 243 403 L 239 411 L 239 417 L 236 430 L 236 451 L 237 452 L 236 454 Q 239 455 237 462 L 239 466 L 239 471 L 247 484 L 248 514 L 251 525 L 251 532 L 254 540 L 254 545 L 257 551 L 257 555 L 263 569 L 263 572 L 266 576 L 266 579 L 272 588 L 272 591 L 281 604 Q 280 606 283 605 L 287 612 Q 304 631 329 643 Q 331 642 330 645 L 332 644 L 349 650 L 369 652 L 370 653 L 382 653 L 384 653 L 404 650 L 409 648 L 411 648 L 420 644 L 423 644 L 434 638 L 451 625 Q 450 622 453 623 L 454 620 L 457 619 Q 456 616 459 617 L 472 600 L 478 616 L 478 619 L 494 646 Q 493 648 496 647 L 496 650 L 507 662 Q 509 661 508 664 L 519 674 L 520 674 L 522 677 Q 524 676 523 679 L 548 696 L 575 708 Q 578 707 577 710 L 579 709 L 605 715 L 636 716 L 638 716 Q 642 714 651 715 L 673 709 L 689 701 L 704 690 Q 728 671 739 639 L 742 636 L 741 635 L 747 618 L 747 612 L 750 605 L 750 597 L 753 586 L 752 584 L 753 583 L 753 563 L 754 562 L 753 559 L 754 548 Q 769 544 781 537 L 791 535 L 803 529 L 813 521 L 824 508 L 833 491 L 833 487 L 836 483 L 836 479 L 839 473 L 839 468 L 842 459 L 842 447 L 844 438 L 844 426 L 843 425 L 842 407 L 840 404 L 838 395 L 833 387 Q 834 384 832 385 L 830 383 L 826 379 L 824 376 Q 819 377 817 373 Q 810 375 809 372 L 793 374 L 783 379 L 776 385 Q 773 384 774 387 Q 763 393 756 403 L 753 402 L 750 399 L 749 400 L 746 397 L 735 392 L 704 382 L 699 382 L 691 379 L 686 379 L 678 376 L 670 376 L 657 373 L 638 372 L 636 372 L 627 370 L 612 370 L 601 368 L 592 368 L 591 367 L 566 367 L 565 366 L 553 366 L 552 365 L 540 365 L 539 364 L 416 364 L 415 365 L 411 364 Z " /><path fill="rgb(255,255,255)" stroke="rgb(255,255,255)" stroke-width="1" opacity="1" d="M 406.5 366 L 426 366.5 L 406 367.5 Q 408.4 370.1 414.5 369 L 419.5 368 Q 427 369.5 430.5 367 L 433.5 368 L 436.5 367 L 500.5 367 L 502.5 368 Q 504.2 365.2 509.5 366 L 509.5 367 L 507 368.5 L 519.5 369 L 521 368.5 L 520.5 370 L 523.5 369 L 524.5 370 L 527 368.5 L 526.5 370 L 529.5 369 L 532.5 370 L 537.5 369 Q 538.8 371.3 540 368.5 L 539.5 367 L 550 367.5 L 541 368.5 L 553.5 370 Q 555 366.5 556.5 369 L 558 369.5 L 556 370.5 L 558.5 371 L 562.5 369 L 565.5 370 L 566 368 L 572 369.5 L 568.5 370 Q 567.3 367.8 566 370.5 L 572.5 371 L 574.5 371 L 580.5 369 L 580.5 370 L 579 370.5 L 581.5 371 L 583.5 371 L 591 372 Q 592.1 368.5 584.5 370 L 584.5 369 L 601 370.5 L 592 371.5 L 598.5 373 L 611.5 373 L 612.5 374 L 615.5 372 L 615.5 373 L 614 373.5 L 616.5 374 L 626.5 372 L 628.5 372 L 630 372.5 L 628 373 Q 626.8 376 630.5 375 L 634.5 376 L 637 374.5 L 633 373.5 L 636.5 373 L 637.5 376 L 639.5 377 Q 640.3 374.3 644.5 375 L 644.5 376 L 641 376.5 L 645.5 377 L 647.5 377 L 650.5 375 L 650.5 377 L 657 378 L 656 375.5 L 659.5 376 L 665 376.5 L 661 377.5 L 664.5 379 L 666.5 379 L 670.5 377 L 670.5 378 L 669 378.5 L 671.5 380 Q 672.9 377.4 677.5 378 L 682 379 Q 680.3 383.5 685.5 382 L 687.5 383 L 691.5 381 L 696 382.5 L 694 383.5 L 697.5 385 L 699.5 385 L 703.5 384 L 708 385 Q 706.5 388.7 709.5 388 L 711 387.5 L 711.5 389 L 714.5 387 L 718 388.5 L 715 389.5 L 716.5 391 L 720.5 391 L 724.5 393 L 725.5 391 L 726 393 L 728.5 392 L 728 393.5 L 728.5 395 L 731.5 393 L 731.5 394 Q 729.3 393.3 730 395.5 Q 731.8 393.9 733.5 397 L 736.5 398 Q 738 394.5 739.5 397 Q 741.8 396.3 741 398.5 L 740.5 400 L 742.5 401 L 745 399.5 L 745 401.5 Q 744.3 403.8 746.5 403 L 746 401.5 L 746.5 400 L 747 402 L 751 403.5 Q 750.3 405.8 752.5 405 L 752.5 407 L 756 406.5 L 754 405.5 L 755.5 405 L 758.5 406 L 764 400.5 Q 761.8 399.3 764.5 398 Q 765.8 400.2 767 397.5 Q 764.8 396.3 767.5 395 L 769.5 395 L 772 393.5 L 770.5 393 L 768.5 394 L 768.5 393 L 771.5 392 Q 773.2 394.8 775 390.5 L 774 388 L 777 386.5 L 777.5 385 L 778.5 387 Q 780.2 383.9 782 385.5 Q 782.8 383.3 780.5 384 L 782.5 381 L 782 382.5 L 782.5 384 L 785 382.5 L 784.5 381 L 786.5 382 L 786 380.5 L 787.5 378 L 790.5 380 L 791.5 378 L 794.5 379 L 793.5 377 L 792 376.5 L 795.5 375 L 795 376.5 Q 794.3 378.8 796.5 378 Q 797.3 374.3 802.5 375 L 804.5 376 L 808.5 375 L 808.5 376 L 806 376.5 L 812.5 377 L 816.5 375 L 819 376 L 819.5 380 L 822 379 L 822.5 381 L 823.5 379 L 825.5 382 Q 826.8 379.8 828 382.5 Q 825.8 383.8 828.5 385 L 830 385.5 L 828 386.5 L 834 390.5 L 832.5 393 L 836 394 L 837 397.5 Q 833.5 399 836 400.5 L 838 406.5 L 838 411.5 L 840 414.5 L 839 416.5 L 840 421.5 L 840.5 425 L 841.5 421 L 842 437.5 L 841 437.5 L 840.5 436 L 839 441.5 L 839 443.5 Q 837.8 448.3 840 449.5 L 838 452.5 L 838 454.5 L 839 463 Q 836.3 461.9 837 464.5 L 836 467.5 L 835 469.5 L 837 473.5 L 835.5 476 L 833 475 L 832 479.5 L 834 482.5 L 832.5 485 L 831.5 483 L 829 489.5 L 831 489.5 L 828.5 493 L 829 491.5 L 828.5 490 L 825 496.5 L 826.5 497 L 828 496.5 L 825.5 498 L 824 497.5 L 823 499.5 Q 826.5 501 824 502.5 L 823.5 504 Q 822.3 501.7 821 504.5 Q 821.7 507.1 819 506 L 819 509 L 817.5 509 L 819 511.5 L 817.5 513 Q 816.2 510.7 815 513.5 Q 817.3 514.8 814.5 516 L 813 516 L 813 519 Q 809.2 517.5 810 520.5 L 807 522 L 805.5 525 Q 804 521.5 802.5 524 L 801 524.5 L 801.5 526 L 799.5 526 L 798 526.5 L 801 527.5 L 798.5 528 L 796.5 528 L 792.5 530 L 790.5 530 L 789 530.5 L 790 533 L 786.5 534 L 786.5 533 L 789 531.5 L 786.5 531 L 782 532.5 Q 784.3 533.8 781.5 535 L 777.5 537 L 774.5 535 L 774.5 537 L 772.5 536 L 769 537.5 L 772 539.5 L 770.5 540 Q 769 536.5 767.5 539 L 765 539.5 L 765.5 541 L 763.5 541 Q 760.2 539.9 761 542.5 L 759 542.5 L 760 544.5 L 756.5 546 L 754.5 545 L 752.5 545 L 751 545.5 L 752 546.5 L 752 557.5 L 750 557.5 Q 749.3 560.1 752 559 L 752 563.5 L 751 563.5 L 750.5 560 L 750 566 L 752 566.5 L 750 567.5 L 752 568.5 L 749 570.5 L 750 575.5 L 748 585.5 Q 751 586.5 750 591.5 L 749 591.5 L 748.5 587 L 748 592.5 L 749 596 L 746 596.5 L 746 598.5 L 748 601.5 L 746 601.5 L 747 607.5 L 746 607.5 L 745.5 605 L 745 608.5 L 746 611.5 L 742 614.5 L 743 617.5 L 742 620.5 L 743 620.5 L 743.5 619 L 744 620.5 L 743 623 L 740 623.5 L 741.5 626 L 740 625.5 L 741 629.5 L 740 632 Q 736.3 630.5 737 633.5 L 736 636.5 L 737 641 L 733 642.5 L 734.5 645 Q 733.3 642.8 732 645.5 L 734 646.5 L 731 648.5 L 730 650.5 L 731 653 L 727 654.5 L 728.5 657 L 726 656 L 725 658.5 L 725.5 660 L 722 662.5 L 722.5 664 L 721 663.5 L 722 667 L 719 667.5 L 720 670.5 L 719 670.5 L 718.5 668 L 716 672 Q 713.3 670.9 714 673.5 L 712 677 L 709 678.5 Q 709.8 680.8 707.5 680 L 706.5 683 L 704 683.5 L 704.5 685 L 702.5 685 L 701 685.5 Q 704.7 687.3 701.5 689 L 700.5 686 L 700 688 Q 697 686.8 698 690.5 L 698.5 692 Q 697.3 689.8 696 692.5 L 694.5 695 Q 692.8 691.3 691 694.5 L 691.5 696 L 689.5 695 L 685 698.5 L 687 699.5 L 684.5 701 L 681 699 L 680.5 703 L 679.5 700 L 678.5 703 L 676.5 702 L 676.5 704 L 675 703.5 Q 676.1 706.8 673.5 706 L 673.5 704 L 668.5 706 Q 667 703.5 665.5 707 Q 660.8 706.3 659 708.5 L 659.5 710 L 656.5 709 L 651 710.5 L 654 711.5 L 649.5 713 L 647.5 713 L 646 712.5 L 648 711.5 L 644.5 711 L 641.5 712 L 639.5 711 L 638.5 713 Q 637 710.5 631.5 712 L 629.5 712 Q 623.2 713.7 621.5 711 L 619.5 712 L 615.5 711 L 613.5 712 L 611.5 712 L 607.5 711 L 607.5 712 L 609 712.5 L 604.5 713 L 601 710.5 Q 601.8 713.1 598.5 712 L 598.5 711 L 600 710.5 L 596.5 709 L 595 709.5 Q 595.8 706.9 592.5 708 Q 591.3 705.8 586.5 707 L 586.5 709 L 584 707.5 L 586 706.5 L 583.5 706 L 582 706.5 L 582.5 705 L 576.5 707 L 574.5 703 L 572.5 704 L 572.5 703 L 574 702.5 L 568.5 700 L 566.5 700 L 564.5 701 L 562.5 701 L 561 700.5 L 563 700 L 562.5 698 L 561 698.5 Q 561.8 696.3 559.5 697 L 558 697.5 L 558 696 L 555 696 Q 556.1 693.3 553.5 694 L 548.5 691 L 547 691.5 Q 547.8 689.3 545.5 690 L 544 689.5 L 545 691.5 L 543 690.5 L 544 688.5 L 541.5 687 L 539 688.5 L 540.5 686 L 538.5 685 L 537 685.5 Q 539.3 684.3 536.5 683 Q 534.3 682.3 535 684.5 L 535.5 686 L 534 683.5 L 535 681.5 L 531 680.5 L 532 682.5 L 530 681.5 L 528.5 679 L 527 679.5 L 528 676 L 523 676 L 523 674.5 L 519 672.5 Q 521.3 671.3 518.5 670 L 517 670.5 Q 519.8 668.7 515.5 667 Q 514.3 669.3 513 666.5 Q 515.3 665.3 512.5 664 L 511 664.5 L 509.5 661 Q 507.3 661.8 508 659.5 L 507 656 L 503 653.5 L 503.5 652 L 499 649.5 L 501 648.5 L 499.5 646 L 497.5 646 L 495 644.5 Q 498.5 643 496 641.5 L 493.5 637 L 491.5 637 L 490 636.5 L 492 635.5 L 489 634.5 L 490 631.5 Q 488 627.8 486 629.5 L 487 628.5 L 484 625.5 L 484 621.5 L 483.5 620 Q 482.3 622.3 481 619.5 L 483 619.5 L 481.5 614 L 480 614.5 L 480 612.5 L 478 609.5 L 479 607.5 L 477.5 605 L 475 606 L 475.5 604 L 477 604.5 L 475.5 602 L 474 602.5 L 475 600.5 L 474 597.5 L 473.5 596 L 472.5 599 L 472 596 L 468.5 595 L 468 596.5 L 468.5 600 L 466 599 L 465 601.5 L 465.5 605 L 462.5 607 L 461 606.5 L 458 610.5 L 459.5 613 L 457 612 Q 458.3 615 454.5 614 L 454.5 615 Q 457.1 614.3 456 617 L 453 618.5 Q 453.8 620.8 451.5 620 L 449.5 623 L 448.5 621 L 447 623.5 L 447.5 625 L 445 623.5 Q 446.1 626.8 443.5 626 L 442 625.5 L 443 628.5 L 442 628.5 L 441.5 627 L 439 628.5 L 439 630.5 L 438.5 632 L 437.5 630 L 436.5 632 L 434.5 632 Q 432.3 631.3 433 633.5 Q 431.8 636.3 430.5 634 L 426.5 638 L 425 637.5 L 423.5 641 L 419.5 640 L 417.5 643 L 417 641 Q 413.2 640.3 412 643.5 L 412.5 645 L 410.5 643 L 407.5 644 Q 404.9 643.3 406 646 L 408.5 645 L 407.5 647 L 403.5 645 L 397 647.5 L 397.5 649 Q 394.9 649.7 396 647 L 391.5 647 L 385.5 649 L 384.5 648 L 367.5 648 L 365.5 648 L 355.5 647 L 355.5 648 L 358 648.5 L 355.5 649 L 349.5 645 L 348 645.5 L 348.5 644 L 346.5 645 L 341.5 643 L 339.5 644 L 338.5 641 L 337.5 643 L 336.5 641 L 333 641.5 Q 335.3 640.3 332.5 639 L 326.5 637 L 325 637.5 Q 325.8 635.3 323.5 636 L 323.5 638 L 321 636.5 L 323 635.5 L 320.5 635 L 319 635.5 L 320.5 633 L 317.5 632 Q 316.3 634.3 315 631.5 L 315.5 630 Q 313.3 629.3 314 631.5 L 312 630.5 L 314 629.5 L 311 629 Q 312.3 625.7 307.5 627 L 304 625.5 L 307 623.5 L 302.5 621 L 301.5 623 L 300 620.5 L 301 619.5 L 296.5 615 L 294.5 616 L 295 614.5 L 291.5 610 L 289 611.5 L 290 610.5 L 288.5 608 L 290.5 609 L 289.5 607 L 286.5 608 L 285.5 605 L 283 603.5 L 284 600.5 L 282.5 599 L 281 599.5 L 281.5 601 L 279.5 596 L 281 596.5 L 279.5 594 L 277.5 595 Q 279.4 592.3 274 589.5 L 274 585.5 L 272.5 581 L 271 581.5 L 271 579.5 L 269.5 577 L 269 578.5 L 269.5 580 L 268 577.5 L 269.5 575 L 267.5 576 Q 269.2 573.7 265 571.5 L 267 568.5 L 265 567.5 L 265 565.5 L 263.5 562 L 262.5 564 L 262 562.5 Q 265.5 561 263 559.5 L 258.5 545 L 257.5 548 L 256 541.5 Q 259.5 540 257 538.5 L 255.5 533 L 254.5 535 L 253 529.5 L 254 529.5 L 254.5 532 L 255 527.5 L 252.5 519 L 251 519.5 L 250 510.5 L 251 510.5 L 251.5 516 L 252 508.5 L 251 505.5 L 250 497.5 L 251 495.5 L 250 494.5 L 250 480 L 245 478.5 L 247 477.5 L 244 476.5 L 245 473.5 L 242.5 469 L 241.5 471 L 241 469.5 Q 244.5 468 242 466.5 L 241 464.5 L 241.5 463 L 239 461.5 L 238 456.5 L 238 426.5 L 239.5 421 L 241.5 422 L 241 420.5 L 242 418.5 L 242 416.5 L 241 411.5 L 242 411.5 L 243.5 414 L 244 409.5 L 242 409.5 Q 241.2 406.9 244.5 408 L 245 403.5 Q 244.3 400.9 247 402 L 247 399 L 248.5 399 L 250 398.5 L 248 401.5 L 254.5 396 L 256 395.5 L 253 393.5 L 254.5 393 L 258.5 393 L 260 392.5 L 259.5 391 L 262.5 392 L 263 389.5 Q 262.3 387.3 264.5 388 L 268.5 387 L 268.5 388 Q 264.1 386.5 265 389.5 L 266.5 389 L 269.5 389 L 277 385.5 L 274 384.5 L 276.5 384 L 279.5 386 L 294 382.5 L 293.5 381 L 296.5 382 L 298 380.5 L 295 379.5 L 302.5 378 L 302.5 379 Q 298.1 377.5 299 380.5 L 302.5 380 L 306.5 379 L 308.5 379 Q 315.2 379.7 318.5 377 L 320.5 377 L 323.5 376 L 327 377 L 327.5 375 L 328.5 377 L 331.5 375 L 333.5 375 L 336 374.5 L 333 373.5 L 337.5 373 L 337.5 375 L 340 374.5 L 339.5 373 L 345.5 372 Q 346.5 375 351.5 374 L 357.5 372 L 361.5 372 L 363 371.5 L 361 370.5 L 377.5 369 L 382.5 371 L 384.5 371 L 389.5 370 L 391.5 371 L 391.5 369 Q 393.8 368.3 393 370.5 L 394.5 370 L 400 368.5 L 398 367.5 L 406.5 366 Z M 372 370 L 372 371 L 378 371 L 372 370 Z M 563 370 L 563 371 L 565 371 L 563 370 Z M 365 371 L 365 372 L 368 372 L 365 371 Z M 341 373 L 342 375 L 346 374 L 341 373 Z M 623 373 L 623 374 L 627 374 L 623 373 Z M 800 376 L 800 377 L 803 377 L 800 376 Z M 815 376 L 813 378 L 818 379 L 818 378 L 815 376 Z M 674 379 L 674 381 L 676 380 L 678 381 Q 679 377 674 379 Z M 787 379 L 787 381 L 789 380 L 787 379 Z M 690 382 L 690 383 L 692 383 L 690 382 Z M 702 385 L 702 386 L 704 386 L 702 385 Z M 424 392 L 413 394 L 408 393 L 406 393 L 399 394 L 399 396 L 398 395 L 384 395 L 382 395 L 380 396 L 377 395 L 371 396 L 369 396 L 367 397 L 363 396 L 360 397 L 358 397 Q 356 399 352 398 L 350 400 Q 348 398 344 399 Q 342 402 341 400 Q 337 399 338 402 L 336 401 Q 331 400 331 403 L 328 402 L 325 403 L 321 402 L 320 404 L 317 405 L 316 404 L 314 403 L 313 405 L 308 406 L 307 405 L 304 408 L 300 407 L 296 409 L 295 408 L 293 409 L 293 411 L 292 413 L 291 411 Q 288 410 289 413 L 283 413 L 280 414 L 278 413 L 276 413 L 273 414 L 275 414 L 275 415 L 272 414 L 267 415 L 268 422 L 267 421 L 265 425 L 265 450 L 265 452 L 267 457 Q 266 463 269 462 L 268 464 L 269 466 L 272 469 L 271 470 L 273 474 Q 274 476 276 474 Q 278 475 276 477 L 277 478 L 277 497 L 277 499 L 279 506 L 279 511 L 279 513 L 282 525 L 282 527 L 284 527 L 283 529 L 286 541 L 294 561 L 296 560 L 295 562 L 296 564 Q 295 566 298 565 L 299 569 Q 298 571 301 570 L 300 572 L 301 574 L 304 575 L 303 577 L 307 583 L 309 582 L 309 585 L 311 584 L 310 586 L 311 588 L 313 587 L 312 589 L 317 592 L 316 591 L 315 593 L 318 594 Q 320 593 319 596 Q 320 598 322 596 L 321 598 L 325 599 L 326 602 Q 327 604 329 602 L 328 604 L 332 606 Q 334 605 333 608 L 335 607 L 335 609 L 338 610 L 341 612 L 341 610 L 344 612 Q 345 615 347 613 L 349 615 L 361 617 L 363 617 L 365 618 Q 366 616 368 619 L 371 618 L 374 619 Q 378 620 380 618 L 385 619 Q 387 615 389 619 L 403 614 L 405 614 Q 407 613 405 612 L 409 612 L 412 610 L 411 609 L 414 608 Q 416 609 415 607 L 417 607 L 421 604 L 424 601 L 423 600 L 425 600 Q 424 597 427 598 L 426 597 L 428 597 Q 427 594 430 595 L 429 594 L 433 590 L 434 591 L 439 584 L 439 582 L 441 582 L 441 581 L 441 579 Q 442 576 444 578 L 445 575 L 445 573 L 447 572 L 448 570 L 448 568 L 451 564 Q 454 562 450 561 L 452 561 L 454 557 L 454 555 L 456 551 L 456 549 L 458 548 L 457 542 L 459 542 L 459 539 L 461 533 L 460 531 L 461 530 L 461 513 L 461 511 L 459 505 L 461 505 L 466 502 Q 474 501 478 504 L 481 503 L 480 505 L 483 506 L 485 506 L 484 508 Q 485 510 487 508 Q 489 509 487 511 L 489 518 L 489 513 L 490 513 Q 491 520 487 522 Q 486 525 489 524 L 490 529 L 490 539 L 489 529 L 488 529 L 488 540 L 489 541 L 488 543 L 491 557 L 491 559 L 494 568 L 494 570 L 497 577 L 497 579 L 500 585 Q 503 586 501 588 Q 504 589 503 594 L 505 593 L 504 595 L 506 598 Q 505 601 508 600 L 507 602 L 509 606 L 511 605 L 510 607 L 511 609 L 514 608 L 513 612 Q 512 614 515 613 Q 519 615 516 617 L 518 621 L 520 620 L 521 623 L 523 622 L 522 626 L 523 628 Q 524 630 526 628 L 525 630 L 528 631 Q 530 632 528 634 Q 530 638 532 635 L 531 637 L 534 638 Q 535 636 536 639 L 533 640 Q 535 644 537 641 L 536 643 Q 538 647 540 644 L 539 646 L 542 648 Q 543 644 545 648 L 544 647 L 543 649 L 547 651 L 546 651 L 546 652 Q 549 651 548 654 L 550 653 L 550 655 Q 551 657 553 655 L 552 657 L 555 658 Q 556 661 558 660 Q 557 662 560 661 L 560 663 L 565 664 L 566 667 L 568 666 L 572 668 L 574 668 L 573 670 L 577 670 L 579 670 L 579 672 L 581 671 L 580 673 L 582 673 L 584 673 L 590 675 L 592 675 L 598 678 L 602 678 L 607 677 L 607 679 L 611 680 L 613 680 L 615 679 L 616 680 L 628 681 L 630 681 L 631 680 L 639 680 L 649 678 L 651 678 L 657 675 L 661 675 L 660 674 L 662 674 L 667 672 L 666 671 Q 668 672 671 668 L 672 669 L 676 666 L 675 665 L 677 665 L 683 658 Q 685 659 684 657 L 688 654 Q 690 655 689 653 Q 692 651 690 650 L 692 650 L 694 647 Q 697 645 693 644 L 695 644 Q 697 645 696 643 L 696 641 L 698 641 L 699 638 L 699 636 L 702 632 L 702 630 L 706 624 L 708 616 L 708 614 L 712 603 Q 710 601 713 600 L 712 598 L 716 596 L 715 594 L 714 591 L 715 589 L 714 587 L 716 586 L 715 585 L 716 583 L 717 585 L 718 584 L 718 581 L 716 582 L 715 580 L 716 570 L 717 567 L 716 566 L 716 540 L 715 568 L 714 568 L 715 537 L 715 539 L 716 539 L 715 534 L 726 529 L 725 528 L 727 528 L 732 526 L 731 525 L 733 525 L 735 524 L 734 523 L 738 521 Q 737 518 740 519 L 741 517 L 743 517 L 745 516 L 744 514 L 746 514 L 749 512 Q 752 512 751 508 L 756 505 Q 758 506 757 504 L 760 502 L 760 500 Q 762 501 761 499 Q 762 496 764 498 L 768 494 Q 767 491 771 492 Q 773 491 771 490 Q 772 487 774 489 L 777 487 L 783 479 L 783 482 L 783 500 L 785 500 L 790 501 L 791 499 L 793 499 Q 797 497 794 496 L 797 494 Q 799 493 797 492 L 799 492 L 802 486 L 801 484 Q 806 479 806 470 L 808 466 L 807 464 Q 812 459 812 449 L 812 447 L 814 442 L 814 422 L 812 420 L 813 418 L 812 416 L 809 413 L 810 412 L 808 409 L 807 409 Q 805 406 800 407 L 800 409 L 798 408 L 798 410 L 798 411 L 797 409 Q 794 410 796 412 L 795 414 L 792 415 L 791 418 Q 788 417 789 421 L 787 421 L 779 429 L 780 430 L 779 429 Q 774 431 777 433 L 776 432 Q 771 434 774 436 L 767 443 L 766 442 L 757 451 L 758 452 L 753 457 L 752 456 L 751 459 L 750 458 L 739 470 L 735 474 L 734 473 L 733 475 L 732 474 L 731 476 L 732 477 L 730 476 L 730 478 L 729 477 L 725 481 L 726 482 L 723 484 L 718 482 L 715 483 L 715 481 L 712 482 L 709 480 L 707 480 L 701 477 L 700 479 L 699 477 L 697 476 L 694 477 Q 692 473 690 477 L 689 475 L 679 474 L 674 472 L 673 474 L 670 472 L 668 473 L 660 470 L 658 471 Q 653 472 653 469 L 650 470 L 643 468 L 640 469 L 637 467 L 635 468 L 630 467 L 628 467 L 617 465 L 615 465 L 610 465 L 604 463 L 602 464 L 587 463 L 586 462 L 583 463 Q 576 465 575 462 L 548 462 L 547 461 L 544 462 L 542 461 L 541 463 L 538 462 L 537 463 L 524 463 L 522 464 L 520 464 L 518 463 Q 514 465 508 464 L 504 466 L 502 465 L 490 466 L 487 468 L 486 467 L 473 467 L 471 465 L 469 466 L 466 465 L 468 464 L 466 462 L 465 464 L 464 461 L 460 462 L 463 462 L 463 463 L 458 462 L 460 461 L 455 458 L 453 459 L 452 457 L 443 453 L 440 450 L 439 451 Q 436 452 437 450 L 435 449 L 433 450 Q 434 448 431 446 L 428 447 L 426 447 L 428 446 L 419 440 L 415 441 Q 416 439 413 437 L 411 438 L 408 436 Q 406 432 404 436 L 404 435 L 398 431 L 394 432 L 394 431 L 388 429 L 439 428 L 440 427 L 442 428 L 444 428 L 448 426 L 450 427 L 458 425 Q 459 421 461 424 L 465 422 L 464 421 L 464 420 L 467 422 L 472 419 Q 476 420 475 418 L 477 418 L 480 417 L 482 417 L 485 416 L 488 415 L 490 416 L 497 414 L 499 414 L 500 415 L 513 415 L 514 416 L 518 415 L 520 415 L 525 416 L 527 416 L 533 418 L 536 417 L 540 419 L 543 419 L 540 418 L 543 417 Q 545 418 543 420 L 551 422 L 555 422 L 553 421 L 555 420 Q 557 421 555 423 L 557 423 L 559 425 L 562 424 L 568 428 L 571 428 L 570 430 L 573 430 L 575 430 L 576 432 L 576 431 L 578 430 L 577 432 L 581 434 L 584 432 L 583 434 L 584 436 L 587 435 L 586 437 L 589 437 Q 590 440 592 438 L 591 440 L 595 441 L 597 441 L 599 444 Q 598 446 601 445 L 604 444 L 603 446 Q 605 450 607 447 Q 609 448 607 450 L 609 451 L 612 450 L 611 452 L 616 454 Q 618 453 617 456 L 619 455 Q 621 454 620 457 L 622 457 Q 621 459 628 458 L 630 458 L 642 458 L 642 457 L 644 457 L 648 455 L 649 453 L 654 449 L 654 439 L 653 438 Q 654 434 652 435 L 650 436 L 651 434 L 647 431 L 646 432 L 645 431 L 642 429 L 640 429 L 639 428 L 635 425 L 634 426 L 634 425 L 633 424 L 631 424 L 630 422 L 628 421 Q 624 422 625 420 L 624 420 L 620 418 L 618 418 L 614 415 L 612 416 L 612 415 L 610 413 L 606 414 L 606 413 L 601 410 L 598 411 L 598 409 Q 594 410 595 407 L 590 406 L 588 406 Q 585 407 586 405 L 584 406 L 582 406 L 584 405 L 580 403 L 580 405 L 577 402 L 574 403 L 572 403 L 574 402 L 572 401 L 570 402 Q 571 399 567 400 Q 565 396 563 400 L 563 399 L 561 398 L 561 400 L 560 398 L 557 399 L 557 398 L 551 396 Q 546 395 545 397 L 543 396 L 541 396 L 531 394 L 528 393 L 523 394 L 520 393 L 517 394 L 514 394 L 517 393 L 514 392 L 512 392 L 509 393 L 505 393 L 504 392 L 424 392 Z M 362 394 L 362 395 L 364 395 L 362 394 Z M 749 403 L 750 405 Q 751 402 749 403 Z M 240 426 L 239 457 L 240 457 L 240 426 Z M 841 427 L 840 431 L 841 431 L 841 427 Z M 766 440 L 766 442 L 768 441 L 766 440 Z M 241 457 L 240 462 L 241 462 L 241 457 Z M 813 514 L 811 516 Q 812 518 810 517 L 810 518 Q 813 519 812 517 L 815 515 L 813 514 Z M 809 518 L 807 521 L 809 521 L 809 518 Z M 805 521 L 806 524 L 807 522 L 805 521 Z M 778 533 L 778 535 L 778 536 L 780 535 Q 781 532 778 533 Z M 758 543 L 756 545 L 758 545 L 758 543 Z M 267 570 L 266 572 L 268 573 L 267 570 Z M 276 589 L 277 591 Q 278 588 276 589 Z M 470 594 L 470 595 L 472 595 L 470 594 Z M 424 638 L 422 640 L 424 640 L 424 638 Z " /><path fill="rgb(255,255,255)" stroke="rgb(255,255,255)" stroke-width="1" opacity="1" d="M 515.5 366 L 519 366.5 L 515.5 367 L 515.5 366 Z " /><path fill="rgb(255,255,255)" stroke="rgb(255,255,255)" stroke-width="1" opacity="1" d="M 521.5 366 L 526 366.5 L 521.5 367 L 521.5 366 Z " /><path fill="rgb(255,255,255)" stroke="rgb(255,255,255)" stroke-width="1" opacity="1" d="M 529.5 366 L 533 366.5 L 529.5 367 L 529.5 366 Z " /><path fill="rgb(255,255,255)" stroke="rgb(255,255,255)" stroke-width="1" opacity="1" d="M 603.5 370 L 606 371.5 L 603 372 L 603.5 370 Z " /><path fill="rgb(255,255,255)" stroke="rgb(255,255,255)" stroke-width="1" opacity="1" d="M 316.5 375 L 321 375.5 L 312.5 378 L 312 376 L 316.5 375 Z " /><path fill="rgb(255,255,255)" stroke="rgb(255,255,255)" stroke-width="1" opacity="1" d="M 283.5 382 L 284.5 384 L 282 383.5 L 283.5 382 Z " /><path fill="rgb(255,255,255)" stroke="rgb(255,255,255)" stroke-width="1" opacity="1" d="M 733.5 394 L 734.5 396 L 733.5 394 Z " /><path fill="rgb(255,255,255)" stroke="rgb(255,255,255)" stroke-width="1" opacity="1" d="M 838.5 402 L 840 409.5 L 839 409.5 L 838.5 402 Z " /><path fill="rgb(255,255,255)" stroke="rgb(255,255,255)" stroke-width="1" opacity="1" d="M 320.5 414 L 326 414.5 L 320.5 415 L 320.5 414 Z " /><path fill="rgb(255,255,255)" stroke="rgb(255,255,255)" stroke-width="1" opacity="1" d="M 481.5 414 L 484 414.5 L 481.5 415 L 481.5 414 Z " /><path fill="rgb(255,255,255)" stroke="rgb(255,255,255)" stroke-width="1" opacity="1" d="M 521.5 414 L 526 414.5 L 521.5 415 L 521.5 414 Z " /><path fill="rgb(255,255,255)" stroke="rgb(255,255,255)" stroke-width="1" opacity="1" d="M 342.5 417 L 345 417.5 L 342.5 418 L 342.5 417 Z " /><path fill="rgb(255,255,255)" stroke="rgb(255,255,255)" stroke-width="1" opacity="1" d="M 385.5 427 L 384.5 429 L 385.5 427 Z " /><path fill="rgb(255,255,255)" stroke="rgb(255,255,255)" stroke-width="1" opacity="1" d="M 630.5 456 L 636 456.5 L 630.5 457 L 630.5 456 Z " /><path fill="rgb(255,255,255)" stroke="rgb(255,255,255)" stroke-width="1" opacity="1" d="M 839.5 456 L 840 458.5 L 839 458.5 L 839.5 456 Z " /><path fill="rgb(255,255,255)" stroke="rgb(255,255,255)" stroke-width="1" opacity="1" d="M 553.5 463 L 562 463.5 L 553.5 464 L 553.5 463 Z " /><path fill="rgb(255,255,255)" stroke="rgb(255,255,255)" stroke-width="1" opacity="1" d="M 525.5 464 L 531 464.5 L 525.5 465 L 525.5 464 Z " /><path fill="rgb(255,255,255)" stroke="rgb(255,255,255)" stroke-width="1" opacity="1" d="M 535.5 464 L 538 464.5 L 535.5 465 L 535.5 464 Z " /><path fill="rgb(255,255,255)" stroke="rgb(255,255,255)" stroke-width="1" opacity="1" d="M 587.5 464 L 593 464.5 L 587.5 465 L 587.5 464 Z " /><path fill="rgb(255,255,255)" stroke="rgb(255,255,255)" stroke-width="1" opacity="1" d="M 621.5 467 L 624 467.5 L 621.5 468 L 621.5 467 Z " /><path fill="rgb(255,255,255)" stroke="rgb(255,255,255)" stroke-width="1" opacity="1" d="M 492.5 553 L 493 555.5 L 492 555.5 L 492.5 553 Z " /><path fill="rgb(255,255,255)" stroke="rgb(255,255,255)" stroke-width="1" opacity="1" d="M 271.5 583 L 273 585.5 L 271 584.5 L 271.5 583 Z " /><path fill="rgb(255,255,255)" stroke="rgb(255,255,255)" stroke-width="1" opacity="1" d="M 392.5 614 L 395 614.5 L 392.5 615 L 392.5 614 Z " /><path fill="rgb(255,255,255)" stroke="rgb(255,255,255)" stroke-width="1" opacity="1" d="M 430.5 636 L 429.5 638 L 430.5 636 Z " /><path fill="rgb(255,255,255)" stroke="rgb(255,255,255)" stroke-width="1" opacity="1" d="M 327.5 639 L 330 640.5 L 328.5 641 L 327.5 639 Z " /><path fill="rgb(255,255,255)" stroke="rgb(255,255,255)" stroke-width="1" opacity="1" d="M 342.5 644 L 347 646.5 L 345.5 647 L 342.5 644 Z " /><path fill="rgb(255,255,255)" stroke="rgb(255,255,255)" stroke-width="1" opacity="1" d="M 359.5 649 L 365 649.5 L 359.5 650 L 359.5 649 Z " /><path fill="rgb(255,255,255)" stroke="rgb(255,255,255)" stroke-width="1" opacity="1" d="M 389.5 649 L 393 649.5 L 389.5 650 L 389.5 649 Z " /><path fill="rgb(255,255,255)" stroke="rgb(255,255,255)" stroke-width="1" opacity="1" d="M 725.5 661 L 724.5 663 L 725.5 661 Z " /><path fill="rgb(255,255,255)" stroke="rgb(255,255,255)" stroke-width="1" opacity="1" d="M 548.5 693 L 552 694.5 L 549.5 695 L 548.5 693 Z " /><path fill="rgb(255,255,255)" stroke="rgb(255,255,255)" stroke-width="1" opacity="1" d="M 567.5 702 L 569.5 703 L 571 702.5 L 568.5 704 L 567.5 702 Z " /><path fill="rgb(255,255,255)" stroke="rgb(255,255,255)" stroke-width="1" opacity="1" d="M 588.5 709 L 592 709.5 L 588.5 710 L 588.5 709 Z " /><path fill="rgb(255,255,255)" stroke="rgb(255,255,255)" stroke-width="1" opacity="1" d="M 661.5 709 L 664 709.5 L 661.5 710 L 661.5 709 Z " /><path fill="rgb(39,39,37)" stroke="rgb(39,39,37)" stroke-width="1" opacity="1" d="M 420.5 395 L 508.5 395 L 509.5 396 L 521.5 396 L 522.5 397 L 531.5 397 L 532.5 398 L 553.5 400 L 581.5 407 L 611.5 418 L 640.5 431 L 650 437.5 Q 652.7 439.8 652 445.5 L 645.5 453 L 637.5 456 L 629.5 456 L 612.5 449 L 577.5 428 L 553.5 419 L 541.5 416 L 536.5 416 L 523.5 413 L 515.5 413 L 514.5 412 L 488.5 412 L 478.5 414 L 461.5 421 L 446.5 425 L 381.5 425 L 337.5 415 L 295 411.5 L 352.5 401 L 369.5 400 L 379.5 398 L 389.5 398 L 390.5 397 L 419.5 396 L 420.5 395 Z " /><path fill="rgb(39,39,37)" stroke="rgb(39,39,37)" stroke-width="1" opacity="1" d="M 801.5 410 Q 806.3 410.3 808 413.5 L 811 421.5 L 811 443.5 L 801 479.5 L 796 490.5 L 791.5 496 L 786.5 498 L 785 496.5 L 785 478.5 L 786 475 L 779.5 479 L 734.5 520 Q 725.6 527.6 713 530 L 713 578.5 L 712 579.5 L 711 593.5 L 706 614.5 Q 701.6 629.6 694 641.5 L 674.5 663 L 667.5 668 L 651.5 675 L 641.5 677 L 634.5 677 L 633.5 678 L 617.5 678 L 616.5 677 L 598.5 675 L 579.5 669 Q 555.1 658.4 538 640.5 L 521 619.5 Q 507.8 599.7 499 575.5 L 491 543.5 L 490 513.5 L 491 509 L 480.5 501 L 468.5 499 L 460.5 501 L 456 504.5 L 459 514.5 L 459 527.5 Q 451.1 573.1 422.5 598 Q 405.3 616.3 369.5 616 L 353.5 613 L 335.5 605 Q 323.8 597.8 315 587.5 Q 297.1 566.9 288 537.5 L 280 501.5 L 279 475.5 Q 270.5 467.5 268 453.5 L 267 429.5 L 270 417 L 278.5 417 L 279.5 416 L 308.5 416 L 309.5 417 L 336.5 419 L 376.5 428 L 415.5 443 L 462.5 467 L 471.5 470 L 482.5 471 L 483.5 470 L 493.5 470 L 494.5 469 L 516.5 467 L 517.5 466 L 531.5 466 L 532.5 465 L 545.5 465 L 546.5 464 L 566.5 464 L 567.5 465 L 584.5 465 L 585.5 466 L 612.5 467 L 613.5 468 L 620.5 468 L 621.5 469 L 628.5 469 L 629.5 470 L 656.5 473 L 662.5 475 L 668.5 475 L 695.5 480 L 723.5 487 L 769 443.5 Q 768.3 441.3 770.5 442 L 799.5 411 L 801.5 410 Z " /></svg>